<?xml version="1.0" encoding="utf-8"?>
<!-- Generator: Adobe Illustrator 22.0.0, SVG Export Plug-In . SVG Version: 6.00 Build 0)  -->
<svg version="1.1" id="Layer_1" xmlns="http://www.w3.org/2000/svg" xmlns:xlink="http://www.w3.org/1999/xlink" x="0px" y="0px"
	 viewBox="0 0 200 57" style="enable-background:new 0 0 200 57;" xml:space="preserve">
<style type="text/css">
	.st0{fill:#725A16;}
	.st1{fill:#AF8928;}
	.st2{fill:#D9AA27;}
	.st3{fill:#D9AB2D;}
	.st4{fill:#302D2E;}
	.st5{fill:#F4E8CA;}
	.st6{fill:#997C1F;}
	.st7{fill:#211501;}
	.st8{fill:#C19C32;}
	.st9{fill:#FDFDFD;}
	.st10{fill:#775D24;}
	.st11{fill:#FFFFFF;}
	.st12{fill:#C49A27;}
</style>
<g>
	<path class="st0" d="M18.5,51.3c0,0,0.7,1.4,1.9-0.5c0,0,0.5,3.4,2.4,0.9c0,0,0.9,2.7,2.7,0.5c0,0,1.1,2.8,2.3,0c0,0,1.4,3.2,2.5,0
		c0,0,1.6,2.9,2.7,0c0,0,1.9,2.5,2.1-0.9c0,0,2.3,3.2,2.6-0.5c0,0,1.6,1.7,1.8,0.5c0.2-1.2,0-1.2,0-1.2H18.9L18.5,51.3z"/>
	<polygon class="st1" points="56.5,48.2 51.4,51.2 53.3,56.9 40.5,52.5 45.7,52.3 49.6,45.8 	"/>
	<path class="st2" d="M7,43.3c0,0,21.2-9.1,44,0l-5.6,9.4c0,0-15.1-6.2-32.4,0L7,43.3z"/>
	<g>
		<path class="st3" d="M49.9,42.7C49.9,42.8,49.9,42.8,49.9,42.7c0.2,0.2,0.5,0.2,0.7,0.3c0.1,0.1,0.3,0.1,0.3,0.3
			c0,0.2-0.2,0.4-0.4,0.4c-0.1,0-0.3,0-0.4-0.1c-1.5-0.5-3-1-4.5-1.4c-4.5-1.3-9.1-2-13.8-2.2c-3.1-0.1-6.2,0-9.3,0.3
			c-4.1,0.4-8.2,1.2-12.1,2.4c-0.9,0.3-1.8,0.6-2.7,0.9c-0.3,0.1-0.5,0-0.7-0.3c-0.1-0.3,0.2-0.3,0.3-0.4c0.4-0.2,0.8-0.2,1.1-0.5
			c0.8-0.2,1.6-0.3,2.3-0.7c0.1,0,0.1,0,0.2-0.1c0.6-0.1,0.6-0.1,0.3-0.6c-0.5-0.7-1-1.3-1.5-2.1c-3.1-4.9-4.3-10.3-3.4-16
			c0.9-5.7,3.6-10.4,8-14.1c4.4-3.6,9.4-5.4,15.1-5.2c3.6,0.1,6.9,1,10.1,2.6c4.3,2.3,7.6,5.6,9.8,10c2.3,4.5,3,9.2,2.1,14.1
			c-0.7,4-2.3,7.6-4.9,10.7c-0.1,0.1-0.3,0.2-0.2,0.4c0.1,0.2,0.3,0.1,0.4,0.2l0,0l0,0c0,0,0.1,0.1,0.1,0.1c0.1,0,0.2,0,0.3,0.1
			c0.7,0.4,1.5,0.5,2.3,0.7c0.1,0,0.1,0,0.2,0c0,0,0,0,0,0C49.8,42.7,49.8,42.7,49.9,42.7z M21.3,30.9c0,0.2,0,0.3,0.2,0.3
			c0.1,0.1,0.1,0.1,0.2,0.2c0,0.2,0.1,0.3,0.3,0.4c0,0,0,0.1,0.1,0.1c0.2,0.5,0.4,0.9,0.9,1.1c0,0,0,0.1,0,0.1
			c0.4,0.8,0.8,1.5,1.5,2.1c0,0,0,0,0.1,0.1c0,0.2,0.1,0.3,0.3,0.4c0,0,0,0,0,0.1c0,0.3,0.1,0.4,0.3,0.5l0,0
			c0.1,0.4,0.3,0.7,0.6,0.8c0,0,0,0.1,0,0.1c0,0.2,0.1,0.3,0.3,0.4c0,0,0,0.1,0.1,0.1c0.2,0.5,0.4,0.9,0.9,1.2c0,0,0,0,0,0.1
			c0,0.2,0,0.4,0.3,0.5c0.1,0,0.3,0,0.3-0.2c0.1-0.2,0.1-0.4-0.1-0.5c0-0.1,0-0.1,0-0.2c0.2-0.9,0-1.7-0.3-2.5c0-0.2-0.1-0.4,0-0.7
			c0.2-0.1,0.1-0.3,0.2-0.5c0.1-1-0.1-2,0-3.1c0-0.5-0.1-1-0.2-1.5c-0.2-1.5-0.9-2.9-1.5-4.3c0-0.2,0-0.5-0.1-0.7
			c0.1-0.2,0.2-0.4-0.1-0.6c0-0.1,0-0.1,0-0.2c0.1-0.2,0.1-0.3-0.1-0.5c0-0.1,0-0.2,0-0.3c0.2-0.4,0-0.7-0.2-1c0-0.1,0-0.1,0-0.2
			c0.4-0.1,0.5,0.2,0.6,0.5c0.1,0.3,0.2,0.6,0.2,1c0.3,1.1,0.3,2.2,0.7,3.2c0.1,0.4,0.3,0.5,0.7,0.3c0.1,0.1,0.1,0.2,0.2,0.2
			c0.6,0.1,0.3-0.3,0.3-0.5c0-0.1,0-0.1,0-0.2c0.2-0.2,0.2-0.3-0.1-0.5c0-0.2,0-0.4,0-0.5c0.1-0.1,0.2-0.2,0.1-0.3
			c0.1-0.1,0.2-0.1,0.2-0.2c0.1,0,0.2,0,0.3-0.1c0.1,0,0.2,0,0.3,0c0,0.1,0.1,0.2,0.3,0.1l0,0c-0.2,0.6-0.5,1.2-0.4,1.9
			c0,0.2,0.1,0.4,0.2,0.4c0.3,0,0.6,0.4,0.8-0.1c0.8-1.6,1-3.4,1.5-5c0-0.1,0.1-0.2,0-0.3c-0.2-0.3,0-0.5,0.2-0.7
			c0.4-0.1,0.5-0.5,0.8-0.7c0.1,0,0.2-0.1,0.3-0.1c0.3,0.3,0,0.5-0.2,0.7c-0.1,0.2-0.3,0.3-0.4,0.5c-0.3,0.6-0.2,1.2-0.4,1.8
			c-0.4,1.4-0.4,2.8-1,4.1c-0.3,0.6-0.5,1.2-0.7,1.8c-0.4,1.5-0.1,3.1-0.3,4.6c-0.2,1.5-0.3,3-0.5,4.6c0,0.2-0.1,0.4,0.1,0.4
			c0.2,0.1,0.5,0.3,0.8,0c3-4,5.9-8,8.9-12c0.3-0.2,0.2-0.4,0.1-0.6c-0.1-0.3-0.4-0.5-0.4-0.8l0,0c1,0.9,1.1,1.4,0.2,2.4
			c-0.1,0.1-0.1,0.2-0.2,0.2c-2.4,3.3-4.9,6.5-7.3,9.8c-0.2,0.2-0.4,0.4-0.4,0.7l0,0c-0.2,0-0.3,0.1-0.3,0.3c0,0.1,0.2,0.2,0.3,0
			c0.2,0.2,0.4,0.1,0.7,0.1c0.6-0.1,1.2,0.3,1.8-0.2c0.1-0.1,0.2,0,0.3,0.1c0.1,0.1,0.3,0.3,0.4,0.1c0.1-0.2-0.1-0.2-0.2-0.4
			c0-0.1-0.1-0.1,0-0.2c0.3,0.2,0.7,0.5,1,0.7c0.1,0.1,0.3,0.3,0.5,0c0.1-0.2-0.1-0.3-0.3-0.4c-0.2-0.1-0.4-0.2-0.6-0.4
			c-0.2-0.1-0.4-0.2-0.5-0.5c1.3,0.4,2.2,1.6,3.7,1.4c-1-0.7-2.2-1.2-3.3-1.8c0.1-0.1,0.2-0.1,0.2-0.1c1.2,0.5,2.3,1,3.5,1.5
			c0.1,0,0.2,0.1,0.2,0.2c0,0.5,0.4,0.3,0.7,0.4c0.3,0.2,0.6,0.2,0.8-0.1c0.9-0.8,1.7-1.5,2.4-2.4c2.9-3.7,4.2-8,3.7-12.7
			c-0.5-4.7-2.7-8.6-6.4-11.4C35,9.8,30,8.7,24.6,10.1c-5.1,1.3-8.8,4.4-11.1,9c-1.9,3.8-2.2,7.9-1.1,12c0.9,3.5,2.8,6.3,5.6,8.6
			c0.3,0.2,0.5,0.4,0.9,0.1c0.4,0,0.7,0.1,0.9-0.4c0-0.1,0.2-0.2,0.3-0.2c0.5-0.2,1-0.5,1.6-0.7c0.6-0.2,1.1-0.5,1.7-0.5
			c-1,0.5-1.9,1-2.9,1.5c1.3,0.3,2.1-0.8,3.3-1.1c-0.5,0.4-0.9,0.6-1.3,0.9c0.4,0.2,0.7,0,0.9-0.2c0.2-0.1,0.3-0.3,0.4,0.1
			c0.1,0.2,0.2,0.1,0.3,0.1c0.2-0.1,0.4,0,0.6,0c0.4,0.1,0.9,0.1,1.3,0c0.2,0,0.4-0.1,0.5-0.3c0.1-0.2-0.1-0.3-0.3-0.4
			c0,0-0.1-0.1-0.1-0.1c0-0.3-0.1-0.5-0.4-0.6c-0.1-0.1-0.1-0.1-0.2-0.2c0-0.1,0-0.2-0.2-0.2c0,0,0-0.1,0-0.1c0-0.2-0.1-0.3-0.3-0.4
			c0,0,0-0.1,0-0.1c0-0.2-0.1-0.3-0.3-0.4c0,0,0-0.1,0-0.1c0-0.2,0-0.2-0.2-0.2c0-0.1-0.1-0.1-0.1-0.2c-0.4-0.8-0.9-1.5-1.5-2.1
			c0-0.1-0.1-0.1-0.1-0.2c0-0.2-0.1-0.3-0.3-0.4c0,0,0-0.1,0-0.1c0-0.1,0-0.2-0.2-0.2l0,0c0-0.2-0.1-0.4-0.3-0.4c0,0,0-0.1,0-0.1
			c0-0.2-0.1-0.3-0.3-0.4c0,0,0-0.1,0-0.1c-0.1-0.3-0.2-0.6-0.5-0.7c0,0,0-0.1,0-0.1c-0.3-0.6-0.7-1.3-1.3-1.7c0,0,0-0.1,0-0.1
			c-0.1-0.4-0.2-0.7-0.6-0.8c0,0,0-0.1,0-0.1c-0.1-0.3-0.2-0.6-0.5-0.7c-0.1,0-0.1-0.1-0.2-0.2c0-0.1,0-0.2-0.2-0.2
			c-0.5-0.3-0.5-0.6-0.1-1.1c2.4-3.1,4.7-6.3,7-9.4c1.1-1.5,2.2-3,3.3-4.5c0.1-0.2,0.3-0.6,0.6-0.2c-0.1,0.2,0.3,0.5-0.1,0.6
			c-0.3,0.1-0.5,0.3-0.7,0.6c-1.3,1.9-2.7,3.6-4,5.5C23,20.4,22,21.6,21,22.9c-0.8,1.1-1.7,2.3-2.5,3.4C18,27,18,27,18.7,27.4
			c0,0,0,0.1,0.1,0.1c0,0.2,0.1,0.3,0.3,0.4c0.1,0.2,0.3,0.4,0.4,0.5c0,0.2,0.1,0.3,0.3,0.4c0,0,0,0.1,0.1,0.1c0,0.1,0,0.2,0.2,0.2
			c0,0.1,0.1,0.1,0.1,0.2c0,0.2,0.1,0.3,0.3,0.4c0,0,0,0.1,0,0.1c0,0.2,0.1,0.3,0.2,0.3c0,0,0.1,0.1,0.1,0.1c0,0.1,0,0.2,0.2,0.2
			c0,0,0,0.1,0,0.1C20.9,30.7,21.1,30.8,21.3,30.9L21.3,30.9z M11.1,30.9c0-0.1-0.1-0.2-0.1-0.2c-0.5,0.1-0.8-0.2-1.1-0.6
			c-0.1-0.2-0.3,0-0.3,0.1c-0.1,0.4-0.3,0.6-0.7,0.7c-0.3,0-0.3,0.2-0.1,0.4c0.3,0.2,0.5,0.5,0.4,0.9c0,0.3,0.1,0.4,0.4,0.2
			c0.3-0.3,0.6-0.3,1-0.1c0.3,0.1,0.5,0,0.3-0.3c-0.2-0.3-0.1-0.6,0.1-0.8C11,31.1,11.1,31,11.1,30.9z M50.1,27
			c0-0.2-0.1-0.2-0.2-0.2c-0.4,0-0.6-0.3-0.7-0.7c-0.1-0.4-0.3-0.3-0.4,0c-0.2,0.3-0.4,0.5-0.8,0.5c-0.4,0-0.4,0.1-0.2,0.4
			c0.2,0.2,0.4,0.5,0.2,0.9c-0.1,0.3,0,0.5,0.3,0.3c0.3-0.1,0.6-0.1,0.9,0.1c0.3,0.2,0.4,0.2,0.4-0.2c0-0.4,0.1-0.7,0.4-0.9
			C50,27.1,50,27,50.1,27z M49.5,31.1c0-0.2-0.1-0.2-0.2-0.2c-0.4,0-0.7-0.2-0.8-0.7c-0.1-0.3-0.3-0.3-0.4,0
			c-0.2,0.4-0.4,0.5-0.8,0.5c-0.4,0-0.4,0.2-0.2,0.4c0.3,0.3,0.3,0.6,0.2,0.9c-0.1,0.3,0.1,0.4,0.3,0.3c0.3-0.1,0.6-0.1,0.9,0.1
			c0.2,0.2,0.4,0.1,0.4-0.2c-0.1-0.4,0.1-0.7,0.5-0.9C49.4,31.2,49.4,31.2,49.5,31.1z M45.7,38.6c-0.1-0.2-0.2-0.3-0.3-0.3
			c-0.4-0.1-0.6-0.2-0.6-0.6c-0.1-0.4-0.3-0.3-0.5,0c-0.2,0.3-0.4,0.5-0.8,0.4c-0.3,0-0.5,0.1-0.2,0.4c0.3,0.3,0.4,0.6,0.2,1
			c-0.1,0.1-0.1,0.2,0,0.3c0.1,0.1,0.2,0,0.3,0c0.4-0.2,0.7-0.2,1,0.1c0.1,0.1,0.3,0.1,0.3,0C45.1,39.4,45.1,38.9,45.7,38.6z
			 M45.4,13.8c0,0-0.1,0.1-0.2,0.1c-0.2,0.4-0.5,0.6-1,0.6c-0.3,0-0.2,0.2-0.1,0.4c0.3,0.3,0.4,0.5,0.2,0.9c-0.1,0.3,0,0.5,0.3,0.3
			c0.3-0.2,0.6-0.1,0.9,0.1c0.3,0.2,0.4,0.1,0.4-0.2c-0.1-0.4,0.1-0.6,0.4-0.9c0.3-0.2,0.2-0.4-0.1-0.4c-0.4-0.1-0.6-0.3-0.7-0.6
			C45.6,14,45.5,13.9,45.4,13.8z M12.9,39.5c0,0.2-0.1,0.3,0,0.4c0.2,0.1,0.3-0.1,0.4-0.1c0.3-0.2,0.5-0.1,0.8,0
			c0.3,0.1,0.5,0,0.3-0.3c-0.1-0.3,0-0.6,0.2-0.9c0.2-0.3,0.1-0.4-0.2-0.4c-0.4,0-0.6-0.1-0.8-0.4c-0.2-0.4-0.4-0.3-0.5,0.1
			c-0.1,0.3-0.3,0.5-0.7,0.6c-0.4,0.1-0.4,0.3-0.1,0.5C12.8,39,13,39.2,12.9,39.5z M16.2,13c0.3,0,0.3-0.2,0.2-0.4
			c-0.1-0.4-0.1-0.7,0.2-0.9c0.3-0.3,0.1-0.4-0.2-0.4c-0.4,0-0.7-0.2-0.9-0.5c-0.1-0.2-0.3-0.3-0.3,0c-0.1,0.4-0.4,0.7-0.8,0.8
			c-0.2,0-0.3,0.2-0.1,0.3c0.4,0.2,0.6,0.6,0.5,1c0,0.1,0.1,0.3,0.2,0.2C15.4,12.8,15.8,12.7,16.2,13z M47.3,17.6
			c0,0-0.1,0.1-0.2,0.2c-0.2,0.4-0.4,0.5-0.8,0.5c-0.3,0-0.4,0.2-0.1,0.4c0.2,0.3,0.4,0.5,0.2,0.9c0,0.1-0.2,0.3,0,0.4
			c0.1,0.1,0.3,0,0.4,0c0.3-0.2,0.6-0.1,0.8,0.1c0.4,0.3,0.5,0.1,0.5-0.3c0-0.3,0.1-0.6,0.4-0.8c0.3-0.2,0.3-0.4-0.1-0.4
			c-0.4-0.1-0.6-0.3-0.7-0.7C47.6,17.7,47.5,17.6,47.3,17.6z M13.7,15.9c-0.2-0.4-0.1-0.8,0.2-1.1c0.2-0.2,0-0.3-0.2-0.3
			c-0.4,0-0.7-0.1-0.9-0.5c-0.1-0.3-0.3-0.3-0.4,0c-0.1,0.4-0.4,0.6-0.8,0.7c-0.3,0.1-0.3,0.2,0,0.4c0.3,0.2,0.5,0.5,0.4,0.9
			c0,0.3,0,0.4,0.3,0.2c0.3-0.2,0.6-0.3,1-0.1C13.5,16.2,13.7,16.2,13.7,15.9z M20.1,9c0-0.2-0.1-0.2-0.2-0.2
			c-0.5,0.1-0.8-0.1-1-0.5c-0.2-0.3-0.3-0.1-0.4,0.1c-0.1,0.3-0.3,0.6-0.7,0.6c-0.4,0.1-0.3,0.3-0.1,0.4c0.3,0.2,0.4,0.5,0.4,0.9
			c0,0.4,0.1,0.4,0.4,0.2c0.3-0.3,0.6-0.3,0.9-0.1c0.3,0.2,0.4,0,0.3-0.3c-0.1-0.4-0.1-0.7,0.2-0.9C20,9.1,20.1,9,20.1,9z M30.3,7.2
			c0,0,0,0.1,0,0.2c-0.2,0.5,0,0.6,0.4,0.4c0.3-0.2,0.5,0,0.7,0.1c0.1,0.1,0.2,0.2,0.3,0.1c0.2-0.1,0.1-0.3,0.1-0.4
			c0-0.3,0-0.6,0.3-0.8c0.3-0.2,0.3-0.4-0.1-0.5c-0.4-0.1-0.6-0.3-0.7-0.6c-0.1-0.3-0.2-0.3-0.4-0.1c-0.2,0.3-0.4,0.5-0.8,0.5
			c-0.3,0-0.4,0.1-0.2,0.4C30.2,6.8,30.3,6.9,30.3,7.2z M11.9,18.5c0-0.2-0.1-0.2-0.3-0.2c-0.2,0-0.4,0.1-0.5-0.1
			c-0.4-0.6-0.7-0.7-0.9,0.1c-0.9,0.2-0.7,0.4-0.3,1.1c0.3,0.5,0.2,0.9,0.9,0.4c0.9,0.4,0.9-0.1,0.8-0.7
			C11.6,18.8,11.8,18.6,11.9,18.5z M45.7,35.9c-0.1,0.3,0,0.4,0.3,0.3c0.3-0.2,0.6-0.2,0.9,0.1c0.3,0.2,0.4,0.1,0.4-0.2
			c0-0.4,0.1-0.6,0.4-0.8c0.3-0.2,0.2-0.4-0.1-0.5c-0.4-0.1-0.5-0.3-0.7-0.6c-0.1-0.3-0.3-0.3-0.4,0c-0.2,0.4-0.5,0.5-0.9,0.5
			c-0.3,0-0.3,0.1-0.2,0.3C45.8,35.2,46,35.5,45.7,35.9z M27,7.6c0.8,0.5,0.9,0.2,0.7-0.5c0,0,0-0.1,0-0.1c0.5-0.6,0.2-0.6-0.4-0.9
			c-0.6-0.4-0.6-0.3-1.2,0.1c-0.6,0.5-0.4,0.5-0.2,1C26.3,7.8,26.3,8.2,27,7.6z M10.7,22.5c0-0.2-0.1-0.2-0.2-0.2
			c-0.4,0-0.8-0.1-0.9-0.5c-0.1-0.2-0.3-0.2-0.4,0c-0.1,0.4-0.4,0.6-0.8,0.7c-0.3,0.1-0.3,0.2-0.1,0.4c0.4,0.2,0.5,0.5,0.4,0.9
			c0,0.3,0.1,0.4,0.4,0.2c0.3-0.2,0.6-0.3,0.9-0.1c0.3,0.2,0.4,0,0.3-0.3c-0.1-0.4-0.1-0.7,0.2-0.9C10.7,22.6,10.7,22.6,10.7,22.5z
			 M49,24.1c0.2,0,0.2-0.1,0.2-0.2c-0.1-0.4,0.1-0.7,0.4-0.9c0.3-0.2,0.1-0.4-0.1-0.4c-0.4-0.1-0.6-0.3-0.7-0.6
			c-0.1-0.3-0.2-0.4-0.4-0.1c-0.2,0.4-0.5,0.5-0.9,0.5c-0.3,0-0.4,0.1-0.1,0.3c0.3,0.3,0.4,0.6,0.2,1c-0.1,0.4,0.1,0.4,0.4,0.3
			c0.3-0.1,0.6-0.1,0.9,0.1C48.9,24,48.9,24,49,24.1z M41.6,12.6c0,0.4,0,0.4,0.3,0.3c0.4-0.2,0.7-0.1,1,0.1
			c0.2,0.1,0.4,0.2,0.4-0.1c-0.1-0.5,0.1-0.7,0.5-1c0.2-0.1,0.2-0.3-0.1-0.3c-0.5-0.1-0.7-0.4-0.8-0.8c-0.1-0.2-0.3-0.2-0.3,0
			c-0.2,0.4-0.5,0.5-0.9,0.5c-0.3,0-0.3,0.2-0.2,0.4C41.6,12,41.8,12.3,41.6,12.6z M40.4,9.3C40.4,9,40.3,9,40.1,9
			c-0.3-0.1-0.6-0.2-0.7-0.6C39.4,8,39.2,8,39,8.3c-0.2,0.3-0.4,0.5-0.8,0.4c-0.4,0-0.4,0.2-0.2,0.4c0.2,0.3,0.3,0.6,0.2,0.9
			c-0.2,0.3,0.1,0.4,0.3,0.3c0.3-0.2,0.6-0.1,0.9,0.1c0.2,0.2,0.5,0.2,0.4-0.2c-0.1-0.4,0.1-0.6,0.3-0.8C40.3,9.3,40.4,9.3,40.4,9.3
			z M22.2,8.9c0.3-0.5,0.8-0.3,1.3-0.2c0.2,0.1,0.2-0.1,0.1-0.3c-0.2-0.4-0.1-0.7,0.2-1C24,7.2,23.9,7,23.6,7.1
			c-0.4,0-0.6-0.1-0.8-0.5c-0.1-0.2-0.3-0.3-0.4,0C22.3,7,22,7.2,21.6,7.3c-0.3,0.1-0.3,0.2-0.1,0.4c0.3,0.3,0.5,0.6,0.4,1
			C22,8.8,22,8.9,22.2,8.9z M8.5,27.9c0,0.2-0.1,0.3,0.1,0.4c0.2,0.1,0.2-0.1,0.3-0.1c0.3-0.2,0.5-0.2,0.8-0.1
			c0.2,0.1,0.5,0.2,0.4-0.3c-0.1-0.4,0-0.6,0.2-0.9c0.2-0.2,0.2-0.4-0.2-0.4c-0.4,0-0.6-0.2-0.8-0.5c-0.2-0.3-0.3-0.2-0.4,0
			c-0.1,0.4-0.3,0.6-0.7,0.7c-0.3,0.1-0.4,0.2-0.1,0.4C8.4,27.4,8.6,27.6,8.5,27.9z M10.6,36c0,0.2,0,0.6,0.4,0.3
			c0.4-0.2,0.7-0.3,1-0.1c0.3,0.1,0.3-0.1,0.3-0.3c-0.2-0.4-0.1-0.7,0.2-1c0.2-0.2,0.1-0.4-0.2-0.3c-0.4,0-0.7-0.2-0.9-0.5
			c-0.1-0.2-0.3-0.3-0.4,0c-0.1,0.4-0.4,0.6-0.7,0.7C10,34.9,10,35,10.2,35.2C10.4,35.4,10.7,35.5,10.6,36z M35.1,8.5
			c0.2,0,0.3,0.1,0.5,0.2c0.3,0.2,0.5,0.1,0.4-0.2c-0.1-0.4,0.1-0.6,0.4-0.8c0.3-0.2,0.2-0.4-0.1-0.4c-0.4-0.1-0.6-0.3-0.7-0.6
			c-0.1-0.3-0.3-0.3-0.4,0c-0.2,0.3-0.4,0.5-0.8,0.5c-0.4,0-0.4,0.1-0.2,0.4c0.1,0.2,0.4,0.3,0.3,0.6c-0.2,0.6-0.2,0.9,0.5,0.5
			C35.1,8.5,35.1,8.5,35.1,8.5z"/>
		<path class="st3" d="M29.9,45.2L29.9,45.2c-0.2,0-0.3,0.1-0.1,0.2c0,0,0.1,0.1,0.1,0.1c0,0,0.1,0.1,0.1,0.1c0,0.1,0,0.1,0.1,0.2
			c0,0,0,0.1,0.1,0.1c0.2,0.6,0.3,1.2,0.5,1.8c0,0.1,0,0.3,0.2,0.4c0.1,0,0.2-0.2,0.3-0.3c0.3-0.4,0.3-0.9,0.7-1.4
			c0.2,0.5,0.3,0.9,0.4,1.4c0.1,0.2,0,0.4,0.2,0.4c0.2,0,0.3-0.2,0.3-0.4c0.4-0.8,0.5-1.7,1-2.4c-0.1,0-0.1-0.1-0.2-0.1
			c-0.3,0-0.7-0.2-0.6,0.5c0.1,0.4-0.2,0.8-0.5,1.3c-0.2-0.5-0.3-0.9-0.4-1.3c-0.1-0.1,0-0.4-0.3-0.4c-0.2,0-0.2,0.2-0.3,0.4
			c-0.2,0.4-0.4,0.9-0.6,1.3c-0.4-0.5-0.4-0.9-0.4-1.4l0,0l0,0c0.1-0.1,0.1-0.2,0-0.4l0,0c0-0.1-0.1-0.1-0.1,0c-0.1,0-0.3,0-0.4,0
			C29.9,45.1,29.9,45.1,29.9,45.2z M25.8,41.2c0,0,0.1,0.1,0.1,0.1c0,0.2,0,0.3,0,0.5c0,0.1,0,0.1,0,0.2c0,0.3,0,0.7,0,1
			c-0.1,0.4,0,0.8-0.1,1.2c-0.1,0.2,0.1,0.2,0.2,0.2c0.1,0,0.1,0,0.2,0c0.2,0,0.4,0.1,0.5,0c0.2-0.1,0.3-0.3-0.1-0.3
			c0-0.1-0.1-0.1-0.1-0.2c0.1-0.3-0.2-0.7,0.2-1c0.1,0,0.2-0.1,0.3-0.1c0.1,0,0.1,0,0.1,0c0.2-0.2,0.4-0.4,0.5-0.7
			c0.1-0.2,0.2-0.4,0-0.6c0-0.1-0.1-0.1-0.1-0.2c0,0-0.1-0.1-0.1-0.1c0,0-0.1-0.1-0.1-0.1c0,0-0.1,0-0.1,0c0,0-0.1,0-0.1,0
			c-0.2-0.1-0.4-0.1-0.7-0.1c-0.1,0-0.2,0-0.2,0c-0.2,0-0.4-0.1-0.5,0C25.5,40.9,25.5,41.1,25.8,41.2L25.8,41.2z M21.4,48.1
			c0.1-0.1,0.1-0.1,0.1-0.2c0-0.1,0.1-0.3,0.1-0.4c0,0,0-0.1,0-0.1c0-0.5,0.3-0.9,0.4-1.4c0-0.1,0.1-0.2,0.3-0.2
			c0.2,0,0.2,0.2,0.2,0.3c0,0.3,0,0.6,0.1,0.9c-0.1,0.3,0.1,0.5,0.1,0.8c0,0.1,0,0.2-0.1,0.4c-0.2,0.1-0.2,0.2,0,0.3
			c0.3,0.2,0.6,0,0.9-0.1c0.1-0.1,0-0.2-0.1-0.3c0-0.1,0-0.3-0.1-0.4c0.1-0.3-0.1-0.5-0.1-0.8c0-0.4,0.1-0.9-0.1-1.2
			c-0.2-0.3-0.8,0-1.2-0.1c0,0-0.1,0-0.1,0c-0.1,0-0.3,0-0.2,0.2c0.1,0.5-0.2,1-0.3,1.5c0,0.1,0,0.2-0.1,0.2c-0.1,0-0.2-0.1-0.2-0.2
			c-0.2-0.4-0.4-0.8-0.5-1.2c-0.1-0.4-0.2-0.4-0.5-0.4c-1.4,0.2-2.8,0.5-4.3,0.7c-0.3,0.1-0.3,0.2-0.2,0.6c0.7-0.4,0.8-0.4,0.9,0.4
			c0.1,0.4,0.1,0.8,0.2,1.2c0,0.2-0.3,0.4,0.1,0.5c0.2,0.1,0.4,0,0.7-0.1c0.1,0,0.2-0.1,0.1-0.2c-0.5-0.5-0.4-1.2-0.5-1.8
			c-0.1-0.6,0-0.7,0.6-0.5c0.1,0,0.2,0.1,0.3-0.1c0-0.1,0-0.3,0.2-0.2c0.1,0,0.2,0.2,0.2,0.3c0.1,0.4,0.1,0.9,0.2,1.3
			c0.1,1.1,0.1,1.1,1.2,0.9c0.2,0,0.3-0.1,0.4-0.3c0-0.1,0-0.3-0.1-0.3c-0.2-0.1-0.2,0.1-0.3,0.2c-0.2,0.1-0.3,0.1-0.5,0
			c-0.2-0.2-0.2-0.5-0.1-0.7c0-0.2,0.2-0.2,0.4-0.2c0.1,0,0.2,0.2,0.3,0c0-0.1,0-0.3,0-0.4c-0.1-0.2-0.2-0.1-0.3-0.1
			c-0.2,0-0.4,0.1-0.5-0.1c-0.1-0.2-0.1-0.4,0-0.5c0.1-0.2,0.3-0.1,0.5,0c0.1,0,0.2,0.1,0.3,0c0.2-0.4,0.4-0.1,0.4,0.1
			c0.3,0.6,0.6,1.2,1,1.7c0.1,0.1,0.1,0.4,0.3,0.4C21.4,48.5,21.3,48.3,21.4,48.1z M33.2,48.2c0.4,0.1,0.9,0.4,0.9-0.4
			c0-0.2,0.1-0.5,0.5-0.5c0.3,0,0.5,0.2,0.6,0.5c0,0.5,0.3,0.7,0.8,0.7c0.1,0,0.3,0,0.4,0c0.4,0.1,0.6,0.1,0.4-0.4
			c-0.1-0.2-0.1-0.5,0.1-0.6c0.3-0.1,0.3,0.2,0.5,0.4c0.2,0.3,0.3,0.8,0.8,0.9c0.6,0.1,1.2,0.3,1.8,0.3c0.7,0,1.2-0.4,1.4-1.1
			c0.2-0.7-0.1-1.3-0.7-1.6c-0.6-0.3-1.2-0.3-1.9-0.4c0.3,0.9,0,1.6-0.2,2.4c0,0.1-0.1,0.1-0.2,0.1c-0.3-0.1-0.7-1-0.5-1.3
			c0.5-0.8,0.2-1.3-0.7-1.4c-0.2,0-0.4-0.1-0.7-0.1c-0.1,0-0.3,0-0.2,0.2c0.2,0.7,0,1.3-0.1,1.9c0,0.2,0,0.4-0.2,0.4
			c-0.2,0-0.2-0.2-0.3-0.4c-0.2-0.7-0.4-1.4-0.6-2.1c0-0.1-0.1-0.3-0.2-0.3c-0.2,0-0.2,0.1-0.3,0.2c-0.1,0.1-0.1,0.3-0.2,0.4
			C34,46.7,33.8,47.5,33.2,48.2z M15,46.8c0.2-0.2-0.2-0.7,0.3-0.8c0.3-0.1,0.2-0.2,0.2-0.4c-0.2-0.6,0-1,0.5-1
			c0.5-0.1,0.5,0.4,0.7,0.6c0.2,0.2,0.3,0.5,0.6,0.3c0.4-0.1,0.8-0.2,1.3-0.2c0.4,0,0.7-0.3,0.8-0.7c0.1-0.4-0.1-0.7-0.4-0.9
			c-0.2-0.2-0.5-0.3-0.7-0.4c-0.2-0.1-0.4-0.2-0.2-0.5c0.1-0.2,0.3-0.2,0.5-0.2c0.1,0,0.3,0.3,0.4,0c0.1-0.2-0.1-0.4-0.3-0.4
			c-0.4,0-0.8,0.1-1,0.5c-0.2,0.4,0,0.7,0.3,1c0.2,0.1,0.4,0.3,0.6,0.4c0.2,0.1,0.5,0.3,0.3,0.6C18.6,45,18.3,45,18,44.8
			c-0.1-0.1-0.2-0.3-0.3-0.1c-0.4,0.9-0.6,0.1-0.7-0.1c-0.4-0.6-0.8-1.2-1.2-1.8c-0.1-0.1-0.1-0.4-0.4-0.4c-0.2,0-0.1,0.3-0.2,0.4
			c-0.1,0.8-0.2,1.5-0.3,2.3c0,0.5-0.3,0.8-0.7,1c-0.4,0.2-0.8,0.4-0.8,0.8c0,0.5,0.3,0.8,0.7,1.1c0.2,0.1,0.4,0.2,0.6,0.4
			c0.3,0.2,0.3,0.5,0,0.8c-0.2,0.3-0.5,0.2-0.7,0c-0.1-0.1-0.1-0.3-0.2-0.1c-0.1,0.1-0.1,0.2,0,0.4c0.1,0.1,0.2,0.2,0.4,0.2
			c0.5,0.1,1-0.1,1.2-0.6c0.2-0.4,0.1-0.8-0.2-1.2c-0.3-0.3-0.6-0.4-0.9-0.6c-0.2-0.2-0.4-0.4-0.2-0.7c0.2-0.2,0.4-0.2,0.6,0
			C14.8,46.8,14.9,46.9,15,46.8z M24.3,44.3c-0.6-0.2-0.7-0.7-0.9-1c-0.2-0.4-0.5-0.9-0.7-1.3c-0.1-0.1-0.1-0.4-0.3-0.3
			c-0.2,0-0.2,0.2-0.2,0.4c-0.2,0.7-0.4,1.4-0.5,2.1c-0.1,0.3-0.2,0.4-0.5,0.4c-0.3,0-0.3-0.2-0.4-0.4c-0.1-0.6-0.3-1.3-0.2-1.9
			c0-0.1,0-0.3-0.1-0.3c-0.2,0-0.5,0-0.7,0.1c-0.2,0.1,0,0.2,0,0.3c0.2,0.7,0.4,1.5,0.3,2.3c0,0.3,0.1,0.4,0.3,0.3
			c0.5-0.1,0.9-0.2,1.4-0.2c0.3,0,0.3-0.2,0.2-0.4c-0.1-0.3,0-0.6,0.3-0.7c0.3-0.1,0.6,0.1,0.6,0.4C23.3,44.6,23.7,44.6,24.3,44.3z
			 M26.9,48c0.9,0.2,0.8,0.2,1-0.5c0-0.3,0.1-0.6,0.5-0.7c0.4,0,0.6,0.2,0.7,0.5c0,0.1,0.1,0.2,0.1,0.3c0.1,0.5,0.4,0.4,0.7,0.4
			c0.1,0,0.2,0,0.2-0.1c0.1-0.1,0-0.2-0.1-0.2c-0.3-0.1-0.3-0.4-0.4-0.6c-0.3-0.7-0.5-1.4-0.8-2.1c-0.1-0.2-0.1-0.4-0.3-0.4
			c-0.2,0-0.2,0.2-0.3,0.4c-0.1,0.4-0.2,0.8-0.4,1.2C27.6,46.9,27.6,47.6,26.9,48z M33.4,42.3c0.3-0.5,0.2-0.7,0-0.8
			c-0.7-0.5-2-0.1-2.4,0.7c-0.3,0.6-0.1,1.3,0.4,1.8c0.4,0.3,1.4,0.6,1.8,0.4c0.3-0.2,0.4-0.4,0.2-0.7c-0.7,0.5-1.2,0.5-1.7-0.1
			c-0.4-0.5-0.3-1.4,0.2-1.7C32.3,41.5,33,41.7,33.4,42.3z M41,42.6c-0.4-0.1-0.8,0.1-1.1,0.5c-0.4,0.5-0.4,1.3-0.1,1.8
			c0.3,0.5,1.3,0.9,1.8,0.8c0.2,0,0.3-0.2,0.4-0.3c0-0.1,0.1-0.2,0-0.3c-0.1-0.1-0.2,0-0.2,0.1c-0.5,0.3-1.1,0-1.4-0.5
			c-0.3-0.6-0.1-1.4,0.4-1.7c0.4-0.2,1.1,0,1.3,0.4c0,0.1,0,0.2,0.2,0.2c0.1,0,0.2-0.1,0.2-0.2c0.1-0.3,0-0.5-0.3-0.6
			C41.7,42.7,41.4,42.6,41,42.6z M30.8,44.1c-0.4-0.4-0.6-0.8-0.7-1.3c-0.1-0.4-0.3-0.7-0.4-1.1c-0.1-0.2-0.1-0.5-0.3-0.5
			c-0.3,0-0.3,0.4-0.4,0.6c-0.3,0.7-0.4,1.5-1,2.1c-0.1,0.1-0.1,0.2,0,0.2c0.3,0.1,0.6-0.1,0.7-0.4c0-0.3,0.1-0.6,0.4-0.6
			c0.4-0.1,0.6,0.1,0.6,0.5C29.9,44.2,30.3,44.3,30.8,44.1z M25.4,47.5c-0.3,0.3-0.5,0.5-0.8,0.3c-0.2-0.2-0.2-0.6-0.1-0.8
			c0.2-0.3,0.5,0,0.7,0c0-0.3,0.2-0.7-0.4-0.6c-0.2,0-0.3,0.1-0.4-0.1c-0.1-0.2-0.1-0.4,0-0.6c0.1-0.2,0.3-0.1,0.5,0
			c0.1,0,0.2,0.2,0.3,0c0.1-0.1,0-0.2,0-0.3c0-0.1-0.2-0.1-0.3-0.1c-0.4,0-0.7,0-1.1,0c-0.1,0-0.3,0-0.2,0.2
			c0.3,0.6,0.1,1.3,0.3,1.9c0.1,0.3-0.3,0.7,0.1,0.8c0.2,0.1,0.6,0,0.9,0C25.4,48.2,25.6,48.1,25.4,47.5z M41.5,48.5
			c-0.2,0.3-0.4,0.5-0.1,0.8c0.2,0.3,1,0.3,1.3,0.1c0.4-0.3,0.4-0.6,0.3-1.1c-0.1-0.3-0.4-0.5-0.6-0.8c-0.1-0.2-0.3-0.4-0.1-0.6
			c0.2-0.2,0.4-0.1,0.6,0.1c0.1,0.1,0.2,0.3,0.3,0.1c0.1-0.2,0.1-0.4-0.1-0.5c-0.4-0.2-0.8-0.3-1.2,0c-0.4,0.3-0.3,0.7-0.1,1.1
			c0.1,0.1,0.2,0.2,0.3,0.4c0.2,0.3,0.6,0.6,0.2,0.9C41.8,49.3,41.6,48.9,41.5,48.5z M36.4,44.1c0-0.6,0.2-0.8,0.5-0.6
			c0.1,0.1,0.2,0.3,0.4,0.1c0.1-0.1,0.1-0.2,0.1-0.3c0-0.2-0.2-0.2-0.4-0.2c-0.2,0-0.4,0-0.5-0.2c0-0.2,0-0.4,0.1-0.6
			c0.2-0.2,0.4,0,0.5,0.1c0.2,0.1,0.3,0.2,0.4-0.1c0.1-0.2,0-0.3-0.2-0.4c-0.4-0.1-0.8-0.1-1.2-0.2c-0.1,0-0.3,0-0.2,0.2
			c0.3,0.8,0,1.6-0.2,2.4c0,0.1-0.2,0.3,0,0.3c0.2,0,0.4,0.2,0.7,0.1c0.2-0.1-0.1-0.3,0-0.4C36.4,44.2,36.4,44.1,36.4,44.1z
			 M38.4,42.5c-0.2,0.7-0.1,1.5-0.5,2.2c0,0.1-0.1,0.2,0,0.2c0.2,0.1,0.5,0.2,0.7,0.1c0.1,0,0.1-0.1,0.1-0.2c-0.2-0.9,0-1.7,0.3-2.4
			c0.1-0.1,0-0.2-0.1-0.3c-0.2,0-0.4-0.1-0.5-0.1C38.2,42.2,38.4,42.4,38.4,42.5z M34.9,44.4c0-0.2-0.2-0.3-0.2-0.6
			c0.1-0.6,0-1.3,0.3-1.9c0.1-0.3,0-0.3-0.2-0.4c-0.2,0-0.4-0.1-0.5,0c0.2,0.9,0.1,1.8-0.2,2.6c-0.1,0.2-0.1,0.3,0.1,0.3
			C34.4,44.4,34.7,44.6,34.9,44.4z M24.6,42.9c0.2-0.1,0.5,0.1,0.5-0.2c0-0.2-0.1-0.3-0.3-0.2c-0.2,0.1-0.7-0.1-0.7,0.2
			C24,43,24.4,42.8,24.6,42.9z"/>
		<path class="st4" d="M133.9,29.6c-21.2,0-42.4,0-63.5,0c-0.3,0-0.7,0.1-0.7-0.4c0-0.5,0.2-0.6,0.6-0.6c5.2,0,10.4,0,15.6,0
			c37.2,0,74.4,0,111.6,0c0.3,0,0.7-0.1,0.7,0.4c0,0.5-0.2,0.6-0.7,0.6c-5.6,0-11.2,0-16.8,0C165.1,29.6,149.5,29.6,133.9,29.6z"/>
		<path class="st4" d="M179.3,39.3c0-1.2,0-2.5,0-3.7c0-1-0.1-1.1-1.1-1.3c-0.1,0-0.3,0-0.3-0.1c0-0.1,0.1-0.2,0.2-0.2
			c2.4,0.1,4.9-0.3,7.3,0.2c3,0.6,4.6,3.2,3.9,6.4c-0.6,2.6-2.5,4.1-5.4,4.3c-0.7,0.1-1.4,0-2.1-0.1c-1.7-0.1-3.4-0.1-5.1,0
			c-1.2,0-2.2-0.4-2.9-1.4c-0.6-0.8-1.2-1.7-1.8-2.5c-0.3-0.4-1.2-0.7-1.6-0.5c-0.2,0.1-0.2,0.3-0.2,0.4c0,0.8,0,1.7,0,2.5
			c0,0.8,0.1,1,1,1.1c0.1,0,0.4-0.1,0.4,0.2c0,0.2-0.3,0.2-0.4,0.2c-1.2,0-2.4,0-3.6,0c-0.2,0-0.4,0-0.4-0.2c0-0.2,0.2-0.2,0.4-0.2
			c0.4,0,0.6-0.3,0.7-0.7c0-0.5,0.1-1,0.1-1.5c0-2.2,0-4.4,0-6.5c0-1.1-0.1-1.1-1.1-1.3c-0.1,0-0.3,0-0.3-0.2c0-0.2,0.2-0.2,0.3-0.2
			c1.8,0,3.6-0.2,5.4,0.1c2.1,0.3,3,2.3,1.8,4.1c-0.3,0.5-0.6,0.9-1.1,1.2c-0.2,0.2-0.3,0.4-0.1,0.6c0.9,1.2,1.8,2.4,2.9,3.5
			c0.5,0.5,1.1,0.9,1.8,0.9c0.9,0,1.1-0.2,1.1-1C179.3,42,179.3,40.7,179.3,39.3C179.3,39.3,179.3,39.3,179.3,39.3z M181.3,39.1
			C181.3,39.1,181.3,39.1,181.3,39.1c0,1.2,0,2.4,0,3.7c0,0.8,0.3,1.1,1.1,1.2c0.8,0.2,1.7,0.1,2.5-0.1c1.2-0.4,2-1.2,2.3-2.4
			c0.3-1.1,0.3-2.1,0.1-3.2c-0.3-1.6-1.3-2.6-2.8-3.2c-0.8-0.3-1.7-0.4-2.6-0.3c-0.5,0-0.6,0.2-0.6,0.7
			C181.3,36.7,181.3,37.9,181.3,39.1z M170.3,37.1c0,0.6,0,1.2,0,1.9c0,0.2,0,0.4,0.2,0.5c0.6,0.1,1.3,0.3,1.9-0.1
			c0.8-0.6,1.2-2,0.7-3.2c-0.4-1-1.2-1.5-2.4-1.4c-0.3,0-0.5,0.2-0.5,0.5C170.3,35.9,170.3,36.5,170.3,37.1z"/>
		<path class="st4" d="M111,44.8c-0.6,0-1.3,0-1.9,0c-0.1,0-0.3,0-0.3-0.2c0-0.2,0.2-0.2,0.3-0.2c0.6,0,0.8-0.4,0.8-0.9
			c0-1.5,0-3.1,0-4.6c0-1.2,0-2.4,0-3.6c0-0.7-0.2-0.8-0.8-1c-0.5-0.2-1,0-1.4,0.1c-0.4,0.2-0.6,0.6-0.7,1c-1.2,2.8-2.4,5.7-3.7,8.5
			c-0.2,0.3-0.2,0.9-0.6,0.9c-0.5,0-0.5-0.6-0.7-0.9c-1.2-2.8-2.3-5.6-3.4-8.4c-0.3-0.7-0.6-1.2-1.5-1.2c-0.1,0-0.2,0-0.2-0.2
			c0-0.1,0.1-0.2,0.3-0.2c1.3,0,2.6,0,3.9,0c0.1,0,0.3,0,0.2,0.2c0,0.1-0.1,0.2-0.3,0.2c-0.6,0-0.6,0.4-0.5,0.8
			c0.8,2.1,1.6,4.2,2.3,6.4c0,0.1,0.1,0.3,0.2,0.3c0.2,0,0.2-0.2,0.2-0.3c0.8-2.1,1.7-4.3,2.5-6.4c0.2-0.5,0.1-0.7-0.5-0.7
			c-0.1,0-0.4,0-0.3-0.2c0-0.2,0.2-0.1,0.4-0.1c0.8,0,1.6-0.1,2.3,0c0.8,0.1,1.6-0.1,2.3,0c0.8,0,1.6,0,2.4,0c0.1,0,0.3,0,0.4,0
			c0.1,0,0.1,0.1,0.2,0.1c0,0.1-0.1,0.2-0.2,0.2c-1,0-1,0.8-1,1.4c0,2.5-0.1,5.1,0,7.6c0,0.8,0.2,1,1,1c0.2,0,0.5-0.1,0.4,0.2
			c0,0.2-0.3,0.2-0.5,0.2C112.2,44.8,111.6,44.8,111,44.8z"/>
		<path class="st4" d="M153,41.4c0.4-1.4,0.8-2.7,1.2-4c0.2-0.8,0.4-1.6,0.6-2.3c0.1-0.4,0-0.7-0.5-0.7c-0.1,0-0.3,0-0.3-0.2
			c0-0.2,0.2-0.2,0.4-0.2c0.8,0,1.6,0,2.4,0c0.1,0,0.3-0.1,0.3,0.2c0,0.2-0.2,0.1-0.3,0.2c-0.5,0-0.7,0.5-0.8,0.9
			c-0.6,1.9-1.2,3.7-1.9,5.6c-0.4,1.2-0.8,2.4-1.2,3.6c-0.1,0.2-0.1,0.6-0.5,0.6c-0.3,0-0.4-0.3-0.4-0.5c-0.9-2.1-1.7-4.2-2.6-6.3
			c-0.1-0.2-0.1-0.5-0.3-0.5c-0.3,0-0.3,0.4-0.3,0.6c-0.8,1.9-1.5,3.9-2.3,5.8c-0.1,0.1-0.1,0.3-0.2,0.4c-0.1,0.2-0.2,0.5-0.5,0.5
			c-0.3,0-0.3-0.3-0.4-0.5c-1-3-1.9-5.9-2.9-8.9c-0.2-0.5-0.3-1.2-1.1-1.2c-0.1,0-0.1-0.1-0.1-0.1c0-0.1,0.1-0.1,0.2-0.1
			c1.1,0,2.2,0,3.3,0c0.1,0,0.2,0,0.2,0.1c0,0.2-0.1,0.2-0.2,0.2c-0.4,0-0.5,0.3-0.4,0.6c0.5,2.1,1.2,4.2,1.8,6.2
			c0,0.1,0,0.3,0.2,0.2c0.2,0,0.2-0.2,0.2-0.3c0.7-1.9,1.4-3.9,2.1-5.8c0.1-0.3,0.2-0.6,0.4-0.9c0.2-0.4,0.5-0.4,0.7,0
			c0.2,0.4,0.3,0.8,0.5,1.2c0.7,1.8,1.4,3.6,2.2,5.4C152.7,41.1,152.7,41.3,153,41.4z"/>
		<path class="st4" d="M71.7,25.4c-0.6,0-1.3,0-1.9,0c-0.1,0-0.3,0-0.3-0.2c0-0.2,0.1-0.2,0.3-0.2c1.1,0.1,1.5-0.7,1.9-1.5
			c1.2-3,2.4-5.9,3.5-8.9c0.3-0.8,0.6-1.6,0.9-2.4c0.1-0.2,0.2-0.4,0.4-0.4c0.3,0,0.3,0.2,0.4,0.4c0.9,2.3,1.8,4.6,2.8,6.9
			c0.5,1.3,1.1,2.6,1.6,3.9c0.1,0.3,0.3,0.6,0.4,0.9c0.4,0.6,0.8,1.1,1.6,1c0.1,0,0.3,0,0.3,0.2c0,0.2-0.2,0.2-0.3,0.2
			c-1.3,0-2.6,0-3.9-0.1c-0.2,0-0.4-0.1-0.1-0.3c0.3-0.2,0.2-0.4,0.1-0.6c-0.4-1.1-0.8-2.1-1.2-3.2c-0.1-0.3-0.3-0.4-0.6-0.4
			c-1,0-2.1,0-3.1,0c-0.3,0-0.5,0.1-0.6,0.4c-0.3,0.9-0.6,1.7-0.9,2.5c-0.3,0.8-0.2,1,0.7,1.2c0.1,0,0.3,0,0.3,0.2
			c0,0.2-0.2,0.2-0.3,0.2C73,25.4,72.3,25.4,71.7,25.4z M76.1,15.7c-0.1,0-0.1,0-0.2,0c-0.5,1.3-1,2.6-1.5,3.9
			c-0.1,0.2,0,0.3,0.2,0.3c0.9,0,1.8,0,2.7,0c0.2,0,0.3-0.1,0.2-0.3C77.1,18.3,76.6,17,76.1,15.7z"/>
		<path class="st4" d="M127.1,18.8c0,1.7,0,3.3,0,5c0,1,0.2,1.2,1.3,1.3c0.1,0,0.2,0,0.2,0c0.1,0,0.3,0,0.3,0.2
			c0,0.2-0.2,0.2-0.3,0.2c-0.6,0-1.3,0-1.9,0c-0.9-0.1-1.8,0.1-2.6,0c-0.1,0-0.3,0-0.4,0c-0.1,0-0.2,0-0.2-0.1
			c0-0.1,0.1-0.2,0.2-0.2c1.1-0.3,1.1-0.3,1.1-1.4c0.2-3.3,0.1-6.6,0-9.9c0-0.8-0.2-1-1.2-1.1c-0.2,0-0.5,0.1-0.5-0.2
			c0-0.2,0.3-0.2,0.4-0.2c1.9,0,3.8,0,5.6,0.1c1.4,0.1,2.7,0.6,3.2,2c0.7,1.9-0.5,4.2-2.5,4.9c-0.6,0.2-1.2,0.3-1.8,0.3
			c-0.1,0-0.3,0-0.4-0.2c0-0.2,0.2-0.2,0.3-0.2c1.5-0.2,2.5-1.4,2.4-2.9c0-1.8-1-3-2.5-3.2c-0.8-0.1-1,0-1,0.9
			C127.1,15.6,127.1,17.2,127.1,18.8C127.1,18.8,127.1,18.8,127.1,18.8z"/>
		<path class="st4" d="M132.2,44.8c-0.6,0-1.1,0-1.7,0c-0.1,0-0.3,0-0.3-0.2c0-0.1,0.1-0.2,0.3-0.2c1,0,1.4-0.7,1.7-1.5
			c1.3-3.4,2.6-6.8,3.9-10.2c0.1-0.3,0.1-0.8,0.5-0.8c0.4,0,0.4,0.5,0.6,0.8c1.3,3.3,2.5,6.5,3.8,9.8c0.1,0.2,0.2,0.5,0.3,0.7
			c0.3,0.7,0.8,1.3,1.6,1.3c0.1,0,0.3,0,0.3,0.1c0,0.2-0.2,0.2-0.3,0.2c-1.2,0-2.4,0-3.6,0c-0.2,0-0.4-0.1-0.1-0.3
			c0.2-0.2,0.1-0.4,0.1-0.6c-0.4-1-0.7-2-1.1-3c-0.1-0.3-0.2-0.3-0.5-0.3c-1,0-2,0-2.9,0c-0.3,0-0.4,0.1-0.5,0.3
			c-0.3,0.9-0.6,1.7-0.9,2.6c-0.2,0.8-0.1,0.9,0.7,1.1c0.1,0,0.3,0,0.3,0.2c0,0.2-0.1,0.2-0.3,0.2C133.4,44.8,132.8,44.8,132.2,44.8
			C132.2,44.8,132.2,44.8,132.2,44.8z M136.3,35.4c-0.1,0.1-0.2,0.1-0.2,0.2c-0.4,1.2-0.9,2.4-1.3,3.6c-0.1,0.3,0,0.4,0.3,0.4
			c0.7,0,1.5,0,2.2,0c0.3,0,0.4-0.1,0.3-0.4c-0.2-0.4-0.3-0.8-0.4-1.2C136.9,37.1,136.6,36.3,136.3,35.4z"/>
		<path class="st4" d="M102.8,25.4c-0.6,0-1.1,0-1.7,0c-0.1,0-0.3,0-0.3-0.2c0-0.1,0.2-0.2,0.3-0.2c0.9,0,1.2-0.5,1.5-1.2
			c1.3-3.1,2.6-6.1,4-9.2c0-0.1,0.1-0.2,0.1-0.3c0.1-0.2,0.2-0.4,0.4-0.4c0.2,0,0.3,0.2,0.4,0.4c0.2,0.4,0.3,0.7,0.5,1.1
			c1.2,2.8,2.4,5.5,3.6,8.3c0.3,0.7,0.7,1.5,1.7,1.4c0.1,0,0.2,0.1,0.2,0.2c0,0.2-0.2,0.2-0.3,0.2c-0.9,0-1.8,0-2.8,0
			c-0.2,0-0.3,0-0.5,0c-0.3,0-0.7,0-0.2-0.4c0.1-0.1,0-0.3,0-0.4c-0.3-0.8-0.6-1.6-1-2.4c-0.1-0.3-0.3-0.4-0.6-0.4c-1,0-1.9,0-2.9,0
			c-0.2,0-0.4,0-0.5,0.2c-0.3,0.8-0.7,1.5-0.9,2.4c-0.1,0.5,0,0.7,0.5,0.7c0.2,0,0.4-0.1,0.4,0.2c0,0.3-0.3,0.2-0.4,0.2
			C103.8,25.4,103.3,25.4,102.8,25.4C102.8,25.4,102.8,25.4,102.8,25.4z M106.8,17.2c-0.1,0-0.1,0-0.2,0c-0.4,1.1-0.9,2.3-1.3,3.4
			c-0.1,0.2,0.1,0.3,0.2,0.3c0.8,0,1.6,0,2.4,0c0.2,0,0.3-0.1,0.2-0.3C107.7,19.4,107.2,18.3,106.8,17.2z"/>
		<path class="st4" d="M143,25.4c-0.6,0-1.1,0-1.7,0c-0.2,0-0.4-0.1-0.1-0.3c0.2-0.2,0.1-0.3,0.1-0.5c-0.3-0.8-0.7-1.6-1-2.5
			c-0.1-0.3-0.3-0.4-0.6-0.4c-1,0-2,0-2.9,0c-0.3,0-0.4,0.1-0.6,0.4c-0.3,0.7-0.6,1.3-0.8,2c-0.2,0.6-0.1,0.8,0.6,0.9
			c0.1,0,0.3,0,0.3,0.2c0,0.2-0.2,0.2-0.3,0.2c-1.1,0-2.2,0-3.3,0c-0.1,0-0.3,0-0.3-0.2c0-0.1,0.1-0.2,0.2-0.2
			c1,0.1,1.3-0.6,1.6-1.4c1.3-3,2.6-6,3.9-9c0.1-0.3,0.2-0.7,0.6-0.8c0.4,0,0.5,0.4,0.6,0.7c1.3,2.9,2.5,5.8,3.7,8.7
			c0.1,0.3,0.3,0.5,0.4,0.8c0.3,0.5,0.7,0.9,1.3,0.9c0.1,0,0.3,0,0.3,0.2c0,0.2-0.2,0.2-0.3,0.2C144.1,25.4,143.6,25.4,143,25.4
			C143,25.4,143,25.4,143,25.4z M138.3,17.2c-0.1,0-0.1,0-0.2,0c-0.4,1.1-0.9,2.3-1.3,3.4c-0.1,0.2,0,0.3,0.2,0.3c0.8,0,1.5,0,2.3,0
			c0.3,0,0.4-0.1,0.3-0.4C139.2,19.4,138.8,18.3,138.3,17.2z"/>
		<path class="st4" d="M152.9,14c1.2,0,2.3,0.2,3.5,0.4c0.3,0,0.4,0.2,0.4,0.5c0,0.7-0.1,1.4-0.1,2.1c0,0.1,0,0.3-0.2,0.4
			c-0.2,0-0.2-0.2-0.2-0.3c-0.1-1.3-1-1.8-2.1-2c-0.9-0.2-1.9-0.2-2.8,0c-1,0.2-1.7,0.7-2.2,1.6c-1.2,2-0.8,5.2,0.9,6.8
			c1.4,1.3,3.1,1.5,4.9,1.1c0.7-0.2,1.2-0.7,1.4-1.4c0-0.1,0-0.4,0.3-0.4c0.3,0,0.2,0.3,0.2,0.5c-0.1,0.4-0.1,0.9-0.2,1.3
			c-0.1,0.6-0.4,0.9-0.9,1c-2.1,0.3-4.2,0.4-6.2-0.5c-2.4-1-3.6-3.3-3.4-5.9c0.3-2.5,2.1-4.3,4.5-4.8C151.4,14.1,152.2,14,152.9,14z
			"/>
		<path class="st4" d="M193.1,25.6c-1.6,0-3.1-0.2-4.5-1c-2.1-1.2-3-3.4-2.7-5.9c0.3-2.2,2-3.9,4.4-4.4c2-0.4,3.9-0.2,5.9,0.2
			c0.2,0,0.3,0.2,0.3,0.4c0,0.7-0.1,1.5-0.1,2.2c0,0.2,0,0.4-0.2,0.4c-0.2,0-0.2-0.2-0.2-0.4c-0.1-1-0.7-1.6-1.6-1.8
			c-1.1-0.4-2.3-0.4-3.5-0.1c-1,0.2-1.7,0.8-2.1,1.7c-1,1.9-0.7,4.7,0.7,6.3c1.4,1.5,3.2,1.8,5.1,1.4c0.8-0.2,1.2-0.8,1.5-1.5
			c0.1-0.1,0-0.4,0.3-0.3c0.2,0,0.2,0.3,0.1,0.4c-0.1,0.5-0.2,1.1-0.3,1.6c-0.1,0.4-0.3,0.6-0.7,0.7C194.8,25.6,194,25.6,193.1,25.6
			z"/>
		<path class="st4" d="M76.8,33.5c0,0.4,0,0.8,0,1.1c0,0.1-0.1,0.2-0.2,0.2c-0.1,0-0.1-0.1-0.2-0.2c0-0.2-0.1-0.4-0.2-0.7
			c-0.4-1.2-2-1.7-3.1-1c-0.9,0.6-1,1.7-0.3,2.6c0.4,0.5,0.8,0.9,1.3,1.2c0.9,0.7,1.7,1.3,2.3,2.3c1,1.5,0.9,3.4-0.2,4.7
			c-0.3,0.4-0.7,0.7-1.2,0.9c-1.3,0.5-2.7,0.4-4,0c-0.4-0.1-0.6-0.3-0.6-0.8c0-0.7,0.1-1.4,0.1-2.1c0-0.1,0-0.3,0.2-0.3
			c0.2,0,0.2,0.2,0.2,0.3c0,0.4,0.1,0.7,0.3,1.1c0.4,0.9,1.4,1.5,2.5,1.3c0.9-0.1,1.6-0.8,1.7-1.8c0.1-1-0.4-1.7-1.1-2.3
			c-0.6-0.5-1.1-1-1.7-1.5c-0.5-0.4-0.9-0.8-1.2-1.4c-1.6-2.4-0.3-5.1,2.6-5.4c0.8-0.1,1.5,0,2.2,0.2c0.5,0.1,0.7,0.3,0.6,0.8
			C76.8,33.1,76.8,33.3,76.8,33.5C76.8,33.5,76.8,33.5,76.8,33.5z"/>
		<path class="st4" d="M170.9,14.2c1.7,0.1,3,0.1,4.3-0.1c0.2,0,0.3,0,0.3,0.2c-0.1,0.6-0.1,1.1-0.2,1.7c0,0.1,0,0.3-0.2,0.3
			c-0.2,0-0.2-0.2-0.2-0.3c0-0.6-0.4-0.9-1-0.9c-0.8,0-1.5,0-2.3-0.1c-0.3,0-0.4,0.1-0.4,0.4c0,1.1,0,2.1,0,3.2
			c0,0.3,0.1,0.4,0.4,0.4c0.8,0,1.7,0,2.5,0c0.2,0,0.4-0.1,0.6-0.3c0.3-0.2,0.3-0.1,0.3,0.2c-0.1,0.6-0.2,1.3-0.2,1.9
			c0,0.1,0,0.2-0.2,0.2c-0.1,0-0.1-0.1-0.2-0.2c-0.1-0.8-0.7-1-1.4-0.9c-0.5,0-1,0-1.5,0c-0.3,0-0.4,0.1-0.4,0.4
			c0,1.3-0.1,2.5,0.1,3.8c0.1,0.8,0.2,1,1,1c0.1,0,0.2,0,0.3,0c0.1,0,0.2,0.1,0.2,0.2c0,0.1-0.1,0.2-0.2,0.2c-0.6,0-1.1,0-1.7,0
			c-0.8-0.1-1.7,0.1-2.5,0c-0.2,0-0.5,0.1-0.5-0.2c0-0.3,0.3-0.2,0.4-0.2c0.5,0,0.6-0.3,0.7-0.7c0-0.5,0.1-1.1,0.1-1.6
			c0-2.3,0-4.6,0-6.8c0-1.1-0.1-1.2-1.2-1.4c-0.1,0-0.3,0-0.3-0.2c0-0.2,0.2-0.2,0.4-0.2C169.2,14.2,170.3,14.2,170.9,14.2z"/>
		<path class="st4" d="M89.5,14.1c0.5,0,1.1,0.1,1.7,0.2c0.3,0,0.4,0.2,0.4,0.4c0,0.5,0,1.1,0,1.6c0,0.1,0,0.3-0.2,0.4
			c-0.2,0-0.2-0.2-0.2-0.3c-0.1-0.8-0.7-1.3-1.4-1.5c-0.9-0.2-1.7-0.1-2.3,0.6c-0.5,0.5-0.4,1.3,0.1,1.9c0.4,0.4,0.9,0.7,1.3,0.9
			c0.8,0.4,1.5,0.8,2.1,1.5c1.8,1.8,1,4.9-1.5,5.6c-1.3,0.3-2.6,0.3-3.8-0.1c-0.4-0.1-0.6-0.3-0.6-0.8c0-0.6,0.1-1.2,0.1-1.9
			c0-0.1,0-0.3,0.2-0.3c0.2,0,0.2,0.1,0.2,0.3c0.4,1.6,1.2,2.2,2.8,2.1c0.8-0.1,1.4-0.4,1.7-1.2c0.3-0.7,0-1.5-0.6-2.1
			c-0.5-0.5-1.2-0.8-1.7-1.1C87,20,86.5,19.6,86,19.1c-1.4-1.7-0.9-3.9,1.2-4.7C87.9,14.1,88.6,14,89.5,14.1z"/>
		<path class="st4" d="M116.3,39.2c0-1.3,0-2.6,0-3.9c0-0.7-0.2-0.9-0.9-0.9c-0.2,0-0.5,0.1-0.4-0.2c0-0.2,0.3-0.1,0.5-0.1
			c1.7,0,3.3,0,5,0c0.4,0,0.8,0,1.1-0.1c0.3-0.1,0.5,0,0.4,0.3c-0.1,0.5-0.1,1-0.2,1.5c0,0.1,0,0.3-0.2,0.3c-0.2,0-0.2-0.1-0.2-0.2
			c0-0.7-0.5-0.9-1.1-0.9c-0.6,0-1.1,0-1.7,0c-0.3,0-0.5,0.1-0.5,0.4c0,0.9,0,1.9,0,2.8c0,0.3,0.1,0.5,0.4,0.5c0.7,0,1.4,0,2.1-0.1
			c0.1,0,0.2,0,0.3-0.1c0.7-0.2,0.7-0.2,0.6,0.6c0,0.4-0.1,0.8-0.1,1.2c0,0.1,0,0.3-0.2,0.3c-0.2,0-0.2-0.1-0.2-0.2
			c0-0.7-0.4-0.9-1-0.9c-0.5,0-1.1,0-1.6,0c-0.3,0-0.5,0.1-0.5,0.4c0,1,0,2,0,3c0,0.7,0.3,0.9,1,1c0.4,0.1,0.9,0.1,1.3,0
			c0.7,0,1.2-0.3,1.4-1.1c0-0.1,0-0.3,0.2-0.3c0.2,0,0.1,0.2,0.1,0.3c0,0.5-0.1,1-0.2,1.5c-0.1,0.4-0.4,0.4-0.7,0.4
			c-1.5,0-2.9,0-4.4,0c-0.5,0-1,0-1.5,0c-0.1,0-0.3,0-0.4-0.2c0-0.2,0.2-0.2,0.3-0.2c0.5,0,0.7-0.3,0.8-0.8
			C116.4,42.2,116.3,40.7,116.3,39.2z"/>
		<path class="st4" d="M157.1,44.8c-0.5,0-1,0-1.5,0c-0.1,0-0.3,0-0.3-0.2c0-0.1,0.1-0.2,0.3-0.2c0.8,0,1.1-0.6,1.4-1.2
			c1.2-2.9,2.4-5.9,3.6-8.8c0-0.1,0.1-0.2,0.2-0.4c0.1-0.2,0.2-0.3,0.4-0.3c0.2,0,0.3,0.2,0.4,0.3c0.2,0.6,0.5,1.1,0.7,1.7
			c0.9,2.3,1.9,4.6,2.8,6.9c0.1,0.3,0.2,0.5,0.4,0.8c0.3,0.6,0.6,1,1.3,1.1c0.1,0,0.3,0,0.3,0.2c0,0.2-0.2,0.2-0.3,0.2
			c-1,0-2.1,0-3.1,0c-0.2,0-0.4-0.1-0.1-0.3c0.2-0.2,0.1-0.3,0.1-0.5c-0.3-0.8-0.6-1.5-0.9-2.3c-0.1-0.3-0.3-0.4-0.5-0.4
			c-0.9,0-1.7,0-2.6,0c-0.3,0-0.5,0.1-0.6,0.4c-0.2,0.7-0.5,1.3-0.7,2c-0.2,0.5,0,0.8,0.5,0.8c0.1,0,0.3,0,0.3,0.2
			c0,0.2-0.2,0.2-0.3,0.2C158.1,44.8,157.6,44.8,157.1,44.8C157.1,44.8,157.1,44.8,157.1,44.8z M160.8,36.9c-0.1,0-0.1,0-0.2,0
			c-0.4,1.1-0.8,2.1-1.2,3.2c-0.1,0.2,0,0.3,0.2,0.3c0.7,0,1.4,0,2.1,0c0.2,0,0.3-0.1,0.2-0.3C161.6,39,161.2,37.9,160.8,36.9z"/>
		<path class="st4" d="M90.5,39.2c0-1.3,0-2.6,0-3.9c0-0.7-0.2-0.9-0.9-1c-0.1,0-0.4,0.1-0.4-0.2c0-0.2,0.3-0.1,0.4-0.1
			c1.6,0,3.2,0,4.8,0c0.5,0,0.9,0,1.4-0.1c0.2-0.1,0.4,0,0.4,0.3c-0.1,0.5-0.1,1-0.2,1.6c0,0.1,0,0.3-0.2,0.3
			c-0.1,0-0.1-0.2-0.1-0.3c0-0.6-0.4-0.8-1-0.9c-0.6,0-1.2,0-1.9-0.1c-0.3,0-0.4,0.1-0.4,0.4c0,1,0,1.9,0,2.9c0,0.2,0,0.4,0.3,0.4
			c0.8,0,1.7,0,2.5-0.1c0.3,0,0.4-0.5,0.7-0.2c0.2,0.2,0,0.6,0,0.9c0,0.4-0.1,0.8-0.1,1.2c0,0.1,0,0.2-0.2,0.2
			c-0.1,0-0.1-0.1-0.1-0.2c-0.2-0.8-0.3-0.9-1.1-0.9c-0.5,0-1,0-1.5-0.1c-0.3,0-0.4,0.1-0.4,0.4c0,1,0,2,0,2.9c0,0.8,0.3,1,1.1,1.1
			c0.4,0.1,0.9,0.1,1.3,0c0.7,0,1.2-0.3,1.4-1.1c0-0.1,0-0.3,0.2-0.3c0.2,0,0.1,0.2,0.1,0.3c0,0.5-0.1,1-0.2,1.5
			c-0.1,0.4-0.4,0.4-0.7,0.4c-0.9,0-1.9,0-2.8,0c-1,0-2,0-3,0c-0.2,0-0.4,0.1-0.4-0.2c0-0.2,0.2-0.2,0.4-0.2c0.5,0,0.6-0.3,0.7-0.7
			C90.6,42.2,90.6,40.7,90.5,39.2z"/>
		<path class="st4" d="M194.1,45c-0.8,0-1.4-0.1-2-0.3c-0.3-0.1-0.5-0.3-0.5-0.7c0-0.6,0-1.2,0.1-1.7c0-0.1,0-0.4,0.2-0.4
			c0.2,0,0.2,0.2,0.2,0.4c0.3,1.4,1.3,2.1,2.6,1.9c0.7-0.1,1.2-0.4,1.4-1.1c0.2-0.7,0.1-1.4-0.4-1.9c-0.4-0.5-1-0.7-1.5-1.1
			c-0.5-0.3-1.1-0.7-1.5-1.2c-0.8-0.9-1.1-2-0.7-3.1c0.4-1.2,1.5-1.8,2.7-1.9c0.8-0.1,1.7-0.1,2.5,0.1c0.3,0.1,0.4,0.2,0.4,0.5
			c0,0.5,0,1-0.1,1.5c0,0.1,0,0.3-0.2,0.3c-0.2,0-0.2-0.2-0.2-0.3c-0.2-1.4-1.7-1.8-2.8-1.3c-1,0.4-1.3,1.6-0.5,2.4
			c0.3,0.4,0.8,0.6,1.2,0.8c0.5,0.3,1.1,0.6,1.5,1c1.2,1,1.6,2.5,1.1,3.8c-0.5,1.4-1.6,2-3.1,2.1C194.3,44.9,194.1,45,194.1,45z"/>
		<path class="st4" d="M84.3,39.3c0,1.3,0,2.7,0.1,4c0.1,0.9,0.1,1,1,1.1c0.2,0,0.4,0,0.4,0.2c0,0.2-0.2,0.2-0.4,0.2
			c-1.3,0-2.5,0-3.8,0c-0.1,0-0.4,0-0.4-0.2c0-0.2,0.2-0.2,0.3-0.2c0.5,0,0.7-0.3,0.7-0.8c0.1-1,0.1-2,0.1-3c0-1.7,0-3.5,0-5.2
			c0-0.4-0.1-0.6-0.5-0.5C81.2,35,80.6,35,79.9,35c-0.5,0-0.9,0.2-1.1,0.7c0,0.1-0.1,0.3-0.3,0.3c-0.2-0.1-0.1-0.2-0.1-0.3
			c0,0,0-0.1,0-0.1c0.1-0.5,0.1-1.2,0.4-1.5c0.3-0.4,1,0,1.5,0c2.5,0,4.9,0.1,7.4-0.1c0.3,0,0.4,0.1,0.4,0.4c0,0.5,0,1,0,1.5
			c0,0.1,0,0.3-0.2,0.3c-0.1,0-0.2-0.1-0.2-0.3c0-0.5-0.4-0.7-0.8-0.8c-0.7-0.2-1.5-0.1-2.2-0.1c-0.4,0-0.3,0.3-0.3,0.5
			C84.3,36.7,84.3,38,84.3,39.3z"/>
		<path class="st4" d="M97.2,14.2c0.6,0,1.3,0,1.9,0c0.1,0,0.3-0.1,0.4,0.2c0,0.2-0.2,0.2-0.3,0.2c-0.7,0-0.9,0.4-0.9,1
			c0,2.9-0.1,5.8,0,8.7c0,0.5,0.3,0.8,0.8,0.8c0.1,0,0.2,0,0.3,0c0.2,0,0.5-0.1,0.5,0.2c0,0.3-0.3,0.2-0.5,0.2c-1.3,0-2.6,0-3.9,0
			c-0.2,0-0.5,0.1-0.5-0.2c0-0.2,0.3-0.2,0.5-0.2c0.4,0,0.7-0.2,0.7-0.7c0-0.5,0.1-1.1,0.1-1.6c0-2.3,0-4.6,0-6.9c0-1-0.1-1.1-1-1.3
			c-0.1,0-0.3,0-0.3-0.2c0-0.2,0.2-0.1,0.3-0.2C95.8,14.2,96.5,14.2,97.2,14.2C97.2,14.2,97.2,14.2,97.2,14.2z"/>
		<path class="st4" d="M180.7,14.2c0.7,0,1.3,0,2,0c0.1,0,0.3,0,0.3,0.2c0,0.2-0.2,0.2-0.3,0.2c-0.9,0.2-0.9,0.2-0.9,1.1
			c0,2.8-0.1,5.6,0,8.5c0,0.7,0.2,0.8,0.9,0.9c0.1,0,0.3,0,0.4,0c0.1,0,0.2,0,0.3,0.2c0,0.2-0.1,0.2-0.3,0.2c-0.3,0-0.7,0-1,0
			c-1.1,0-2.2,0-3.3,0c-0.2,0-0.4,0-0.4-0.2c0-0.2,0.2-0.2,0.4-0.2c0.7,0,0.8-0.4,0.8-1c0.1-1.7,0-3.5,0-5.2c0-1,0-2.1,0-3.1
			c0-0.8-0.1-1-1-1.1c-0.1,0-0.3,0-0.3-0.2c0-0.2,0.2-0.2,0.4-0.2C179.4,14.2,180.1,14.2,180.7,14.2z"/>
		<path class="st4" d="M162.1,14.2c0.6,0,1.3,0,1.9,0c0.1,0,0.4,0,0.4,0.2c0,0.2-0.2,0.2-0.3,0.2c-0.6,0-0.9,0.4-0.9,0.9
			c0,2.8,0,5.7,0,8.5c0,0.8,0.2,1,1,1c0.1,0,0.2,0,0.3,0c0.1,0,0.2,0,0.3,0.2c0,0.2-0.2,0.2-0.3,0.2c-0.3,0-0.6,0-1,0
			c-1.1,0-2.2,0-3.3,0c-0.2,0-0.4,0.1-0.4-0.2c0-0.2,0.3-0.2,0.4-0.2c0.5,0,0.7-0.2,0.7-0.7c0-0.5,0.1-1,0.1-1.5c0-2.4,0-4.8,0-7.2
			c0-0.8-0.1-0.9-0.9-1c-0.1,0-0.4,0-0.4-0.2c0-0.2,0.2-0.2,0.4-0.2C160.8,14.2,161.4,14.2,162.1,14.2z"/>
		<path class="st4" d="M117.3,21.2c-0.8,0-1.5,0-2.3,0c-0.4,0-0.5-0.2-0.5-0.5c0-0.3-0.1-0.7,0.4-0.7c1.6,0,3.1,0,4.7,0
			c0.5,0,0.4,0.3,0.4,0.6c0,0.3,0,0.6-0.5,0.6C118.9,21.2,118.1,21.2,117.3,21.2z"/>
		<path class="st5" d="M49.9,42.7c0,0-0.1-0.1-0.1-0.1C49.8,42.6,49.8,42.7,49.9,42.7z"/>
		<path class="st6" d="M38.9,39.9c-0.3,0-0.6,0.1-0.7-0.4c0-0.1-0.1-0.2-0.2-0.2c-1.2-0.5-2.3-1-3.5-1.5c-0.1,0-0.1,0-0.2,0.1
			c1.1,0.6,2.3,1.1,3.3,1.8c-1.4,0.1-2.3-1.1-3.7-1.4c0.1,0.3,0.4,0.3,0.5,0.5c0.2,0.1,0.4,0.2,0.6,0.4c0.1,0.1,0.4,0.1,0.3,0.4
			c-0.1,0.3-0.3,0.1-0.5,0c-0.4-0.2-0.7-0.5-1-0.7c-0.1,0.1-0.1,0.2,0,0.2c0.1,0.1,0.3,0.2,0.2,0.4c-0.1,0.2-0.3,0-0.4-0.1
			c-0.1-0.1-0.2-0.2-0.3-0.1c-0.6,0.4-1.2,0.1-1.8,0.2c0.4-0.9,1-1.6,1.6-2.3c0.8-1.1,1.6-2.1,2.4-3.2c0.8-1,1.5-2.1,2.3-3.2
			c0.8-1.1,1.6-2.2,2.4-3.3c0.1-0.1,0.2-0.3,0.1-0.5c-0.3-0.4-0.5-0.9-0.9-1.2c-0.6-0.6-1-1.4-1.5-2c-0.4-0.6-0.8-1.1-1.2-1.7
			c-0.6-0.8-1.2-1.6-1.8-2.4c-0.7-0.9-1.4-1.9-2.1-2.8c-0.7-1-1.4-2-2.2-2.9C30,13,29.6,12.2,29,11.5c-0.3-0.4-0.5-0.3-0.8,0
			c-0.3,0.5-0.7,0.9-1,1.4c-0.3-0.2-0.5-0.1-0.6,0.1c-0.2,0.4-0.8,0.7-0.5,1.3c0,0.1-0.1,0.2-0.1,0.3c-0.1,0-0.1,0-0.1,0.1
			c-0.3,0.7-1,1.2-1.4,1.9c-0.6,1.1-1.4,1.9-2.2,2.9c-0.5,0.7-1.1,1.5-1.7,2.3c-0.6,0.7-1.1,1.4-1.6,2.2c-0.4,0.7-0.9,1.4-1.4,1.9
			c-0.9,0.9-0.5,1.5,0.1,2.3c0.7,1,1.5,2,2.2,3c0.9,1.3,1.9,2.6,2.8,3.9c1,1.3,1.9,2.6,2.9,3.9c0.1,0.2,0.3,0.3,0.5,0.2
			c0.3-0.1,0.1-0.3,0.2-0.5c0.2,0.1,0.4,0.2,0.3,0.4c-0.1,0.2-0.3,0.3-0.5,0.3c-0.4,0-0.9,0-1.3,0c-0.2,0-0.4-0.1-0.6,0
			c-0.1,0.1-0.3,0.1-0.3-0.1c-0.1-0.3-0.3-0.2-0.4-0.1c-0.3,0.2-0.5,0.4-0.9,0.2c0.3-0.4,0.8-0.5,1.3-0.9c-1.2,0.3-2,1.4-3.3,1.1
			c1-0.5,1.9-1,2.9-1.5c-0.6,0-1.2,0.3-1.7,0.5C21,38.7,20.5,39,20,39.2c-0.1,0.1-0.3,0.1-0.3,0.2c-0.1,0.5-0.5,0.4-0.9,0.4
			c-0.2-0.2-0.5-0.4-0.7-0.7c-4.1-3.6-6.1-8.1-5.8-13.5c0.3-5.3,2.6-9.5,6.9-12.6c5.4-3.7,11.1-4.1,17-1.3c4.6,2.3,7.6,6.1,8.7,11.2
			c1.2,5.6-0.2,10.5-3.9,14.8C40.4,38.6,39.5,39.1,38.9,39.9z M36.4,20c0,0.3,0,0.6,0.3,0.7c0.3,0.1,0.3-0.2,0.4-0.4
			c0.4-0.7,0.8-1.5,1.2-2.2c0.5-0.9,0.9-1.8,1.4-2.7c0.2-0.5-0.1-0.7-0.4-0.9c-0.4-0.2-0.4,0.2-0.5,0.4c-0.5,1.1-1.1,2.2-1.6,3.3
			C36.9,18.8,36.5,19.4,36.4,20z M35.1,18.3c0.1,0.3,0.1,0.6,0.4,0.7c0.3,0.1,0.3-0.3,0.5-0.5c0,0,0-0.1,0.1-0.2
			c0.6-1.4,1.1-2.8,1.7-4.2c0.1-0.2,0.1-0.3,0.2-0.5c0.1-0.5-0.3-0.6-0.6-0.7c-0.4-0.2-0.4,0.2-0.4,0.4c-0.4,1-0.8,2-1.1,3.1
			C35.5,17.1,35.3,17.7,35.1,18.3z M21.1,19.8c0-0.1,0-0.2,0-0.3c-0.8-1.7-1.6-3.3-2.4-5c-0.1-0.1-0.2-0.2-0.3-0.1
			c-0.5,0.2-0.6,0.7-0.4,1.2c0.2,0.4,0.5,0.9,0.7,1.3c0.6,1.1,1.1,2.1,1.7,3.2c0.1,0.2,0.2,0.4,0.4,0.3
			C21.1,20.3,21.1,20.1,21.1,19.8z M41.5,16.8c-0.2-0.3-0.4-0.5-0.6-0.6c-0.2-0.1-0.3,0.2-0.4,0.3c-0.3,0.6-0.7,1.1-1,1.7
			c-0.6,1-1.2,2.1-1.8,3.1c-0.1,0.2-0.4,0.6,0,0.8c0.3,0.2,0.4-0.2,0.6-0.4c1-1.5,2-2.9,3-4.4C41.3,17.1,41.4,16.9,41.5,16.8z
			 M22.4,18c0,0,0-0.2-0.1-0.3c-0.5-1.5-1.1-3-1.6-4.5c0-0.1-0.1-0.2-0.2-0.2c-0.4,0-0.8,0.6-0.7,1c0.3,0.8,0.6,1.6,0.9,2.4
			c0.3,0.7,0.6,1.4,0.8,2.1c0.1,0.2,0.2,0.4,0.4,0.4c0.2-0.1,0.4-0.2,0.4-0.5C22.4,18.3,22.4,18.2,22.4,18z M20,21.4
			c0-0.1-0.1-0.2-0.1-0.3c-0.2-0.5-0.5-1-0.8-1.5c-0.6-1.1-1.3-2.1-1.9-3.2c-0.1-0.1-0.1-0.3-0.4-0.3c-0.4,0.1-0.6,0.6-0.4,1
			c0.2,0.4,0.4,0.7,0.7,1c0.8,1.1,1.5,2.3,2.3,3.4c0.1,0.1,0.2,0.3,0.4,0.2C19.9,21.8,20,21.6,20,21.4z M33.6,16.3
			c0,0.5,0.2,0.8,0.4,0.8c0.3,0.1,0.3-0.3,0.4-0.5c0.4-1.3,0.7-2.6,1.2-3.9c0.2-0.5,0.1-0.7-0.4-0.9c-0.5-0.2-0.6,0-0.7,0.4
			c-0.1,0.3-0.2,0.5-0.2,0.8C34.1,14.2,33.8,15.3,33.6,16.3z M38.8,23.4c0.2,0,0.3-0.2,0.4-0.3c0.8-0.7,1.4-1.7,2.1-2.5
			c0.5-0.5,0.9-1.1,1.3-1.7c0.3-0.4,0-0.7-0.2-0.9c-0.3-0.3-0.4,0-0.5,0.2c-0.9,1.2-1.8,2.4-2.8,3.6c-0.2,0.3-0.5,0.6-0.6,1
			C38.4,23.2,38.5,23.3,38.8,23.4z M15.4,18c-0.3,0-0.6,0.7-0.4,0.9c1,1.2,2,2.4,3,3.6c0.2,0.2,0.4,0.8,0.8,0.4
			c0.3-0.3,0-0.7-0.2-0.9c-1-1.3-1.9-2.6-2.9-3.9C15.6,18.1,15.5,18,15.4,18z M23.9,15.9c0-0.1,0-0.2-0.1-0.4
			c-0.3-1.1-0.5-2.2-0.8-3.3c-0.1-0.2,0-0.6-0.4-0.4c-0.3,0.2-0.9,0.1-0.7,0.7c0.4,1.3,0.7,2.5,1.1,3.8c0.1,0.2,0.1,0.5,0.4,0.5
			c0.3,0,0.4-0.3,0.5-0.6C23.9,16.2,23.9,16.1,23.9,15.9z M35.9,34c0.4,0.1,0.7,0.1,0.9,0c1.5-0.3,3-0.6,4.6-1
			c0.7-0.1,1.4-0.3,2-0.4c0.4-0.1,0.5-0.4,0.5-0.7c0-0.3-0.3-0.2-0.5-0.1c-1.6,0.4-3.2,0.9-4.8,1.3C37.8,33.4,36.9,33.6,35.9,34z
			 M43.7,20.6c-0.1-0.2-0.1-0.5-0.3-0.6c-0.2-0.1-0.4,0.2-0.5,0.3c-0.4,0.4-0.8,0.9-1.2,1.3c-0.7,0.8-1.4,1.6-2.1,2.4
			c-0.1,0.2-0.4,0.4-0.1,0.6c0.2,0.2,0.4,0,0.6-0.2c1.1-1.1,2.3-2.3,3.4-3.4C43.6,20.9,43.8,20.8,43.7,20.6z M36.9,32.9
			c0.4,0.1,0.6,0.1,0.8,0c1-0.3,1.9-0.6,2.9-0.9c1.2-0.4,2.4-0.8,3.5-1.1c0.4-0.1,0.5-0.5,0.4-0.8c-0.1-0.3-0.4,0-0.6,0
			c-1.7,0.6-3.4,1.3-5.1,1.9C38.2,32.2,37.5,32.5,36.9,32.9z M21.1,33.9c-0.4-0.4-0.9-0.4-1.3-0.6c-1.8-0.5-3.6-1-5.4-1.5
			c-0.2,0-0.4-0.2-0.5,0c-0.1,0.2,0,0.4,0.1,0.6c0.1,0.2,0.2,0.2,0.4,0.2c1.8,0.4,3.7,0.8,5.5,1.2C20.2,34,20.6,34.2,21.1,33.9z
			 M21.4,35c0.1,0,0.3,0.1,0.3-0.1c0.1-0.2-0.1-0.3-0.3-0.3c-0.4-0.1-0.8-0.1-1.2-0.2c-1.8-0.3-3.6-0.6-5.4-0.9
			c-0.4-0.1-0.4,0-0.3,0.3c0.1,0.5,0.5,0.5,0.9,0.6C17.4,34.6,19.4,34.8,21.4,35z M14.4,20c-0.2,0.1-0.2,0.3-0.3,0.4
			c-0.2,0.3-0.1,0.5,0.1,0.7c1,1,2,2,3.1,3.1c0.2,0.2,0.4,0.4,0.6,0.2c0.3-0.2,0.1-0.5-0.1-0.7c-1-1.2-2.1-2.3-3.1-3.5
			C14.6,20.1,14.5,20,14.4,20z M20.4,32.8c-0.4-0.3-0.7-0.5-1.1-0.6c-1.8-0.7-3.7-1.4-5.5-2.1c-0.2-0.1-0.4-0.2-0.5,0
			c-0.1,0.2,0,0.4,0.1,0.5c0.1,0.2,0.2,0.3,0.4,0.3c1.7,0.6,3.4,1.1,5.1,1.7C19.3,32.7,19.7,33,20.4,32.8z M44.9,26.5
			c0-0.4,0-0.6-0.5-0.3c-1.6,1.1-3.4,2-4.9,3.2c-0.2,0.1-0.4,0.2-0.3,0.5c0.1,0.2,0.3,0,0.5-0.1c1.6-0.9,3.3-1.8,4.9-2.7
			C44.9,26.9,44.9,26.7,44.9,26.5z M38.2,31.4c0.2,0.1,0.3,0,0.4,0c2-0.7,3.8-1.7,5.7-2.4c0.1,0,0.2-0.1,0.3-0.2
			c0.2-0.2,0.2-0.4,0.1-0.6c-0.1-0.2-0.3,0-0.5,0c-1.6,0.8-3.2,1.5-4.8,2.3C39,30.8,38.5,30.9,38.2,31.4z M44.4,22.6
			c-0.1-0.2,0-0.5-0.2-0.6c-0.2-0.1-0.3,0.1-0.5,0.3c-1.1,0.9-2.1,1.9-3.2,2.9c-0.2,0.2-0.4,0.4-0.2,0.7c0.2,0.3,0.5,0,0.7-0.1
			c1.1-0.9,2.1-1.8,3.2-2.7C44.3,22.9,44.4,22.8,44.4,22.6z M18.8,31.2c-0.4-0.5-0.9-0.8-1.5-1c-1.3-0.7-2.6-1.3-3.8-1.9
			c-0.1-0.1-0.4-0.3-0.5-0.1c-0.1,0.2-0.1,0.5,0.1,0.7c0.1,0.1,0.2,0.1,0.3,0.2c1.3,0.6,2.6,1.1,3.9,1.7
			C17.8,31.1,18.2,31.3,18.8,31.2z M33.3,11.7c0.1-0.5-0.3-0.6-0.7-0.7c-0.5-0.1-0.5,0.2-0.5,0.6c-0.1,0.7-0.2,1.4-0.3,2.1
			c0,0.4,0.1,0.8,0.5,1.1c0.2,0.2,0.4,0.1,0.4-0.1C32.9,13.7,33.1,12.7,33.3,11.7z M13.7,22.1c-0.1,0-0.1,0-0.2,0.1
			c-0.2,0.1-0.2,0.8,0,1c0.4,0.3,0.7,0.6,1.1,0.9c0.6,0.5,1.3,1,1.9,1.5c0.1,0.1,0.3,0.2,0.5,0c0.2-0.2,0-0.4-0.1-0.5
			c-0.1-0.1-0.1-0.2-0.2-0.3c-0.9-0.9-1.9-1.7-2.8-2.6C13.9,22.1,13.8,22.1,13.7,22.1z M35.8,34.8c0.2,0.2,0.4,0.1,0.6,0.1
			c1.6-0.2,3.3-0.3,4.9-0.4c0.4,0,0.9-0.1,1.3-0.1c0.4,0,0.6-0.4,0.6-0.7c-0.1-0.4-0.4-0.1-0.6-0.1c-1.3,0.2-2.6,0.4-3.8,0.6
			C37.8,34.5,36.8,34.3,35.8,34.8z M44.8,24.5c0-0.2,0-0.4-0.2-0.5c-0.2-0.1-0.3,0.1-0.4,0.2c-0.2,0.1-0.3,0.2-0.5,0.4
			c-0.9,0.7-1.9,1.4-2.8,2.2c-0.2,0.2-0.4,0.4-0.2,0.6c0.2,0.2,0.4,0,0.5-0.1c1.1-0.7,2.1-1.4,3.2-2.2
			C44.7,24.9,44.8,24.7,44.8,24.5z M35.4,35.5c0,0.1,0,0.1,0,0.2c1,0,1.9,0.1,2.9,0.1c0.7,0,1.3,0,2,0.1c0.5,0.1,0.9,0,1.4,0
			c0.4,0,0.6-0.3,0.6-0.6c0-0.3-0.3-0.2-0.5-0.2c-0.7,0-1.5,0.1-2.2,0.1c-1.1,0-2.3,0.2-3.4,0.1C35.8,35.4,35.6,35.5,35.4,35.5z
			 M17.3,29.3c0-0.3-0.2-0.5-0.3-0.6c-1.1-0.9-2.4-1.6-3.7-2.4c-0.1-0.1-0.2-0.2-0.4-0.1c-0.1,0.1-0.1,0.3-0.1,0.4
			c0,0.2,0.1,0.4,0.3,0.5c0.3,0.2,0.6,0.4,0.9,0.5C15.1,28.2,16.1,28.9,17.3,29.3z M22.1,35.7c-0.3-0.2-0.5-0.3-0.7-0.3
			c-1.8-0.1-3.6-0.2-5.5-0.2c-0.2,0-0.5-0.2-0.5,0.2c0,0.2,0.2,0.5,0.5,0.6c0.1,0,0.2,0,0.3,0c1.4,0,2.7-0.1,4.1-0.1
			C20.9,35.8,21.5,35.7,22.1,35.7z M25.7,13.2c0-0.6-0.1-1.2-0.2-1.7c0-0.3-0.1-0.6-0.4-0.4c-0.3,0.1-0.8,0.1-0.7,0.6
			c0.2,0.9,0.3,1.8,0.5,2.6c0.1,0.4,0.2,0.3,0.4,0.1C25.6,14,25.8,13.6,25.7,13.2z M16.5,26.9c0-0.3-0.2-0.5-0.4-0.6
			c-0.9-0.7-1.7-1.3-2.6-1.9c-0.1-0.1-0.3-0.4-0.5-0.1c-0.1,0.2-0.2,0.6,0.1,0.8c1,0.7,2,1.4,3.1,2.1C16.4,27.3,16.6,27.2,16.5,26.9
			z M22.7,36.2c-0.1-0.2-0.3-0.1-0.4-0.1c-1,0.1-2.1,0.2-3.1,0.3c-0.7,0.1-1.5,0.1-2.2,0.2c-0.2,0-0.5,0-0.5,0.2
			c0,0.2,0.3,0.4,0.5,0.5c0.1,0,0.2,0,0.3,0c0.4-0.1,0.8-0.1,1.2-0.2c1.3-0.2,2.7-0.5,4-0.7C22.6,36.4,22.7,36.3,22.7,36.2z
			 M34.7,36.1c0,0.1,0,0.1,0,0.2c1.4,0.2,2.8,0.5,4.2,0.7c0.5,0.1,1.1,0.2,1.6,0.2c0.4,0,0.7-0.1,0.7-0.4c0-0.2-0.4-0.2-0.7-0.2
			c0,0-0.1,0-0.1,0c-1.1-0.1-2.2-0.2-3.2-0.3C36.4,36.2,35.5,35.9,34.7,36.1z M23.1,36.8c-0.2,0-0.3,0-0.4,0c-1.7,0.2-3.3,0.7-4.9,1
			c-0.3,0.1-0.3,0.3-0.1,0.4c0.1,0.1,0.3,0.1,0.5,0.1c1.2-0.3,2.4-0.6,3.6-1C22.2,37.2,22.7,37.1,23.1,36.8z M34.5,36.6
			c0,0,0,0.1,0,0.1c0.6,0.2,1.2,0.5,1.8,0.6c1.1,0.2,2.1,0.5,3.2,0.8c0.3,0.1,0.6,0.1,0.6-0.2c0.1-0.3-0.2-0.3-0.4-0.4
			c-1.2-0.3-2.3-0.5-3.5-0.7C35.6,36.8,35.1,36.6,34.5,36.6z M34.1,37.2c0.3,0.3,0.8,0.3,1.1,0.5c1.1,0.5,2.2,0.9,3.4,1.3
			c0.2,0.1,0.5,0.1,0.6-0.1c0.1-0.3-0.2-0.3-0.4-0.3c-1.5-0.5-2.9-1-4.4-1.4C34.3,37.1,34.2,37.1,34.1,37.2z M23.2,37.3
			c-0.1,0-0.1,0-0.2,0c-1.4,0.3-2.8,0.9-4.2,1.3c-0.1,0-0.3,0.1-0.2,0.3c0.1,0.2,0.3,0.2,0.4,0.2c0.5-0.2,1-0.4,1.5-0.5
			C21.5,38.2,22.4,37.9,23.2,37.3z M30.8,11.2c0-0.3-0.1-0.5-0.4-0.5c-0.3,0-0.7-0.2-0.8,0.2c-0.1,0.3,0.6,1.5,0.8,1.4
			c0.4-0.1,0.2-0.6,0.3-0.9C30.7,11.3,30.8,11.2,30.8,11.2z M27.5,10.7c-0.3,0-0.6-0.1-0.6,0.3c0,0.3,0,0.8,0.2,0.9
			c0.2,0.1,0.4-0.3,0.5-0.5c0-0.1,0.1-0.1,0.1-0.2c0.1-0.1,0.3-0.3,0.2-0.5C27.9,10.6,27.6,10.7,27.5,10.7z"/>
		<path class="st7" d="M19.4,28.4c-0.1-0.2-0.3-0.4-0.4-0.5c0-0.2-0.1-0.3-0.3-0.4c0,0,0-0.1-0.1-0.1c-0.2-0.4-0.1-0.6,0.2-1
			c2-2.6,3.9-5.3,5.9-7.9c1.2-1.6,2.4-3.2,3.5-4.8c0.3-0.4,0.4-0.4,0.7,0c0.3,0.5,0.6,0.9,1,1.3c2.4,3.2,4.7,6.3,7.1,9.5
			c0.6,0.8,1.3,1.6,1.7,2.5c-3,4-5.9,8-8.9,12c-0.2-0.2-0.2-0.5-0.1-0.7c0.4-1.9,0.3-3.9,0.4-5.9c0-1.3,0.2-2.6,0.7-3.8
			c0.5-1.3,0.8-2.7,1-4.1c0.1-1.2,0.2-2.6,1-3.6c0.1-0.1,0.1-0.3,0.1-0.4c-0.1-0.2-0.2-0.2-0.3-0.1c-0.1,0-0.2,0.1-0.3,0.1
			c-0.7-1.2-1.6-2.3-2.3-3.4c-0.3-0.5-0.5-1-1-1.4c0,0,0-0.1,0-0.1c0-0.1-0.1-0.2-0.2-0.2c-0.2,0-0.2,0.2-0.2,0.3
			c-1.2,1.5-2.2,3.1-3.2,4.7c-0.2,0.1-0.4-0.2-0.6,0.1l0,0c-0.2,0.1-0.2,0.3,0,0.4c0,0.1,0.1,0.1,0.1,0.2c0.2,0.4,0.4,0.8,0.6,1.3
			c0,0.1,0,0.1,0,0.2c-0.1,0.4,0,0.7,0.2,1c0,0.1,0,0.2,0,0.3c-0.1,0.2-0.1,0.3,0.1,0.5c0,0.1,0,0.1,0,0.2c-0.1,0.2-0.1,0.4,0.1,0.6
			c0,0.2,0,0.5,0.1,0.7c-0.1,0.2-0.1,0.4,0,0.5c0.2,0.5,0.3,1.1,0.5,1.6c0.6,1.6,1,3.2,0.9,4.9c0,0.8,0.1,1.6,0.1,2.4
			c-0.1,0.2,0,0.4,0,0.7c-0.1,0.9,0.1,1.7,0.3,2.5c0,0.1,0,0.1,0,0.2c0,0.4-0.2,0.5-0.5,0.2c0,0,0-0.1,0-0.1
			c-0.2-0.5-0.4-0.9-0.9-1.2c0,0,0-0.1-0.1-0.1c0-0.2-0.1-0.3-0.3-0.4c0,0,0-0.1,0-0.1c-0.1-0.4-0.3-0.6-0.6-0.8c0,0,0,0,0,0
			c0-0.2-0.1-0.4-0.3-0.5c0,0,0-0.1,0-0.1c0-0.2-0.1-0.3-0.3-0.4c0,0,0-0.1-0.1-0.1c0-0.3-0.2-0.5-0.4-0.6c-0.4-0.5-0.6-1.1-1.1-1.4
			c0,0,0-0.1,0-0.1c-0.2-0.5-0.4-0.9-0.9-1.1c0,0,0-0.1-0.1-0.1c0-0.2-0.1-0.3-0.3-0.4c-0.1-0.1-0.1-0.1-0.2-0.2
			c0-0.2,0-0.3-0.2-0.3c0,0,0,0,0,0c0-0.2-0.1-0.3-0.3-0.4c0,0,0-0.1,0-0.1c0-0.2,0-0.2-0.2-0.2c0,0-0.1-0.1-0.1-0.1
			c0-0.2,0-0.3-0.2-0.3c0,0,0-0.1,0-0.1c0-0.2-0.1-0.3-0.3-0.4c0-0.1-0.1-0.1-0.1-0.2c0-0.2,0-0.2-0.2-0.2c0,0,0-0.1-0.1-0.1
			C19.7,28.5,19.6,28.4,19.4,28.4z"/>
		<path class="st5" d="M46.8,41.7c-0.2,0-0.4,0-0.4-0.2c-0.1-0.2,0.1-0.3,0.2-0.4c2.6-3.1,4.2-6.7,4.9-10.7
			c0.8-4.9,0.1-9.7-2.1-14.1c-2.2-4.3-5.5-7.7-9.8-10C36.4,4.7,33,3.8,29.4,3.7C23.7,3.6,18.7,5.3,14.3,9c-4.4,3.7-7.1,8.4-8,14.1
			c-0.9,5.8,0.3,11.1,3.4,16c0.5,0.7,1,1.4,1.5,2.1c0.3,0.4,0.3,0.5-0.3,0.6c0-0.2-0.2-0.4-0.3-0.5c-4.3-5.5-5.9-11.7-4.7-18.5
			C7.7,10.9,18.5,2.4,30.4,3.3c6.6,0.5,12,3.2,16.3,8.2c6.8,7.9,7.4,19.9,1.3,28.4C47.6,40.6,47.2,41.1,46.8,41.7z"/>
		<path class="st4" d="M46.8,41.7c0.4-0.6,0.8-1.1,1.3-1.7c6.1-8.6,5.5-20.5-1.3-28.4c-4.3-5-9.7-7.8-16.3-8.2
			C18.5,2.4,7.7,10.9,5.8,22.7c-1.1,6.8,0.5,13,4.7,18.5c0.1,0.2,0.3,0.3,0.3,0.5c-0.1,0-0.1,0-0.2,0.1c-0.3,0-0.4-0.2-0.6-0.4
			c-2.4-3.1-4-6.6-4.7-10.5C5.1,29.5,5,28.1,5,26.7c0-2.4,0.3-4.7,1-7c1.3-4.3,3.7-8,7-11c2-1.8,4.2-3.1,6.6-4.1
			c2.1-0.9,4.3-1.5,6.6-1.7c1.8-0.2,3.6-0.2,5.4,0c2,0.2,3.9,0.7,5.7,1.4c2.5,0.9,4.8,2.3,6.9,4.1c2.4,2,4.3,4.4,5.7,7.1
			c1.3,2.5,2.1,5.1,2.5,7.8c0.2,1.5,0.3,3,0.2,4.5c-0.1,3.1-0.9,6-2.2,8.8c-0.9,1.9-2,3.6-3.3,5.2c-0.1,0-0.2,0-0.3-0.1
			C46.9,41.8,46.9,41.7,46.8,41.7L46.8,41.7L46.8,41.7z"/>
		<path class="st5" d="M38.9,39.9c0.7-0.8,1.5-1.3,2.2-2.1c3.8-4.3,5.1-9.2,3.9-14.8c-1.1-5.1-4.1-8.9-8.7-11.2
			c-5.8-2.9-11.6-2.4-17,1.3c-4.3,3-6.7,7.3-6.9,12.6c-0.3,5.4,1.7,9.9,5.8,13.5c0.2,0.2,0.5,0.4,0.7,0.7c-0.3,0.2-0.6,0.1-0.9-0.1
			c-2.7-2.3-4.6-5.2-5.6-8.6c-1.1-4.1-0.8-8.2,1.1-12c2.3-4.6,6-7.7,11.1-9C30,8.7,35,9.8,39.4,13.2c3.7,2.9,5.8,6.8,6.4,11.4
			c0.5,4.7-0.8,9-3.7,12.7c-0.7,0.9-1.5,1.7-2.4,2.4C39.4,40,39.2,40,38.9,39.9z"/>
		<path class="st7" d="M36.7,21.8c0.4,0.5,0.8,1.1,1.2,1.7c0.5,0.7,1,1.4,1.5,2c0.3,0.4,0.6,0.8,0.9,1.2c0.1,0.2,0,0.4-0.1,0.5
			c-0.9,1.1-1.6,2.2-2.4,3.3c-0.8,1-1.5,2.1-2.3,3.2c-0.8,1.1-1.6,2.2-2.4,3.2c-0.6,0.7-1.2,1.4-1.6,2.3c-0.2,0-0.5,0-0.7-0.1
			c0-0.1,0-0.2,0-0.3c0,0,0,0,0,0c0.2,0,0.3-0.1,0.4-0.2c0.8-1.1,1.6-2.1,2.4-3.2c2-2.6,3.9-5.3,5.9-7.9c0.3-0.4,0.2-0.6,0-0.9
			c-0.8-1.1-1.7-2.3-2.5-3.4c-0.3-0.5-0.6-1-1.1-1.3c0,0,0-0.1,0-0.1c0-0.2-0.2-0.3-0.3-0.5c-0.1-0.2-0.1-0.3-0.3-0.4
			c-0.4-0.8-0.9-1.5-1.6-2.1c0-0.1-0.1-0.1-0.1-0.2c0-0.2-0.1-0.3-0.3-0.4c0,0,0-0.1,0-0.1c-0.2-0.5-0.5-0.9-1-1.3
			c-0.2-0.5-0.5-0.9-0.9-1.2c0,0,0-0.1,0-0.1c-0.3-0.5-0.5-1-1-1.3c0,0,0-0.1,0-0.1c-0.4-0.7-0.8-1.3-1.3-1.8
			c-0.3-0.4-0.5,0-0.6,0.2c-1.1,1.5-2.2,3-3.3,4.5c-2.3,3.1-4.7,6.3-7,9.4c-0.3,0.5-0.4,0.8,0.1,1.1c0,0.2,0,0.2,0.2,0.2
			c0,0.1,0.1,0.2,0.2,0.2c0,0.3,0.2,0.6,0.5,0.7c0,0,0,0.1,0,0.1c0.1,0.4,0.3,0.7,0.6,0.8c0,0,0,0.1,0,0.1c0.3,0.7,0.7,1.3,1.3,1.7
			c0,0,0,0.1,0,0.1c0,0.3,0.2,0.6,0.5,0.7c0,0,0,0.1,0,0.1c0,0.2,0.1,0.3,0.3,0.4c0,0,0,0.1,0,0.1c0,0.2,0.1,0.4,0.3,0.4
			c0,0,0,0,0,0c-0.1,0.2,0,0.2,0.2,0.2c0,0,0,0.1,0,0.1c0,0.2,0.1,0.3,0.3,0.4c0,0.1,0.1,0.1,0.1,0.2c0.4,0.8,0.8,1.5,1.5,2.1
			c0,0.1,0.1,0.1,0.1,0.2c0,0.2,0,0.2,0.2,0.2c0,0,0,0.1,0,0.1c0,0.2,0.1,0.3,0.3,0.4c0,0,0,0.1,0,0.1c0,0.2,0.1,0.3,0.3,0.4
			c0,0,0,0.1,0,0.1c0,0.2,0,0.2,0.2,0.2c0.1,0.1,0.1,0.1,0.2,0.2c0,0.3,0.1,0.5,0.4,0.6c0,0,0.1,0.1,0.1,0.1c0,0.2,0.1,0.4-0.2,0.5
			c-0.2,0-0.3-0.1-0.5-0.2c-0.9-1.3-1.9-2.6-2.9-3.9c-0.9-1.3-1.9-2.6-2.8-3.9c-0.7-1-1.5-2-2.2-3c-0.6-0.8-0.9-1.4-0.1-2.3
			c0.5-0.6,1-1.3,1.4-1.9c0.5-0.8,1.1-1.5,1.6-2.2c0.6-0.7,1.1-1.5,1.7-2.3c0.7-1,1.6-1.8,2.2-2.9c0.4-0.7,1.1-1.2,1.4-1.9
			c0,0,0.1-0.1,0.1-0.1c0-0.1,0.1-0.2,0.1-0.3c0.5-0.4,0.7-1,1.1-1.4c0.3-0.5,0.7-0.9,1-1.4c0.3-0.4,0.5-0.4,0.8,0
			c0.6,0.7,1,1.6,1.7,2.3c0.8,0.9,1.5,1.9,2.2,2.9"/>
		<path class="st6" d="M31.2,15.6c0.4,0.3,0.7,0.7,0.9,1.2c0,0,0,0-0.1,0.1c-0.1,0-0.2-0.1-0.2,0c0,0.1,0.1,0.2,0.2,0.2l0,0
			c0,0.3,0.1,0.5,0.3,0.6l0,0c0,0.2,0.2,0.4,0.3,0.5l0,0c0,0.2,0.1,0.3,0.3,0.4c0,0,0.1-0.2,0.1-0.3c0.2,0,0.3,0.2,0.3,0.4
			c-0.3,0.3-0.2,0.6,0.3,0.8c0.1-0.2-0.3-0.4-0.2-0.6c0.7,0.6,1.2,1.3,1.6,2.1c0,0,0,0-0.1,0.1c-0.1,0-0.2-0.1-0.3-0.1
			c0-0.1,0.1-0.3-0.2-0.4c-0.1,0.2,0.1,0.3,0.2,0.4c0,0.2,0.2,0.4,0.3,0.5l0,0c0,0.2,0.2,0.4,0.3,0.5l0,0c0,0.1,0,0.3,0.2,0.3
			c0.1,0,0.1-0.1,0.2-0.2c0.5,0.3,0.8,0.9,1.1,1.3c0.9,1.1,1.7,2.3,2.5,3.4c0.2,0.3,0.3,0.5,0,0.9c-2,2.6-3.9,5.3-5.9,7.9
			c-0.8,1.1-1.6,2.2-2.4,3.2c-0.1,0.1-0.2,0.3-0.4,0.2c0-0.3,0.2-0.5,0.4-0.7c2.4-3.3,4.9-6.5,7.3-9.8c0.1-0.1,0.1-0.2,0.2-0.2
			c0.8-1,0.8-1.5-0.2-2.4c0-0.2-0.1-0.3-0.3-0.3c0-0.1,0.1-0.3-0.2-0.3c-0.1,0.2,0.1,0.3,0.2,0.4c0,0.2,0.1,0.3,0.3,0.3
			c0,0.4,0.3,0.5,0.4,0.8c0.1,0.2,0.3,0.5-0.1,0.6c-0.4-0.9-1.1-1.7-1.7-2.5c-2.3-3.2-4.7-6.3-7.1-9.5c-0.3-0.4-0.7-0.9-1-1.3
			c-0.3-0.4-0.4-0.3-0.7,0c-1.2,1.6-2.3,3.2-3.5,4.8c-2,2.6-3.9,5.3-5.9,7.9c-0.3,0.3-0.3,0.6-0.2,1C18,27,18,27,18.5,26.4
			c0.9-1.1,1.7-2.3,2.5-3.4c1-1.3,2-2.6,2.9-3.9c1.3-1.9,2.7-3.7,4-5.5c0.2-0.3,0.4-0.5,0.7-0.6c0.4-0.1,0-0.4,0.1-0.6
			c0.5,0.5,0.9,1.2,1.3,1.8c-0.1,0.1-0.3-0.1-0.4,0c0,0.2,0.2,0.4,0.4,0.5c0,0.1,0,0.2,0.2,0.3c0,0,0.1,0,0.1-0.1
			c0-0.1-0.1-0.2-0.2-0.2c0-0.1,0-0.2,0-0.4C30.6,14.5,30.9,15,31.2,15.6c-0.2-0.1-0.3-0.2-0.5-0.2c0-0.1,0-0.2-0.1-0.3
			c0,0-0.1,0-0.1,0c0,0.1,0.1,0.2,0.2,0.2c0,0.3,0.2,0.4,0.5,0.6c0,0.2,0.1,0.3,0.2,0.3c0,0.1,0,0.3,0.2,0.3c0.1,0,0.1,0,0.1-0.1
			c0-0.2-0.2-0.2-0.3-0.2c0-0.2,0-0.3-0.2-0.3C31.1,15.8,31.2,15.7,31.2,15.6z M36.4,23c0-0.1,0-0.2-0.2-0.3c0,0-0.1,0-0.1,0.1
			C36.2,22.9,36.3,23,36.4,23c0,0.1,0,0.2,0.1,0.3c0,0,0.1,0,0.1,0C36.6,23.1,36.5,23,36.4,23z M37.3,24.2c0,0.1-0.1,0.3,0.2,0.3
			C37.6,24.4,37.5,24.3,37.3,24.2c0-0.1,0-0.3-0.2-0.3c-0.1,0-0.1,0-0.1,0.1C37.1,24.2,37.2,24.2,37.3,24.2z M34.1,19.9
			c0-0.1,0-0.2-0.1-0.3c0,0-0.1,0-0.1,0C33.8,19.8,34,19.9,34.1,19.9c0,0.1,0,0.3,0.2,0.3c0.1,0,0.1,0,0.1-0.1
			C34.3,20,34.2,19.9,34.1,19.9z M29.1,13c0.1,0.4,0.1,0.4,0.4,0.6C29.4,13.3,29.2,13.2,29.1,13z"/>
		<path class="st7" d="M27.8,25.7c-0.1,0.2-0.1,0.4,0,0.5c0,0.2-0.1,0.3,0.1,0.5c0,0.1,0,0.1,0,0.2c-0.1,0.2,0,0.4-0.3,0.5
			c-0.1-0.1-0.1-0.2-0.2-0.2c-0.2-0.7-0.5-1.3-0.6-2c-0.2-1.3-0.8-2.5-0.9-3.8c0-0.3-0.1-0.4,0.3-0.4c1.6,0,3.2,0,4.7,0
			c0.2,0,0.4,0,0.4,0.2c-0.2,0.2-0.4,0.4-0.2,0.7c0.1,0.1,0,0.2,0,0.3c-0.6,1.7-0.8,3.4-1.5,5c-0.5,0-0.3-0.4-0.3-0.7
			c0-0.5,0.3-1.1-0.4-1.5c0,0,0,0,0,0c0-0.1-0.1-0.2-0.3-0.1c-0.1,0-0.2,0-0.3,0c-0.1-0.1-0.2,0-0.3,0.1c-0.1,0.1-0.2,0.1-0.2,0.2
			C27.8,25.5,27.7,25.5,27.8,25.7z"/>
		<path class="st6" d="M32.4,20.4c0.1-0.2,0.3-0.1,0.3,0.1c0.1,0.1,0,0.3-0.1,0.4c-0.8,1.1-0.9,2.4-1,3.6c-0.2,1.4-0.5,2.8-1,4.1
			c-0.5,1.2-0.6,2.5-0.7,3.8c-0.1,2,0,3.9-0.4,5.9c0,0.2-0.1,0.5,0.1,0.7c-0.3,0.3-0.5,0.1-0.8,0c-0.2-0.1-0.1-0.3-0.1-0.4
			c0.2-1.5,0.3-3.1,0.5-4.6c0.2-1.5-0.1-3.1,0.3-4.6c0.2-0.6,0.4-1.2,0.7-1.8c0.6-1.3,0.6-2.8,1-4.1c0.2-0.6,0.1-1.3,0.4-1.8
			c0.1-0.2,0.3-0.3,0.4-0.5C32.4,20.9,32.7,20.7,32.4,20.4z"/>
		<path class="st6" d="M31.4,21.3c0-0.3-0.2-0.2-0.4-0.2c-1.6,0-3.2,0-4.7,0c-0.4,0-0.3,0.1-0.3,0.4c0.1,1.3,0.6,2.5,0.9,3.8
			c0.1,0.7,0.4,1.3,0.6,2c-0.4,0.3-0.5,0.1-0.7-0.3c-0.4-1-0.5-2.1-0.7-3.2c-0.1-0.3-0.1-0.7-0.2-1c-0.1-0.3-0.2-0.5-0.6-0.5
			c-0.2-0.4-0.4-0.8-0.6-1.3c0.2,0,0.3,0.2,0.4,0.4c0.1,0.1,0.2,0.3,0.4,0.1c0.2-0.1,0.1-0.3,0-0.4c-0.1-0.3,0-0.5,0.3-0.5
			c0.1,0,0.3,0,0.4,0c1.7,0,3.4,0,5.1,0c0.2,0,0.4,0,0.4-0.2c0.1-0.1,0-0.3-0.1-0.4c-0.9-1.1-1.6-2.2-2.3-3.4
			c-0.2-0.3-0.6-0.6-0.6-1.1c0.5,0.4,0.7,0.9,1,1.4c0.8,1.1,1.6,2.2,2.3,3.4C31.9,20.8,31.7,21.1,31.4,21.3z"/>
		<path class="st5" d="M11.1,30.9c0,0.1-0.1,0.2-0.2,0.3c-0.2,0.2-0.3,0.5-0.1,0.8c0.2,0.4,0,0.4-0.3,0.3c-0.4-0.2-0.7-0.1-1,0.1
			c-0.3,0.2-0.4,0.1-0.4-0.2c0.1-0.4-0.1-0.7-0.4-0.9c-0.2-0.2-0.2-0.4,0.1-0.4c0.4,0,0.6-0.3,0.7-0.7c0.1-0.2,0.2-0.4,0.3-0.1
			c0.3,0.4,0.6,0.7,1.1,0.6C11.1,30.7,11.1,30.7,11.1,30.9z"/>
		<path class="st5" d="M50.1,27c0,0.1-0.1,0.1-0.2,0.2c-0.3,0.2-0.4,0.5-0.4,0.9c0,0.4-0.1,0.4-0.4,0.2c-0.3-0.2-0.6-0.3-0.9-0.1
			c-0.3,0.1-0.5,0-0.3-0.3c0.2-0.4,0-0.6-0.2-0.9c-0.2-0.3-0.2-0.5,0.2-0.4c0.4,0,0.6-0.1,0.8-0.5c0.2-0.3,0.3-0.3,0.4,0
			c0.1,0.4,0.3,0.6,0.7,0.7C50,26.7,50.1,26.8,50.1,27z"/>
		<path class="st5" d="M49.5,31.1c0,0-0.1,0.1-0.2,0.1c-0.3,0.2-0.5,0.5-0.5,0.9c0,0.3-0.1,0.4-0.4,0.2c-0.3-0.2-0.6-0.3-0.9-0.1
			c-0.3,0.1-0.4,0-0.3-0.3c0.1-0.4,0.1-0.6-0.2-0.9c-0.2-0.2-0.2-0.4,0.2-0.4c0.4,0,0.6-0.1,0.8-0.5c0.1-0.3,0.3-0.3,0.4,0
			c0.1,0.4,0.4,0.6,0.8,0.7C49.4,30.9,49.5,31,49.5,31.1z"/>
		<path class="st5" d="M45.7,38.6c-0.5,0.3-0.6,0.8-0.6,1.3c0,0.1-0.2,0-0.3,0c-0.3-0.3-0.6-0.4-1-0.1c-0.1,0.1-0.2,0.1-0.3,0
			c-0.1-0.1-0.1-0.2,0-0.3c0.2-0.4,0.1-0.7-0.2-1c-0.3-0.3-0.1-0.4,0.2-0.4c0.4,0,0.6-0.1,0.8-0.4c0.2-0.3,0.3-0.4,0.5,0
			c0.1,0.4,0.3,0.5,0.6,0.6C45.5,38.3,45.6,38.4,45.7,38.6z"/>
		<path class="st5" d="M45.4,13.8c0.2,0,0.2,0.1,0.2,0.3c0.1,0.4,0.3,0.6,0.7,0.6c0.3,0.1,0.4,0.2,0.1,0.4C46.1,15.4,46,15.7,46,16
			c0,0.3-0.1,0.4-0.4,0.2c-0.3-0.2-0.6-0.3-0.9-0.1c-0.3,0.2-0.5,0-0.3-0.3c0.1-0.4,0-0.6-0.2-0.9c-0.1-0.1-0.3-0.4,0.1-0.4
			c0.5,0,0.8-0.1,1-0.6C45.2,13.9,45.3,13.9,45.4,13.8z"/>
		<path class="st5" d="M12.9,39.5c0-0.3-0.1-0.5-0.4-0.7c-0.3-0.2-0.3-0.4,0.1-0.5c0.4-0.1,0.6-0.2,0.7-0.6c0.1-0.4,0.3-0.5,0.5-0.1
			c0.2,0.3,0.4,0.4,0.8,0.4c0.3,0,0.4,0.1,0.2,0.4c-0.2,0.3-0.3,0.6-0.2,0.9c0.1,0.4,0,0.4-0.3,0.3c-0.3-0.1-0.5-0.1-0.8,0
			c-0.1,0.1-0.2,0.3-0.4,0.1C12.8,39.8,12.9,39.6,12.9,39.5z"/>
		<path class="st5" d="M16.2,13c-0.4-0.3-0.8-0.2-1.2,0.1c-0.1,0.1-0.3-0.1-0.2-0.2c0.1-0.5-0.1-0.8-0.5-1c-0.2-0.1-0.1-0.3,0.1-0.3
			c0.5,0,0.7-0.3,0.8-0.8c0.1-0.3,0.3-0.2,0.3,0c0.2,0.4,0.5,0.5,0.9,0.5c0.3,0,0.4,0.2,0.2,0.4c-0.3,0.3-0.3,0.6-0.2,0.9
			C16.5,12.8,16.5,13,16.2,13z"/>
		<path class="st5" d="M47.3,17.6c0.2,0,0.2,0.1,0.3,0.2c0.1,0.4,0.3,0.6,0.7,0.7c0.4,0.1,0.3,0.3,0.1,0.4c-0.3,0.2-0.4,0.4-0.4,0.8
			c0,0.4-0.1,0.6-0.5,0.3c-0.3-0.2-0.5-0.3-0.8-0.1c-0.1,0.1-0.3,0.1-0.4,0c-0.1-0.1,0-0.3,0-0.4c0.2-0.3,0-0.6-0.2-0.9
			c-0.2-0.2-0.2-0.4,0.1-0.4c0.4,0,0.7-0.1,0.8-0.5C47.2,17.7,47.3,17.6,47.3,17.6z"/>
		<path class="st5" d="M13.7,15.9c0,0.3-0.2,0.3-0.4,0.2c-0.4-0.2-0.7-0.1-1,0.1c-0.3,0.2-0.4,0-0.3-0.2c0.1-0.4-0.1-0.7-0.4-0.9
			c-0.2-0.2-0.3-0.3,0-0.4c0.4-0.1,0.7-0.3,0.8-0.7c0.1-0.3,0.3-0.3,0.4,0c0.2,0.4,0.4,0.5,0.9,0.5c0.2,0,0.4,0.1,0.2,0.3
			C13.6,15.2,13.5,15.5,13.7,15.9z"/>
		<path class="st5" d="M20.1,9c0,0-0.1,0.1-0.1,0.2c-0.3,0.3-0.4,0.5-0.2,0.9c0.1,0.3,0,0.5-0.3,0.3c-0.3-0.2-0.6-0.1-0.9,0.1
			c-0.3,0.2-0.4,0.2-0.4-0.2c0-0.4-0.1-0.6-0.4-0.9C17.5,9.2,17.5,9,17.8,9c0.4-0.1,0.6-0.3,0.7-0.6c0.1-0.2,0.2-0.4,0.4-0.1
			c0.2,0.4,0.5,0.6,1,0.5C20,8.7,20.1,8.8,20.1,9z"/>
		<path class="st5" d="M30.3,7.2c0-0.3-0.1-0.4-0.3-0.6c-0.2-0.3-0.1-0.4,0.2-0.4c0.4,0,0.7-0.2,0.8-0.5c0.2-0.3,0.3-0.2,0.4,0.1
			c0.1,0.4,0.3,0.6,0.7,0.6c0.4,0.1,0.4,0.3,0.1,0.5c-0.3,0.2-0.4,0.4-0.3,0.8c0,0.1,0.1,0.3-0.1,0.4c-0.1,0.1-0.2-0.1-0.3-0.1
			c-0.2-0.1-0.4-0.3-0.7-0.1c-0.4,0.2-0.6,0.1-0.4-0.4C30.3,7.3,30.3,7.2,30.3,7.2z"/>
		<path class="st5" d="M11.9,18.5c-0.1,0.1-0.3,0.3-0.3,0.5c0.1,0.7,0,1.2-0.8,0.7c-0.6,0.6-0.6,0.2-0.9-0.4
			c-0.4-0.7-0.6-0.9,0.3-1.1c0.2-0.8,0.5-0.7,0.9-0.1c0.1,0.2,0.4,0.1,0.5,0.1C11.8,18.3,11.9,18.3,11.9,18.5z"/>
		<path class="st5" d="M45.7,35.9c0.2-0.4,0-0.7-0.2-1c-0.2-0.2-0.1-0.4,0.2-0.3c0.4,0,0.7-0.1,0.9-0.5c0.2-0.3,0.3-0.3,0.4,0
			c0.1,0.3,0.3,0.5,0.7,0.6c0.3,0,0.4,0.3,0.1,0.5c-0.3,0.2-0.4,0.4-0.4,0.8c0,0.3-0.1,0.4-0.4,0.2c-0.3-0.2-0.6-0.2-0.9-0.1
			C45.8,36.3,45.7,36.2,45.7,35.9z"/>
		<path class="st5" d="M27,7.6c-0.7,0.6-0.7,0.2-1-0.4c-0.2-0.6-0.4-0.6,0.2-1c0.5-0.4,0.5-0.5,1.2-0.1c0.6,0.3,0.9,0.3,0.4,0.9
			c0,0,0,0.1,0,0.1C27.9,7.8,27.8,8.1,27,7.6z"/>
		<path class="st5" d="M10.7,22.5c0,0,0,0.1-0.1,0.2c-0.3,0.3-0.3,0.5-0.2,0.9c0.1,0.3,0,0.5-0.3,0.3c-0.3-0.2-0.6-0.1-0.9,0.1
			c-0.2,0.2-0.4,0.1-0.4-0.2c0-0.4-0.1-0.7-0.4-0.9c-0.2-0.1-0.2-0.3,0.1-0.4c0.4-0.1,0.7-0.3,0.8-0.7c0.1-0.3,0.3-0.3,0.4,0
			c0.2,0.4,0.5,0.6,0.9,0.5C10.7,22.3,10.8,22.3,10.7,22.5z"/>
		<path class="st5" d="M49,24.1c0,0-0.1,0-0.2-0.1c-0.3-0.2-0.6-0.2-0.9-0.1c-0.3,0.1-0.5,0.1-0.4-0.3c0.1-0.4,0-0.7-0.2-1
			c-0.2-0.2-0.1-0.4,0.1-0.3c0.4,0,0.7-0.2,0.9-0.5c0.2-0.3,0.4-0.2,0.4,0.1c0.1,0.4,0.3,0.6,0.7,0.6c0.3,0,0.4,0.2,0.1,0.4
			c-0.4,0.2-0.5,0.5-0.4,0.9C49.2,23.9,49.2,24.1,49,24.1z"/>
		<path class="st5" d="M41.6,12.6c0.2-0.3,0-0.6-0.2-0.9c-0.2-0.2-0.1-0.4,0.2-0.4c0.4,0,0.7-0.1,0.9-0.5c0.1-0.2,0.3-0.2,0.3,0
			c0.1,0.4,0.4,0.7,0.8,0.8c0.3,0,0.2,0.2,0.1,0.3c-0.3,0.2-0.6,0.5-0.5,1c0.1,0.3-0.2,0.3-0.4,0.1c-0.3-0.2-0.6-0.3-1-0.1
			C41.7,13,41.6,13,41.6,12.6z"/>
		<path class="st5" d="M40.4,9.3c0,0-0.1,0.1-0.2,0.2c-0.3,0.2-0.4,0.4-0.3,0.8c0.1,0.4-0.2,0.4-0.4,0.2c-0.3-0.2-0.6-0.3-0.9-0.1
			c-0.3,0.1-0.5,0.1-0.3-0.3c0.2-0.4,0.1-0.6-0.2-0.9c-0.2-0.2-0.2-0.4,0.2-0.4c0.4,0,0.6-0.1,0.8-0.4C39.2,8,39.4,8,39.5,8.4
			c0.1,0.4,0.3,0.5,0.7,0.6C40.3,9,40.4,9,40.4,9.3z"/>
		<path class="st5" d="M22.2,8.9C22,8.9,22,8.8,22,8.7c0.1-0.4-0.1-0.8-0.4-1c-0.2-0.1-0.2-0.3,0.1-0.4C22,7.2,22.3,7,22.4,6.6
			c0.1-0.3,0.3-0.2,0.4,0c0.2,0.3,0.4,0.5,0.8,0.5c0.3,0,0.3,0.2,0.2,0.4c-0.2,0.3-0.3,0.6-0.2,1c0.1,0.1,0,0.3-0.1,0.3
			C23,8.5,22.5,8.4,22.2,8.9z"/>
		<path class="st5" d="M8.5,27.9c0.1-0.3-0.1-0.5-0.4-0.7c-0.3-0.2-0.2-0.4,0.1-0.4c0.4-0.1,0.6-0.3,0.7-0.7c0.1-0.3,0.2-0.3,0.4,0
			c0.2,0.3,0.4,0.5,0.8,0.5c0.4,0,0.4,0.2,0.2,0.4c-0.2,0.3-0.3,0.6-0.2,0.9c0.2,0.4-0.1,0.4-0.4,0.3c-0.3-0.2-0.6-0.1-0.8,0.1
			c-0.1,0.1-0.2,0.2-0.3,0.1C8.4,28.2,8.5,28.1,8.5,27.9z"/>
		<path class="st5" d="M10.6,36c0.1-0.4-0.2-0.6-0.4-0.8C10,35,10,34.9,10.3,34.8c0.4-0.1,0.6-0.3,0.7-0.7c0.1-0.3,0.3-0.3,0.4,0
			c0.2,0.3,0.4,0.5,0.9,0.5c0.3,0,0.3,0.1,0.2,0.3c-0.3,0.3-0.4,0.6-0.2,1c0.1,0.2,0,0.4-0.3,0.3c-0.4-0.2-0.7-0.1-1,0.1
			C10.6,36.5,10.6,36.1,10.6,36z"/>
		<path class="st5" d="M35.1,8.5c0,0-0.1,0-0.1,0c-0.7,0.4-0.7,0.1-0.5-0.5c0.1-0.3-0.1-0.4-0.3-0.6C34,7.2,34.1,7,34.4,7.1
			c0.4,0,0.6-0.1,0.8-0.5c0.1-0.3,0.3-0.2,0.4,0c0.1,0.4,0.3,0.6,0.7,0.6c0.3,0,0.4,0.2,0.1,0.4c-0.3,0.2-0.5,0.4-0.4,0.8
			c0.1,0.3-0.1,0.4-0.4,0.2C35.5,8.7,35.3,8.5,35.1,8.5z"/>
		<path class="st6" d="M27.2,35.2c-0.1-0.8-0.2-1.6-0.1-2.4c0.1-1.7-0.3-3.3-0.9-4.9c-0.2-0.5-0.3-1.1-0.5-1.6
			c-0.1-0.2-0.1-0.4,0-0.5c0.6,1.4,1.3,2.7,1.5,4.3c0.1,0.5,0.2,1,0.2,1.5c-0.1,1,0.1,2,0,3.1C27.4,34.9,27.5,35.1,27.2,35.2z"/>
		<path class="st6" d="M29,25.2c0.7,0.4,0.4,1,0.4,1.5c0,0.3-0.3,0.6,0.3,0.7c-0.2,0.5-0.5,0.1-0.8,0.1c-0.2,0-0.2-0.2-0.2-0.4
			C28.5,26.4,28.8,25.8,29,25.2z"/>
		<path class="st6" d="M27.5,38.3c-0.2-0.8-0.4-1.6-0.3-2.5C27.5,36.6,27.7,37.5,27.5,38.3z"/>
		<path class="st6" d="M24.3,36.1c-0.7-0.5-1.2-1.3-1.5-2.1C23.5,34.6,23.9,35.3,24.3,36.1z"/>
		<path class="st6" d="M22.9,33.1c0.5,0.3,0.8,0.9,1.1,1.4c0.2,0.2,0.4,0.3,0.4,0.6C23.7,34.6,23.3,33.9,22.9,33.1z"/>
		<path class="st6" d="M20.8,31.3c-0.6-0.4-1-1.1-1.3-1.7C20.1,30,20.5,30.7,20.8,31.3z"/>
		<path class="st6" d="M22,31.9c0.4,0.3,0.7,0.7,0.9,1.1C22.4,32.8,22.2,32.3,22,31.9z"/>
		<path class="st6" d="M26.2,37.5c0.4,0.3,0.7,0.7,0.9,1.2C26.6,38.4,26.3,38,26.2,37.5z"/>
		<path class="st6" d="M27.1,38.7c0.3,0.3,0.5,0.2,0.5-0.2c0.3,0.1,0.2,0.3,0.1,0.5c0,0.1-0.2,0.2-0.3,0.2
			C27.1,39.2,27.1,39,27.1,38.7z"/>
		<path class="st6" d="M25.4,23.5c-0.2-0.3-0.3-0.7-0.2-1C25.4,22.8,25.5,23.1,25.4,23.5z"/>
		<path class="st6" d="M19.5,29.5c-0.3-0.2-0.6-0.4-0.6-0.8C19.2,28.8,19.4,29.2,19.5,29.5z"/>
		<path class="st6" d="M25.2,36.2c0.3,0.2,0.5,0.4,0.6,0.8C25.4,36.8,25.2,36.5,25.2,36.2z"/>
		<path class="st6" d="M21.4,32.1c-0.3-0.1-0.5-0.4-0.5-0.7C21.2,31.5,21.3,31.8,21.4,32.1z"/>
		<path class="st6" d="M18.8,28.6c-0.3-0.1-0.5-0.4-0.5-0.7C18.6,28,18.7,28.3,18.8,28.6z"/>
		<path class="st6" d="M26.2,38.5c-0.3-0.1-0.4-0.3-0.4-0.6C26.1,38,26.1,38.3,26.2,38.5z"/>
		<path class="st6" d="M30.8,38.8c0,0.1,0,0.2,0,0.3c-0.1,0.2-0.2,0.1-0.3,0C30.4,38.8,30.6,38.8,30.8,38.8z"/>
		<path class="st6" d="M25.6,25.1c-0.2-0.2-0.1-0.4-0.1-0.6C25.8,24.7,25.7,24.9,25.6,25.1z"/>
		<path class="st6" d="M27.8,26.7c-0.1-0.1-0.1-0.3-0.1-0.5C28,26.3,28,26.5,27.8,26.7z"/>
		<path class="st6" d="M25.5,24.3c-0.2-0.1-0.2-0.3-0.1-0.5C25.6,24,25.6,24.1,25.5,24.3z"/>
		<path class="st6" d="M27.6,27.4c0.2-0.1,0.2-0.3,0.3-0.5C27.9,27.2,28.2,27.5,27.6,27.4z"/>
		<path class="st6" d="M24.8,35.7c0.2,0.1,0.3,0.2,0.3,0.5C24.9,36.1,24.8,36,24.8,35.7z"/>
		<path class="st6" d="M22.1,33.1c-0.2,0-0.4-0.2-0.3-0.4C22,32.7,22.1,32.9,22.1,33.1z"/>
		<path class="st6" d="M20.1,29.3c0.2,0,0.3,0.1,0.3,0.4C20.2,29.6,20,29.5,20.1,29.3z"/>
		<path class="st6" d="M19.4,28.4c0.2,0,0.3,0.1,0.3,0.4C19.5,28.7,19.4,28.6,19.4,28.4z"/>
		<path class="st6" d="M18.7,27.5c0.2,0,0.3,0.1,0.3,0.4C18.8,27.8,18.7,27.7,18.7,27.5z"/>
		<path class="st6" d="M21.6,31.4c0.2,0,0.3,0.1,0.3,0.4C21.7,31.7,21.6,31.6,21.6,31.4z"/>
		<path class="st6" d="M24.5,35.2c0.2,0.1,0.3,0.2,0.3,0.4C24.6,35.6,24.4,35.5,24.5,35.2z"/>
		<path class="st6" d="M21,30.5c0.2,0,0.3,0.1,0.3,0.4C21.1,30.8,20.9,30.7,21,30.5z"/>
		<path class="st6" d="M21.8,32.6c-0.2,0-0.3-0.1-0.3-0.4C21.7,32.2,21.8,32.3,21.8,32.6z"/>
		<path class="st6" d="M25,37c-0.2,0-0.3-0.1-0.3-0.4C24.9,36.6,25,36.7,25,37z"/>
		<path class="st6" d="M25.4,37.4c-0.2,0-0.3-0.1-0.3-0.4C25.3,37.1,25.4,37.2,25.4,37.4z"/>
		<path class="st6" d="M25.8,37.1c0.2,0,0.3,0.2,0.3,0.4C25.9,37.4,25.8,37.3,25.8,37.1z"/>
		<path class="st6" d="M22.7,33.8c-0.2,0-0.3-0.2-0.3-0.4C22.6,33.5,22.7,33.6,22.7,33.8z"/>
		<path class="st6" d="M21.3,30.9c0.2,0,0.2,0.1,0.2,0.3C21.3,31.2,21.3,31.1,21.3,30.9z"/>
		<path class="st6" d="M20.4,29.7c0.2,0,0.2,0.2,0.2,0.3C20.5,30,20.4,29.9,20.4,29.7z"/>
		<path class="st6" d="M20.7,30.2c0.2,0,0.2,0.1,0.2,0.2C20.8,30.4,20.7,30.3,20.7,30.2z"/>
		<path class="st6" d="M25.6,37.7c-0.2,0-0.2-0.1-0.2-0.2C25.5,37.5,25.6,37.6,25.6,37.7z"/>
		<path class="st6" d="M28.7,25.1c0.1-0.1,0.2,0,0.3,0.1C28.9,25.2,28.8,25.2,28.7,25.1z"/>
		<path class="st6" d="M28.2,25.2c0.1-0.1,0.1-0.2,0.3-0.1C28.4,25.2,28.3,25.2,28.2,25.2z"/>
		<path class="st6" d="M27.8,25.7c-0.1-0.1,0-0.2,0.1-0.3C28,25.5,27.9,25.6,27.8,25.7z"/>
		<path class="st6" d="M24.7,36.5c-0.2,0-0.2-0.1-0.2-0.2C24.6,36.3,24.7,36.4,24.7,36.5z"/>
		<path class="st6" d="M18.1,27.7c-0.2,0-0.2-0.1-0.2-0.2C18.1,27.5,18.2,27.6,18.1,27.7z"/>
		<path class="st6" d="M19.7,28.8c0.1,0,0.2,0.1,0.2,0.2C19.8,29.1,19.7,29,19.7,28.8z"/>
		<path class="st6" d="M22.3,33.3c-0.2,0-0.2-0.1-0.2-0.2C22.3,33.1,22.3,33.2,22.3,33.3z"/>
		<path class="st6" d="M46.8,41.7c0,0,0.1,0.1,0.1,0.1C46.9,41.8,46.9,41.7,46.8,41.7z"/>
		<path class="st5" d="M11.9,51.3c-0.1-0.1-0.1-0.2-0.1-0.3c3.5-1.1,7.1-1.8,10.8-2.1c2.4-0.3,4.9-0.4,7.4-0.3
			c5.2,0.1,10.2,0.9,15.2,2.3c0.2,0.1,0.5,0.1,0.6,0.4c-0.1,0.1-0.2,0.2-0.3,0.3c-0.9-0.3-1.8-0.5-2.6-0.8c-5.9-1.5-12-1.9-18.1-1.6
			c-3.8,0.2-7.4,0.8-11.1,1.8C13.2,51.1,12.6,51.3,11.9,51.3z"/>
		<path class="st4" d="M33.2,48.2c0.6-0.7,0.8-1.4,1.2-2.1c0.1-0.1,0.1-0.3,0.2-0.4c0.1-0.1,0.1-0.3,0.3-0.2c0.2,0,0.2,0.2,0.2,0.3
			c0.2,0.7,0.4,1.4,0.6,2.1c0,0.2,0.1,0.4,0.3,0.4c0.3,0,0.2-0.3,0.2-0.4c0-0.6,0.3-1.3,0.1-1.9c-0.1-0.2,0.1-0.2,0.2-0.2
			c0.2,0,0.4,0.1,0.7,0.1c0.9,0.1,1.2,0.7,0.7,1.4c-0.2,0.3,0.2,1.3,0.5,1.3c0.1,0,0.2,0,0.2-0.1c0.1-0.8,0.4-1.5,0.2-2.4
			c0.7,0.1,1.3,0.1,1.9,0.4c0.6,0.3,0.9,1,0.7,1.6c-0.2,0.7-0.7,1.2-1.4,1.1c-0.6,0-1.2-0.2-1.8-0.3c-0.4-0.1-0.6-0.5-0.8-0.9
			c-0.1-0.2-0.2-0.5-0.5-0.4c-0.2,0.1-0.2,0.4-0.1,0.6c0.2,0.5,0,0.5-0.4,0.4c-0.1,0-0.3-0.1-0.4,0c-0.5,0-0.8-0.1-0.8-0.7
			c0-0.3-0.2-0.5-0.6-0.5c-0.3,0-0.5,0.3-0.5,0.5C34.1,48.6,33.6,48.2,33.2,48.2z M40.8,47.6c0-0.6-0.3-1-0.9-1.2
			c-0.3-0.1-0.5,0-0.5,0.3c-0.1,0.5-0.2,1-0.2,1.5c0,0.3,0.1,0.4,0.3,0.4C40.2,48.9,40.8,48.4,40.8,47.6z M37.5,46.6
			c0-0.3-0.1-0.6-0.4-0.6c-0.5,0-0.2,0.5-0.3,0.7c-0.1,0.2,0,0.4,0.3,0.4C37.4,47.1,37.5,46.9,37.5,46.6z"/>
		<path class="st4" d="M22.6,47c0-0.3,0-0.6-0.1-0.9c0-0.1,0-0.3-0.2-0.3c-0.2,0-0.3,0.1-0.3,0.2c-0.1,0.5-0.4,0.9-0.4,1.4
			c-0.1,0-0.1,0,0,0.1c0,0.1-0.1,0.3-0.1,0.4c-0.1,0.1-0.2,0.1-0.1,0.2c-0.1,0.1,0,0.4-0.2,0.4c-0.3,0-0.3-0.2-0.3-0.4
			c-0.3-0.6-0.6-1.2-1-1.7c-0.1-0.1-0.2-0.5-0.4-0.1c-0.1,0.1-0.2,0-0.3,0c-0.2-0.1-0.3-0.1-0.5,0c-0.1,0.2-0.1,0.4,0,0.5
			c0.1,0.2,0.3,0.2,0.5,0.1c0.1,0,0.3-0.1,0.3,0.1c0,0.1,0.1,0.3,0,0.4c-0.1,0.2-0.2,0-0.3,0c-0.2,0-0.3,0-0.4,0.2
			c0,0.3-0.1,0.5,0.1,0.7c0.1,0.1,0.3,0.1,0.5,0c0.1-0.1,0.2-0.3,0.3-0.2c0.1,0,0.1,0.2,0.1,0.3c0,0.2-0.2,0.2-0.4,0.3
			c-1.1,0.2-1.1,0.2-1.2-0.9c0-0.4-0.1-0.9-0.2-1.3c0-0.1-0.1-0.3-0.2-0.3c-0.2,0-0.1,0.1-0.2,0.2c0,0.2-0.1,0.1-0.3,0.1
			c-0.6-0.2-0.7-0.1-0.6,0.5c0.1,0.6,0,1.3,0.5,1.8c0.1,0.1,0,0.2-0.1,0.2c-0.2,0-0.5,0.1-0.7,0.1c-0.3-0.1,0-0.3-0.1-0.5
			c-0.1-0.4-0.1-0.8-0.2-1.2c-0.1-0.9-0.2-0.9-0.9-0.4c-0.2-0.4-0.1-0.6,0.2-0.6c1.4-0.2,2.8-0.5,4.3-0.7c0.3-0.1,0.5,0,0.5,0.4
			c0.1,0.4,0.3,0.8,0.5,1.2c0,0.1,0.1,0.2,0.2,0.2c0.1,0,0.1-0.1,0.1-0.2c0.1-0.5,0.4-1,0.3-1.5c0-0.2,0.1-0.2,0.2-0.2
			c0,0,0.1,0,0.1,0c0.4,0,1-0.2,1.2,0.1c0.2,0.3,0.1,0.8,0.1,1.2c-0.1,0.3-0.2,0.5,0.1,0.8c0,0.1,0,0.3,0.1,0.4
			c-0.1,0.4-0.4,0.3-0.7,0.1c0-0.1,0-0.2,0.1-0.4C22.8,47.5,22.8,47.2,22.6,47z"/>
		<path class="st4" d="M15,46.8c-0.1,0-0.2,0-0.2-0.1c-0.2-0.2-0.5-0.2-0.6,0c-0.2,0.3-0.1,0.5,0.2,0.7c0.3,0.2,0.6,0.3,0.9,0.6
			c0.4,0.3,0.5,0.7,0.2,1.2c-0.2,0.5-0.7,0.7-1.2,0.6c-0.2,0-0.3-0.1-0.4-0.2c-0.1-0.1-0.1-0.3,0-0.4c0.2-0.1,0.2,0.1,0.2,0.1
			c0.2,0.3,0.5,0.3,0.7,0c0.2-0.3,0.3-0.5,0-0.8c-0.2-0.2-0.4-0.3-0.6-0.4c-0.4-0.3-0.7-0.6-0.7-1.1c0-0.5,0.4-0.7,0.8-0.8
			c0.4-0.2,0.6-0.5,0.7-1c0.1-0.8,0.2-1.5,0.3-2.3c0-0.2,0-0.4,0.2-0.4c0.2-0.1,0.3,0.2,0.4,0.4c0.4,0.6,0.8,1.2,1.2,1.8
			c0.1,0.2,0.4,1,0.7,0.1c0.1-0.2,0.2,0,0.3,0.1c0.3,0.2,0.5,0.2,0.7-0.1c0.2-0.3,0-0.5-0.3-0.6c-0.2-0.1-0.4-0.2-0.6-0.4
			c-0.3-0.2-0.5-0.6-0.3-1c0.2-0.4,0.6-0.6,1-0.5c0.3,0,0.4,0.2,0.3,0.4c-0.1,0.3-0.2,0.1-0.4,0c-0.2-0.1-0.4,0-0.5,0.2
			c-0.2,0.3,0.1,0.4,0.2,0.5c0.2,0.1,0.5,0.2,0.7,0.4c0.3,0.2,0.5,0.5,0.4,0.9c-0.1,0.4-0.4,0.6-0.8,0.7c-0.4,0-0.9,0.1-1.3,0.2
			c-0.3,0.1-0.4-0.1-0.6-0.3c-0.2-0.3-0.2-0.7-0.7-0.6c-0.5,0.1-0.7,0.4-0.5,1c0.1,0.2,0.1,0.4-0.2,0.4C14.8,46.1,15.2,46.6,15,46.8
			z M15.7,44.3c0.1,0,0.3-0.1,0.2-0.3c0-0.2-0.1-0.4-0.3-0.3c-0.2,0-0.1,0.2-0.1,0.4C15.5,44.2,15.5,44.3,15.7,44.3z"/>
		<path class="st4" d="M24.3,44.3c-0.6,0.3-1,0.3-1.2-0.3c-0.1-0.3-0.3-0.5-0.6-0.4c-0.3,0.1-0.4,0.4-0.3,0.7c0.1,0.3,0,0.4-0.2,0.4
			c-0.5,0-0.9,0.1-1.4,0.2c-0.2,0.1-0.4,0-0.3-0.3c0.1-0.8-0.1-1.5-0.3-2.3c0-0.1-0.2-0.2,0-0.3c0.2-0.1,0.4-0.1,0.7-0.1
			c0.1,0,0.1,0.2,0.1,0.3c-0.1,0.6,0.1,1.3,0.2,1.9c0,0.2,0.1,0.4,0.4,0.4c0.2,0,0.4-0.1,0.5-0.4c0.2-0.7,0.3-1.4,0.5-2.1
			c0-0.1,0.1-0.3,0.2-0.4c0.2,0,0.3,0.2,0.3,0.3c0.2,0.4,0.5,0.9,0.7,1.3C23.6,43.6,23.7,44.1,24.3,44.3z M22.7,43
			c0-0.1-0.1-0.3-0.2-0.3c-0.2,0-0.1,0.2-0.1,0.3c0,0.1,0,0.3,0.2,0.3C22.6,43.3,22.7,43.2,22.7,43z"/>
		<path class="st4" d="M30,45.1c0.1,0,0.3,0,0.4,0c0,0,0.1,0,0.1,0c0,0,0,0,0,0c0,0.1,0,0.2,0,0.4c0,0,0,0,0,0c0,0,0,0,0,0
			c0,0,0,0,0,0c0,0.5,0,1,0.4,1.4c0.2-0.5,0.4-0.9,0.6-1.3c0.1-0.1,0.1-0.4,0.3-0.4c0.2,0,0.2,0.2,0.3,0.4c0.1,0.4,0.3,0.8,0.4,1.3
			c0.3-0.5,0.5-0.9,0.5-1.3c-0.1-0.7,0.3-0.5,0.6-0.5c0.1,0,0.1,0,0.2,0.1c-0.5,0.7-0.7,1.6-1,2.4c-0.1,0.2-0.1,0.4-0.3,0.4
			c-0.2,0-0.2-0.3-0.2-0.4c-0.1-0.4-0.3-0.9-0.4-1.4c-0.4,0.4-0.4,1-0.7,1.4c-0.1,0.1-0.2,0.3-0.3,0.3c-0.2,0-0.2-0.2-0.2-0.4
			c-0.1-0.6-0.3-1.2-0.5-1.8c0,0,0-0.1-0.1-0.1c0-0.1,0-0.1-0.1-0.2c0-0.1,0-0.1-0.1-0.1c0,0-0.1-0.1-0.1-0.1c0-0.1,0-0.1,0-0.2
			c0,0,0.1,0,0.1,0C29.9,45.2,30,45.2,30,45.1z"/>
		<path class="st4" d="M26.9,48c0.6-0.5,0.7-1.2,0.9-1.8c0.2-0.4,0.3-0.8,0.4-1.2c0.1-0.2,0.1-0.4,0.3-0.4c0.2,0,0.2,0.2,0.3,0.4
			c0.3,0.7,0.5,1.4,0.8,2.1c0.1,0.2,0.1,0.5,0.4,0.6c0.1,0,0.2,0.1,0.1,0.2c0,0.1-0.1,0.1-0.2,0.1c-0.3,0-0.7,0.1-0.7-0.4
			c0-0.1-0.1-0.2-0.1-0.3c-0.1-0.3-0.2-0.6-0.7-0.5c-0.5,0-0.5,0.4-0.5,0.7C27.8,48.2,27.8,48.2,26.9,48z M28.4,45.8
			c-0.1,0.2-0.3,0.4-0.2,0.6c0.1,0.1,0.3,0.1,0.3,0C28.8,46.2,28.6,46,28.4,45.8z"/>
		<path class="st4" d="M33.4,42.3c-0.4-0.6-1.1-0.8-1.5-0.5c-0.5,0.3-0.6,1.2-0.2,1.7c0.5,0.6,1,0.6,1.7,0.1
			c0.2,0.3,0.1,0.6-0.2,0.7c-0.4,0.2-1.4,0-1.8-0.4c-0.5-0.4-0.6-1.1-0.4-1.8c0.3-0.8,1.6-1.2,2.4-0.7
			C33.6,41.6,33.6,41.8,33.4,42.3z"/>
		<path class="st4" d="M41,42.6c0.4,0,0.7,0.1,1,0.2c0.3,0.1,0.4,0.3,0.3,0.6c0,0.1,0,0.2-0.2,0.2c-0.1,0-0.1-0.1-0.2-0.2
			C41.7,43,41,42.8,40.6,43c-0.5,0.3-0.7,1.1-0.4,1.7c0.3,0.5,0.9,0.7,1.4,0.5c0.1,0,0.2-0.1,0.2-0.1c0.1,0.1,0,0.2,0,0.3
			c-0.1,0.2-0.2,0.3-0.4,0.3c-0.5,0.1-1.5-0.4-1.8-0.8c-0.3-0.5-0.3-1.3,0.1-1.8C40.1,42.7,40.5,42.5,41,42.6z"/>
		<path class="st4" d="M30.8,44.1c-0.6,0.1-0.9,0.1-1-0.5c0-0.3-0.3-0.5-0.6-0.5c-0.4,0.1-0.4,0.4-0.4,0.6c0,0.3-0.4,0.5-0.7,0.4
			c-0.1-0.1-0.1-0.1,0-0.2c0.5-0.6,0.6-1.4,1-2.1c0.1-0.2,0.1-0.6,0.4-0.6c0.2,0,0.2,0.3,0.3,0.5c0.1,0.3,0.3,0.7,0.4,1.1
			C30.3,43.3,30.4,43.7,30.8,44.1z M29.3,42.3c-0.1,0.1-0.2,0.2-0.2,0.3c0,0.1,0,0.2,0.2,0.2c0.1,0,0.2,0,0.2-0.1
			C29.5,42.6,29.5,42.4,29.3,42.3z"/>
		<path class="st4" d="M25.4,47.5c0.2,0.5,0,0.7-0.4,0.7c-0.3,0-0.7,0.1-0.9,0c-0.3-0.2,0-0.5-0.1-0.8c-0.2-0.6,0.1-1.3-0.3-1.9
			c-0.1-0.1,0.1-0.2,0.2-0.2c0.4,0,0.7,0,1.1,0c0.1,0,0.2,0,0.3,0.1c0,0.1,0,0.2,0,0.3c-0.1,0.1-0.2,0-0.3,0c-0.2-0.1-0.3-0.1-0.5,0
			c-0.1,0.2-0.1,0.4,0,0.6c0.1,0.2,0.2,0.2,0.4,0.1c0.6-0.1,0.4,0.2,0.4,0.6c-0.3,0-0.5-0.3-0.7,0c-0.1,0.2-0.1,0.6,0.1,0.8
			C24.9,48,25.2,47.8,25.4,47.5z"/>
		<path class="st4" d="M41.5,48.5c0.2,0.4,0.4,0.9,0.8,0.6c0.4-0.3,0-0.6-0.2-0.9c-0.1-0.1-0.2-0.2-0.3-0.4
			c-0.3-0.4-0.3-0.8,0.1-1.1c0.4-0.3,0.8-0.2,1.2,0c0.2,0.1,0.2,0.3,0.1,0.5c-0.2,0.2-0.2,0-0.3-0.1c-0.2-0.2-0.4-0.2-0.6-0.1
			c-0.2,0.2-0.1,0.4,0.1,0.6c0.2,0.3,0.5,0.5,0.6,0.8c0.1,0.4,0.1,0.8-0.3,1.1c-0.3,0.2-1,0.2-1.3-0.1C41.1,49,41.2,48.8,41.5,48.5z
			"/>
		<path class="st4" d="M36.4,44.1c0,0.1,0,0.1,0,0.2c0,0.2,0.3,0.3,0,0.4c-0.2,0.1-0.4,0-0.7-0.1c-0.2,0-0.1-0.2,0-0.3
			c0.2-0.8,0.5-1.6,0.2-2.4c-0.1-0.2,0.1-0.2,0.2-0.2c0.4,0.1,0.8,0.1,1.2,0.2c0.2,0,0.3,0.2,0.2,0.4c-0.1,0.3-0.2,0.2-0.4,0.1
			c-0.1-0.1-0.3-0.2-0.5-0.1c-0.2,0.1-0.2,0.4-0.1,0.6c0,0.3,0.3,0.2,0.5,0.2c0.1,0,0.3,0,0.4,0.2c0,0.1,0,0.2-0.1,0.3
			c-0.2,0.2-0.2,0-0.4-0.1C36.6,43.3,36.4,43.5,36.4,44.1z"/>
		<path class="st4" d="M26.6,43.7c0,0.1,0.1,0.1,0.1,0.2c-0.2,0.1-0.4,0.1-0.5,0.3c-0.1,0-0.1,0-0.2,0c-0.1-0.5,0.3-0.9-0.1-1.4
			c0-0.3,0-0.7,0-1c0.1-0.1,0.1-0.2,0-0.2c0-0.2,0-0.3,0-0.5c0-0.1,0-0.1-0.1-0.1c0,0,0,0,0,0c0-0.3,0.4-0.2,0.5-0.3
			c0.1,0,0.2,0,0.2,0c0.2,0.2,0.4,0.1,0.7,0.1c0,0,0.1,0,0.1,0c0,0.1,0,0.1,0.1,0c0,0,0.1,0.1,0.1,0.1c0,0,0.1,0.1,0.1,0.1
			c0,0.1,0.1,0.1,0.1,0.2c0,0.2-0.1,0.4,0,0.6c-0.1,0.3-0.3,0.5-0.5,0.7c0,0-0.1,0-0.1,0c-0.1,0-0.2,0.1-0.3,0.1
			C26.4,42.8,26.3,43.2,26.6,43.7z M26.6,41.2c0,0-0.1,0-0.1,0c0,0,0,0.1,0,0.1c0,0.4,0,0.7,0,1.1c0.2,0.4,0.3,0.1,0.5,0
			C27.4,41.7,27.3,41.3,26.6,41.2z"/>
		<path class="st4" d="M38.4,42.5c0-0.2-0.2-0.4,0.1-0.4c0.2,0,0.4,0,0.5,0.1c0.1,0,0.1,0.1,0.1,0.3c-0.3,0.8-0.5,1.6-0.3,2.4
			c0,0.1,0,0.2-0.1,0.2c-0.2,0-0.5,0-0.7-0.1c-0.1-0.1,0-0.1,0-0.2C38.3,44,38.2,43.3,38.4,42.5z"/>
		<path class="st4" d="M34.9,44.4c-0.2,0.2-0.5,0-0.7,0c-0.2,0-0.2-0.1-0.1-0.3c0.3-0.8,0.3-1.7,0.2-2.6c0.2-0.1,0.3,0,0.5,0
			c0.2,0,0.3,0.1,0.2,0.4c-0.2,0.6-0.2,1.3-0.3,1.9C34.7,44.1,34.9,44.2,34.9,44.4z"/>
		<path class="st8" d="M24.6,42.9c-0.2-0.1-0.6,0.1-0.5-0.2c0.1-0.3,0.5-0.1,0.7-0.2c0.2-0.1,0.3,0,0.3,0.2
			C25.1,43,24.7,42.7,24.6,42.9z"/>
		<path class="st6" d="M26,42.9c0.4,0.4,0,0.9,0.1,1.4c-0.2,0-0.3,0-0.2-0.2C26,43.7,25.9,43.3,26,42.9z"/>
		<path class="st6" d="M22.6,48.1c0.3,0.1,0.5,0.3,0.7-0.1c0.1,0,0.3,0.2,0.1,0.3c-0.3,0.2-0.6,0.3-0.9,0.1
			C22.4,48.3,22.4,48.2,22.6,48.1z"/>
		<path class="st6" d="M26.6,43.7c-0.3-0.5-0.2-0.9,0.2-1C26.4,43,26.7,43.4,26.6,43.7z"/>
		<path class="st6" d="M26.2,44.3c0.1-0.2,0.3-0.2,0.5-0.3c0.3,0.1,0.3,0.2,0.1,0.3C26.6,44.4,26.4,44.3,26.2,44.3z"/>
		<path class="st6" d="M22.6,47c0.2,0.2,0.2,0.5,0.1,0.8C22.6,47.5,22.5,47.3,22.6,47z"/>
		<path class="st6" d="M23.2,47.6c-0.3-0.2-0.2-0.5-0.1-0.8C23.1,47.1,23.3,47.3,23.2,47.6z"/>
		<path class="st6" d="M26.3,40.8c-0.1,0.2-0.5,0-0.5,0.3c-0.3-0.1-0.3-0.2,0-0.3C25.9,40.8,26.1,40.8,26.3,40.8z"/>
		<path class="st6" d="M27.8,41.9c-0.1-0.2-0.1-0.4,0-0.6C27.9,41.5,27.9,41.7,27.8,41.9z"/>
		<path class="st6" d="M27.2,40.8c-0.2,0-0.5,0.1-0.7-0.1C26.7,40.8,27,40.7,27.2,40.8z"/>
		<path class="st9" d="M7.6,44.1c0-0.1,0-0.2,0.1-0.2c0.1,0,0.1,0.1,0.1,0.1C7.8,44.1,7.7,44.1,7.6,44.1z"/>
		<path class="st6" d="M21.4,48.1c-0.1-0.1,0-0.2,0.1-0.2C21.5,48,21.5,48.1,21.4,48.1z"/>
		<path class="st6" d="M30.6,45.5c0-0.1,0-0.2,0-0.4C30.7,45.3,30.7,45.4,30.6,45.5z"/>
		<path class="st6" d="M25.9,41.7c0.1,0.1,0.1,0.1,0,0.2C25.9,41.9,25.9,41.8,25.9,41.7z"/>
		<path class="st6" d="M29.8,45.2c0,0.1,0,0.1,0,0.2C29.6,45.2,29.7,45.2,29.8,45.2z"/>
		<path class="st6" d="M30,45.1c0,0-0.1,0-0.1,0C29.9,45.1,29.9,45.1,30,45.1z"/>
		<path class="st6" d="M30.6,45.2c0,0-0.1,0-0.1,0C30.5,45.1,30.5,45.1,30.6,45.2z"/>
		<path class="st6" d="M27.2,42.7c0,0,0.1,0,0.1,0C27.3,42.7,27.2,42.7,27.2,42.7z"/>
		<path class="st6" d="M27.4,40.9C27.3,41,27.3,41,27.4,40.9C27.4,40.9,27.4,40.9,27.4,40.9z"/>
		<path class="st6" d="M27.6,41.1c0,0-0.1-0.1-0.1-0.1C27.6,41.1,27.6,41.1,27.6,41.1z"/>
		<path class="st6" d="M21.6,47.5c0-0.1,0-0.1,0-0.1C21.6,47.4,21.6,47.4,21.6,47.5z"/>
		<path class="st6" d="M25.8,41.2c0.1,0,0.1,0,0.1,0.1C25.9,41.2,25.8,41.2,25.8,41.2z"/>
		<path class="st6" d="M30,45.7c0,0,0,0.1,0.1,0.1C30.1,45.8,30,45.8,30,45.7z"/>
		<path class="st6" d="M30.6,45.6C30.6,45.6,30.6,45.6,30.6,45.6C30.6,45.6,30.6,45.6,30.6,45.6C30.6,45.6,30.6,45.6,30.6,45.6z"/>
		<path class="st6" d="M29.9,45.4c0.1,0,0.1,0,0.1,0.1C29.9,45.5,29.9,45.5,29.9,45.4z"/>
		<path class="st3" d="M11.9,51.3c0.6,0,1.2-0.2,1.8-0.4c3.6-0.9,7.3-1.5,11.1-1.8c6.1-0.4,12.1,0.1,18.1,1.6
			c0.9,0.2,1.8,0.4,2.6,0.8c-0.3,0.8-0.4,0.8-1.2,0.6c-1.4-0.5-2.8-0.8-4.2-1c-1.1-0.2-2.1-0.5-3.2-0.6c-0.2,0-0.4-0.1-0.5,0
			c-0.1,0-0.3,0-0.4,0c-0.1-0.2-0.3-0.1-0.5-0.1c-0.1,0-0.3,0-0.4,0c-0.2-0.2-0.4-0.1-0.6-0.1c-0.1,0-0.2,0-0.3,0
			c-0.1-0.1-0.2-0.1-0.3,0c-0.2,0-0.4,0-0.6,0c0,0-0.1,0-0.1,0c-0.1,0-0.1,0-0.2,0c-0.3-0.2-0.5-0.1-0.8-0.1c-0.1,0-0.2,0-0.3,0
			c-0.1,0-0.1,0-0.2,0c-0.3,0-0.5,0-0.8,0.1c-0.3-0.1-0.5-0.1-0.8,0c-0.8,0-1.6,0-2.5,0c-0.2-0.2-0.5-0.1-0.7,0
			c-0.4-0.1-0.8-0.1-1.2,0c-0.1-0.1-0.2-0.1-0.2,0c-0.1,0-0.3,0-0.4,0c-0.4-0.1-0.8,0-1.2,0.1c-1.1,0.1-2.2,0.2-3.3,0.5
			c-0.9-0.1-1.7,0.2-2.5,0.4c-0.9,0.2-1.9,0.3-2.8,0.6c-0.5,0.1-1,0.3-1.5,0.5C12.7,52.3,12.5,52.3,11.9,51.3z"/>
		<path class="st3" d="M36.4,20c0.1-0.6,0.5-1.2,0.8-1.8c0.5-1.1,1.1-2.2,1.6-3.3c0.1-0.2,0.2-0.6,0.5-0.4c0.3,0.2,0.6,0.4,0.4,0.9
			c-0.5,0.9-0.9,1.8-1.4,2.7c-0.4,0.7-0.8,1.5-1.2,2.2c-0.1,0.2-0.1,0.5-0.4,0.4C36.4,20.6,36.4,20.3,36.4,20z"/>
		<path class="st3" d="M35.1,18.3c0.2-0.6,0.4-1.3,0.6-1.9c0.4-1,0.7-2,1.1-3.1c0.1-0.2,0.1-0.6,0.4-0.4c0.3,0.2,0.7,0.2,0.6,0.7
			c0,0.2-0.1,0.3-0.2,0.5c-0.6,1.4-1.1,2.8-1.7,4.2c0,0.1,0,0.1-0.1,0.2c-0.1,0.2-0.2,0.6-0.5,0.5C35.1,19,35.1,18.6,35.1,18.3z"/>
		<path class="st3" d="M21.1,19.8c0,0.3,0,0.5-0.2,0.6c-0.3,0.1-0.3-0.2-0.4-0.3c-0.6-1-1.2-2.1-1.7-3.2c-0.2-0.4-0.5-0.9-0.7-1.3
			c-0.2-0.5-0.1-1,0.4-1.2c0.2-0.1,0.3,0,0.3,0.1c0.8,1.7,1.6,3.3,2.4,5C21.1,19.6,21.1,19.8,21.1,19.8z"/>
		<path class="st3" d="M41.5,16.8c-0.1,0.2-0.2,0.4-0.3,0.5c-1,1.5-2,2.9-3,4.4c-0.1,0.2-0.3,0.6-0.6,0.4c-0.4-0.2-0.2-0.6,0-0.8
			c0.6-1,1.2-2.1,1.8-3.1c0.3-0.6,0.7-1.1,1-1.7c0.1-0.1,0.1-0.4,0.4-0.3C41.1,16.2,41.3,16.5,41.5,16.8z"/>
		<path class="st3" d="M22.4,18c0,0.2,0,0.3,0,0.3c0,0.3-0.2,0.4-0.4,0.5c-0.2,0.1-0.3-0.2-0.4-0.4c-0.3-0.7-0.6-1.4-0.8-2.1
			c-0.3-0.8-0.6-1.6-0.9-2.4c-0.1-0.4,0.3-1,0.7-1c0.1,0,0.2,0.1,0.2,0.2c0.5,1.5,1.1,3,1.6,4.5C22.4,17.8,22.4,18,22.4,18z"/>
		<path class="st3" d="M20,21.4c0,0.2-0.1,0.3-0.3,0.4c-0.2,0.1-0.3-0.1-0.4-0.2c-0.8-1.1-1.5-2.3-2.3-3.4c-0.2-0.3-0.5-0.7-0.7-1
			c-0.2-0.4,0-0.9,0.4-1c0.2-0.1,0.3,0.1,0.4,0.3c0.6,1,1.3,2.1,1.9,3.2c0.3,0.5,0.6,1,0.8,1.5C19.9,21.3,20,21.4,20,21.4z"/>
		<path class="st3" d="M33.6,16.3c0.1-1,0.5-2.1,0.7-3.2c0-0.3,0.1-0.5,0.2-0.8c0.1-0.4,0.3-0.6,0.7-0.4c0.5,0.2,0.5,0.4,0.4,0.9
			c-0.4,1.3-0.8,2.6-1.2,3.9c-0.1,0.2-0.1,0.6-0.4,0.5C33.8,17.1,33.6,16.8,33.6,16.3z"/>
		<path class="st3" d="M38.8,23.4c-0.3-0.1-0.3-0.2-0.2-0.5c0.2-0.4,0.4-0.7,0.6-1c0.9-1.2,1.8-2.4,2.8-3.6c0.1-0.2,0.3-0.5,0.5-0.2
			c0.2,0.2,0.5,0.5,0.2,0.9c-0.5,0.5-0.9,1.1-1.3,1.7c-0.7,0.8-1.3,1.7-2.1,2.5C39,23.2,38.9,23.4,38.8,23.4z"/>
		<path class="st3" d="M15.4,18c0.1,0,0.2,0.1,0.3,0.2c1,1.3,2,2.6,2.9,3.9c0.2,0.3,0.6,0.6,0.2,0.9c-0.4,0.3-0.6-0.2-0.8-0.4
			c-1-1.2-2-2.4-3-3.6C14.8,18.8,15.2,18.1,15.4,18z"/>
		<path class="st3" d="M23.9,15.9c0,0.2,0,0.3,0,0.3c-0.1,0.2-0.2,0.6-0.5,0.6c-0.3,0-0.3-0.3-0.4-0.5c-0.4-1.2-0.7-2.5-1.1-3.8
			c-0.2-0.6,0.4-0.6,0.7-0.7C23,11.7,23,12,23,12.2c0.3,1.1,0.5,2.2,0.8,3.3C23.9,15.7,23.9,15.8,23.9,15.9z"/>
		<path class="st3" d="M35.9,34c0.9-0.5,1.9-0.7,2.8-0.9c1.6-0.4,3.2-0.9,4.8-1.3c0.2,0,0.5-0.2,0.5,0.1c0,0.3-0.1,0.6-0.5,0.7
			c-0.7,0.1-1.4,0.3-2,0.4c-1.5,0.3-3,0.6-4.6,1C36.6,34.1,36.3,34.2,35.9,34z"/>
		<path class="st3" d="M43.7,20.6c0,0.2-0.1,0.3-0.2,0.4c-1.1,1.1-2.3,2.3-3.4,3.4c-0.2,0.2-0.4,0.4-0.6,0.2c-0.3-0.2,0-0.5,0.1-0.6
			c0.7-0.8,1.4-1.6,2.1-2.4c0.4-0.4,0.8-0.9,1.2-1.3c0.1-0.1,0.2-0.4,0.5-0.3C43.6,20.1,43.6,20.4,43.7,20.6z"/>
		<path class="st3" d="M36.9,32.9c0.7-0.4,1.3-0.7,2-0.9c1.7-0.6,3.4-1.3,5.1-1.9c0.2-0.1,0.5-0.3,0.6,0c0.1,0.3,0,0.6-0.4,0.8
			c-1.2,0.4-2.4,0.8-3.5,1.1c-1,0.3-1.9,0.6-2.9,0.9C37.4,33,37.2,33.1,36.9,32.9z"/>
		<path class="st3" d="M21.1,33.9c-0.4,0.2-0.8,0-1.2,0c-1.9-0.4-3.7-0.8-5.5-1.2c-0.2,0-0.3-0.1-0.4-0.2c-0.1-0.2-0.3-0.4-0.1-0.6
			c0.1-0.2,0.3,0,0.5,0c1.8,0.5,3.6,1,5.4,1.5C20.2,33.5,20.7,33.6,21.1,33.9z"/>
		<path class="st3" d="M21.4,35c-2-0.2-3.9-0.3-5.9-0.5c-0.4,0-0.8-0.1-0.9-0.6c-0.1-0.3,0-0.4,0.3-0.3c1.8,0.3,3.6,0.6,5.4,0.9
			c0.4,0.1,0.8,0.1,1.2,0.2c0.1,0,0.3,0.1,0.3,0.3C21.7,35.1,21.5,35,21.4,35z"/>
		<path class="st3" d="M14.4,20c0.1,0.1,0.2,0.1,0.2,0.2c1,1.2,2.1,2.3,3.1,3.5c0.2,0.2,0.4,0.4,0.1,0.7c-0.2,0.2-0.5,0-0.6-0.2
			c-1-1-2-2-3.1-3.1c-0.2-0.2-0.2-0.5-0.1-0.7C14.2,20.2,14.2,20.1,14.4,20z"/>
		<path class="st3" d="M20.4,32.8c-0.7,0.2-1.1-0.1-1.5-0.3c-1.7-0.5-3.4-1.1-5.1-1.7c-0.2-0.1-0.4-0.1-0.4-0.3
			c-0.1-0.2-0.2-0.4-0.1-0.5c0.1-0.2,0.3,0,0.5,0c1.8,0.7,3.7,1.4,5.5,2.1C19.6,32.3,19.9,32.6,20.4,32.8z"/>
		<path class="st3" d="M44.9,26.5c0,0.2,0,0.4-0.3,0.6c-1.6,0.9-3.3,1.8-4.9,2.7c-0.1,0.1-0.4,0.3-0.5,0.1c-0.1-0.2,0.2-0.3,0.3-0.5
			c1.5-1.2,3.3-2.1,4.9-3.2C44.8,25.9,44.9,26.1,44.9,26.5z"/>
		<path class="st3" d="M38.2,31.4c0.3-0.5,0.8-0.7,1.2-0.9c1.6-0.8,3.2-1.6,4.8-2.3c0.2-0.1,0.3-0.3,0.5,0c0.1,0.2,0.1,0.4-0.1,0.6
			c-0.1,0.1-0.2,0.1-0.3,0.2c-1.9,0.8-3.7,1.8-5.7,2.4C38.6,31.5,38.4,31.6,38.2,31.4z"/>
		<path class="st3" d="M44.4,22.6c0,0.2-0.1,0.3-0.2,0.4c-1.1,0.9-2.1,1.8-3.2,2.7c-0.2,0.2-0.4,0.4-0.7,0.1c-0.2-0.3,0-0.5,0.2-0.7
			c1-1,2.1-1.9,3.2-2.9c0.1-0.1,0.2-0.4,0.5-0.3C44.4,22.1,44.3,22.4,44.4,22.6z"/>
		<path class="st3" d="M18.8,31.2c-0.5,0.1-1-0.1-1.5-0.4c-1.3-0.7-2.6-1.1-3.9-1.7c-0.1-0.1-0.3-0.1-0.3-0.2
			c-0.2-0.2-0.2-0.5-0.1-0.7c0.1-0.2,0.3,0,0.5,0.1c1.3,0.6,2.6,1.2,3.8,1.9C17.8,30.4,18.4,30.7,18.8,31.2z"/>
		<path class="st3" d="M33.3,11.7c-0.2,1-0.4,2-0.6,3c-0.1,0.2-0.2,0.3-0.4,0.1c-0.4-0.3-0.5-0.7-0.5-1.1c0.1-0.7,0.2-1.4,0.3-2.1
			c0-0.3,0-0.7,0.5-0.6C33,11.1,33.4,11.2,33.3,11.7z"/>
		<path class="st3" d="M13.7,22.1c0.1,0.1,0.2,0.1,0.3,0.2c0.9,0.9,1.9,1.7,2.8,2.6c0.1,0.1,0.2,0.2,0.2,0.3
			c0.1,0.2,0.2,0.3,0.1,0.5c-0.2,0.2-0.4,0.1-0.5,0c-0.6-0.5-1.3-1-1.9-1.5c-0.4-0.3-0.7-0.6-1.1-0.9c-0.2-0.2-0.2-0.8,0-1
			C13.5,22.1,13.6,22.1,13.7,22.1z"/>
		<path class="st3" d="M35.8,34.8c1-0.5,2-0.4,2.9-0.6c1.3-0.3,2.5-0.4,3.8-0.6c0.2,0,0.5-0.2,0.6,0.1c0.1,0.3-0.1,0.7-0.6,0.7
			c-0.4,0-0.9,0.1-1.3,0.1c-1.6,0-3.3,0.2-4.9,0.4C36.2,34.9,36.1,35,35.8,34.8z"/>
		<path class="st3" d="M44.8,24.5c0,0.2-0.1,0.4-0.3,0.5c-1.1,0.7-2.1,1.5-3.2,2.2c-0.1,0.1-0.4,0.3-0.5,0.1c-0.2-0.2,0-0.5,0.2-0.6
			c0.9-0.8,1.9-1.4,2.8-2.2c0.2-0.1,0.3-0.3,0.5-0.4c0.1-0.1,0.2-0.2,0.4-0.2C44.8,24.1,44.8,24.3,44.8,24.5z"/>
		<path class="st3" d="M35.4,35.5c0.2,0,0.5-0.1,0.7-0.1c1.1,0,2.3-0.2,3.4-0.1c0.8,0,1.5-0.1,2.2-0.1c0.2,0,0.5-0.2,0.5,0.2
			c0,0.3-0.2,0.6-0.6,0.6c-0.5,0-0.9,0.1-1.4,0c-0.7-0.1-1.3-0.1-2-0.1c-1,0-1.9-0.1-2.9-0.1C35.4,35.6,35.4,35.6,35.4,35.5z"/>
		<path class="st3" d="M17.3,29.3c-1.2-0.4-2.2-1.1-3.3-1.7c-0.3-0.2-0.6-0.4-0.9-0.5c-0.2-0.1-0.3-0.2-0.3-0.5
			c0-0.1-0.1-0.3,0.1-0.4c0.2-0.1,0.3,0,0.4,0.1c1.3,0.7,2.5,1.4,3.7,2.4C17.2,28.8,17.3,29,17.3,29.3z"/>
		<path class="st3" d="M22.1,35.7c-0.6,0.1-1.2,0.1-1.7,0.1c-1.4,0-2.7,0.2-4.1,0.1c-0.1,0-0.2,0-0.3,0c-0.3-0.1-0.5-0.3-0.5-0.6
			c0-0.3,0.3-0.2,0.5-0.2c1.8,0.1,3.6,0.1,5.5,0.2C21.7,35.4,21.9,35.4,22.1,35.7z"/>
		<path class="st3" d="M25.7,13.2c0.1,0.4-0.1,0.8-0.4,1.2c-0.2,0.2-0.4,0.3-0.4-0.1c-0.2-0.9-0.4-1.8-0.5-2.6
			c-0.1-0.6,0.4-0.5,0.7-0.6c0.4-0.1,0.4,0.2,0.4,0.4C25.6,12,25.7,12.6,25.7,13.2z"/>
		<path class="st3" d="M16.5,26.9c0,0.3-0.1,0.5-0.4,0.3c-1-0.7-2.1-1.4-3.1-2.1c-0.3-0.2-0.2-0.5-0.1-0.8c0.2-0.3,0.4,0,0.5,0.1
			c0.9,0.6,1.8,1.3,2.6,1.9C16.3,26.4,16.6,26.6,16.5,26.9z"/>
		<path class="st3" d="M22.7,36.2c0,0.1-0.1,0.2-0.3,0.2c-1.3,0.2-2.7,0.5-4,0.7c-0.4,0.1-0.8,0.1-1.2,0.2c-0.1,0-0.2,0.1-0.3,0
			c-0.2-0.1-0.5-0.3-0.5-0.5c0-0.2,0.3-0.2,0.5-0.2c0.7-0.1,1.5-0.2,2.2-0.2c1-0.1,2.1-0.2,3.1-0.3C22.5,36.1,22.6,36,22.7,36.2z"/>
		<path class="st3" d="M34.7,36.1c0.8-0.2,1.7,0,2.5,0.1c1.1,0.1,2.2,0.2,3.2,0.3c0,0,0.1,0,0.1,0c0.2,0.1,0.7,0,0.7,0.2
			c0,0.3-0.4,0.5-0.7,0.4c-0.5-0.1-1.1-0.1-1.6-0.2c-1.4-0.2-2.8-0.5-4.2-0.7C34.7,36.2,34.7,36.2,34.7,36.1z"/>
		<path class="st3" d="M23.1,36.8c-0.5,0.4-0.9,0.4-1.3,0.5c-1.2,0.3-2.4,0.6-3.6,1c-0.2,0-0.3,0.1-0.5-0.1
			c-0.2-0.2-0.2-0.4,0.1-0.4c1.6-0.3,3.3-0.8,4.9-1C22.8,36.7,22.9,36.8,23.1,36.8z"/>
		<path class="st3" d="M34.5,36.6c0.6-0.1,1.1,0.2,1.7,0.3c1.2,0.2,2.3,0.5,3.5,0.7c0.2,0,0.5,0,0.4,0.4c-0.1,0.3-0.3,0.3-0.6,0.2
			c-1.1-0.3-2.1-0.6-3.2-0.8c-0.6-0.1-1.2-0.4-1.8-0.6C34.5,36.7,34.5,36.7,34.5,36.6z"/>
		<path class="st3" d="M34.1,37.2c0.1-0.1,0.2-0.1,0.3-0.1c1.5,0.5,2.9,0.9,4.4,1.4c0.1,0,0.5,0,0.4,0.3c-0.1,0.2-0.3,0.2-0.6,0.1
			c-1.1-0.4-2.3-0.8-3.4-1.3C34.8,37.5,34.4,37.5,34.1,37.2z"/>
		<path class="st3" d="M23.2,37.3c-0.9,0.5-1.8,0.9-2.7,1.2c-0.5,0.2-1,0.4-1.5,0.5c-0.2,0.1-0.3,0-0.4-0.2
			c-0.1-0.2,0.1-0.3,0.2-0.3c1.4-0.4,2.8-1,4.2-1.3C23.1,37.3,23.2,37.3,23.2,37.3z"/>
		<path class="st3" d="M30.8,11.2c0,0,0,0.2-0.1,0.3c-0.1,0.3,0.1,0.7-0.3,0.9c-0.2,0.1-0.9-1.1-0.8-1.4c0.2-0.4,0.5-0.2,0.8-0.2
			C30.7,10.6,30.8,10.8,30.8,11.2z"/>
		<path class="st3" d="M27.5,10.7c0.2,0,0.4-0.1,0.5,0.2c0.1,0.2-0.1,0.3-0.2,0.5c-0.1,0.1-0.1,0.1-0.1,0.2
			c-0.1,0.2-0.3,0.6-0.5,0.5c-0.2-0.2-0.2-0.6-0.2-0.9C26.9,10.6,27.2,10.7,27.5,10.7z"/>
		<path class="st4" d="M27.2,12.9c-0.4,0.5-0.6,1-1.1,1.4c-0.3-0.6,0.3-0.9,0.5-1.3C26.7,12.9,26.9,12.7,27.2,12.9z"/>
		<path class="st4" d="M25.9,14.6C25.9,14.7,25.9,14.7,25.9,14.6C25.8,14.7,25.9,14.6,25.9,14.6z"/>
		<path class="st3" d="M28.8,15.7c-0.1,0.5,0.3,0.8,0.6,1.1c0.7,1.2,1.4,2.3,2.3,3.4c0.1,0.1,0.2,0.2,0.1,0.4
			c-0.1,0.2-0.3,0.2-0.4,0.2c-1.7,0-3.4,0-5.1,0c-0.1,0-0.3,0-0.4,0c-0.3,0-0.4,0.1-0.3,0.5c0.1,0.1,0.2,0.2,0,0.4
			c-0.2,0.1-0.3,0-0.4-0.1c-0.1-0.1-0.2-0.3-0.4-0.4c0-0.1-0.1-0.1-0.1-0.2c0.1-0.1,0.1-0.3,0-0.4c0,0,0,0,0,0
			c0.2,0,0.4,0.4,0.6-0.1c1.1-1.6,2.1-3.2,3.2-4.7C28.5,15.7,28.6,15.7,28.8,15.7C28.8,15.6,28.8,15.7,28.8,15.7z"/>
		<path class="st6" d="M25.1,20.4c-0.2,0.4-0.4,0-0.6,0.1C24.7,20.1,24.9,20.5,25.1,20.4z"/>
		<path class="st6" d="M28.8,15.6c-0.1,0-0.2,0.1-0.4,0.1c0-0.1,0-0.3,0.2-0.3C28.7,15.4,28.8,15.5,28.8,15.6z"/>
		<path class="st6" d="M24.5,20.4c0,0.1,0,0.3,0,0.4C24.3,20.7,24.3,20.6,24.5,20.4z"/>
		<path class="st6" d="M32.1,16.8c0.4,0.4,0.8,0.8,1,1.3c-0.1,0-0.2,0-0.4,0l0,0c0-0.2,0-0.4-0.3-0.5c0,0,0,0,0,0
			c0-0.3-0.1-0.5-0.3-0.6l0,0C32,17,32,16.9,32.1,16.8C32,16.8,32.1,16.8,32.1,16.8z"/>
		<path class="st3" d="M33.4,18.5c0,0.1,0.1,0.1,0.1,0.2"/>
		<path class="st3" d="M30.1,14.6c-0.2-0.1-0.4-0.2-0.4-0.5c0.2-0.1,0.3,0.1,0.4,0c0,0,0,0.1,0,0.1C30.1,14.4,30.1,14.5,30.1,14.6
			L30.1,14.6z"/>
		<path class="st3" d="M32.7,18.1c0.1,0,0.2,0,0.4,0c0,0,0,0.1,0,0.1c0,0.1-0.1,0.3-0.1,0.3C32.8,18.4,32.7,18.3,32.7,18.1z"/>
		<path class="st6" d="M35.5,21.2c0.1,0.1,0.3,0.2,0.3,0.5c-0.1,0-0.2,0-0.4,0l0,0C35.4,21.6,35.4,21.4,35.5,21.2
			C35.4,21.3,35.4,21.3,35.5,21.2z"/>
		<path class="st6" d="M35.1,20.9c0.2,0.1,0.3,0.2,0.3,0.4c0,0,0,0-0.1,0.1c-0.1,0-0.2,0-0.3,0l0,0C35.1,21.2,35.1,21,35.1,20.9
			C35.1,20.9,35.1,20.9,35.1,20.9z"/>
		<path class="st3" d="M35.4,21.7c0.1,0,0.2,0,0.4,0c0,0,0,0.1,0,0.1c-0.1,0.1-0.1,0.2-0.2,0.2C35.5,22,35.4,21.9,35.4,21.7z"/>
		<path class="st3" d="M29.1,13c0.2,0.2,0.4,0.3,0.4,0.6C29.1,13.4,29.1,13.4,29.1,13z"/>
		<path class="st3" d="M32,17.1c0.2,0.1,0.4,0.3,0.3,0.6C32.1,17.5,32,17.4,32,17.1z"/>
		<path class="st3" d="M35.1,21.3c0.1,0,0.2,0,0.3,0c0,0.1,0,0.3,0,0.4C35.2,21.6,35.1,21.5,35.1,21.3z"/>
		<path class="st3" d="M35.1,20.9c0,0.1,0,0.2,0,0.3c-0.2-0.1-0.3-0.2-0.3-0.5c0,0,0,0,0,0C34.8,20.9,35,20.9,35.1,20.9z"/>
		<path class="st3" d="M32.4,17.7c0.3,0,0.4,0.2,0.3,0.5C32.5,18,32.4,17.9,32.4,17.7z"/>
		<path class="st3" d="M34.1,19.9c0.1,0,0.3,0,0.3,0.2c0,0.1,0,0.1-0.1,0.1C34.1,20.2,34.1,20.1,34.1,19.9L34.1,19.9z"/>
		<path class="st3" d="M31.4,16.3c0.1,0,0.3,0,0.3,0.2c0,0.1,0,0.1-0.1,0.1C31.4,16.6,31.4,16.4,31.4,16.3L31.4,16.3z"/>
		<path class="st3" d="M38.3,25.6c-0.2,0-0.3-0.1-0.3-0.3l0,0C38.2,25.2,38.3,25.3,38.3,25.6C38.4,25.6,38.3,25.6,38.3,25.6z"/>
		<path class="st3" d="M37.3,24.2c-0.1,0-0.3,0-0.3-0.2c0-0.1,0-0.1,0.1-0.1C37.3,23.9,37.3,24.1,37.3,24.2L37.3,24.2z"/>
		<path class="st3" d="M38,25.2c-0.1-0.1-0.2-0.2-0.2-0.4C38.1,24.9,38,25.1,38,25.2C38,25.2,38,25.2,38,25.2z"/>
		<path class="st3" d="M34.7,20.8c-0.1-0.1-0.3-0.2-0.2-0.4C34.8,20.5,34.7,20.7,34.7,20.8C34.7,20.8,34.7,20.8,34.7,20.8z"/>
		<path class="st3" d="M37.3,24.2c0.1,0.1,0.2,0.2,0.2,0.4C37.3,24.6,37.4,24.3,37.3,24.2C37.3,24.2,37.3,24.2,37.3,24.2z"/>
		<path class="st3" d="M30.7,15.4c-0.1-0.1-0.2-0.1-0.2-0.2c0,0,0.1-0.1,0.1,0C30.7,15.2,30.7,15.3,30.7,15.4L30.7,15.4z"/>
		<path class="st3" d="M30.1,14.6c0.1,0,0.2,0,0.2,0.2c0,0,0,0.1-0.1,0.1C30.1,14.8,30.1,14.7,30.1,14.6L30.1,14.6z"/>
		<path class="st3" d="M36.4,23c0.1,0.1,0.2,0.1,0.2,0.2c0,0-0.1,0.1-0.1,0C36.4,23.2,36.4,23.1,36.4,23L36.4,23z"/>
		<path class="st3" d="M34.1,19.9c-0.1-0.1-0.2-0.1-0.2-0.2c0,0,0.1-0.1,0.1,0C34.1,19.7,34,19.8,34.1,19.9
			C34.1,19.9,34.1,19.9,34.1,19.9z"/>
		<path class="st3" d="M36.4,23c-0.1,0-0.2,0-0.2-0.2c0,0,0-0.1,0.1-0.1C36.4,22.7,36.4,22.9,36.4,23L36.4,23z"/>
		<path class="st3" d="M32,16.9c0,0.1,0,0.1,0,0.2c-0.1,0-0.2,0-0.2-0.2C31.8,16.8,31.9,16.9,32,16.9z"/>
		<path class="st3" d="M40.8,47.6c0,0.8-0.6,1.3-1.3,1.1c-0.2-0.1-0.4-0.2-0.3-0.4c0.1-0.5,0.2-1,0.2-1.5c0.1-0.3,0.2-0.4,0.5-0.3
			C40.5,46.6,40.8,47,40.8,47.6z"/>
		<path class="st3" d="M37.5,46.6c0,0.3-0.1,0.5-0.5,0.5c-0.2,0-0.3-0.2-0.3-0.4c0.1-0.2-0.2-0.7,0.3-0.7
			C37.5,46,37.6,46.3,37.5,46.6z"/>
		<path class="st6" d="M15.7,44.3c-0.2,0-0.2-0.1-0.2-0.2c0-0.1-0.1-0.3,0.1-0.4c0.2,0,0.3,0.2,0.3,0.3C16,44.2,15.9,44.2,15.7,44.3
			z"/>
		<path class="st6" d="M22.7,43c0,0.1-0.1,0.2-0.2,0.2c-0.2,0-0.2-0.1-0.2-0.3c0-0.1,0-0.3,0.1-0.3C22.6,42.7,22.6,42.9,22.7,43z"/>
		<path class="st6" d="M28.4,45.8c0.2,0.2,0.4,0.4,0.2,0.6c-0.1,0.1-0.3,0.1-0.3,0C28.1,46.2,28.3,46,28.4,45.8z"/>
		<path class="st6" d="M29.3,42.3c0.2,0.1,0.2,0.3,0.2,0.4c0,0.1-0.1,0.2-0.2,0.1c-0.1,0-0.2-0.1-0.2-0.2
			C29.1,42.5,29.2,42.4,29.3,42.3z"/>
		<path class="st3" d="M26.5,42.4c-0.1-0.4,0-0.7,0-1.1c0,0,0.1-0.1,0.1-0.1c0.7,0.1,0.8,0.5,0.4,1.2C26.9,42.4,26.7,42.4,26.5,42.4
			z"/>
		<path class="st6" d="M26.5,42.4c0.2,0,0.3,0,0.5,0C26.9,42.5,26.7,42.8,26.5,42.4z"/>
		<path class="st6" d="M26.6,41.2c0,0-0.1,0.1-0.1,0.1c0,0,0-0.1,0-0.1C26.5,41.2,26.6,41.2,26.6,41.2z"/>
		<path class="st6" d="M33.3,50c-0.1,0-0.1,0-0.1,0C33.2,50,33.2,50,33.3,50z"/>
		<g>
			<path class="st4" d="M124.8,34.8c-0.8,0-1.5-0.7-1.5-1.5c0-0.8,0.7-1.5,1.5-1.5s1.5,0.7,1.5,1.5
				C126.3,34.2,125.6,34.8,124.8,34.8z M124.8,32.2c-0.6,0-1.2,0.5-1.2,1.2s0.5,1.2,1.2,1.2c0.6,0,1.2-0.5,1.2-1.2
				S125.5,32.2,124.8,32.2z"/>
		</g>
		<g>
			<path class="st4" d="M124.6,33.4v0.5c0,0.1,0,0.2,0,0.2c0,0,0,0,0.1,0.1c0,0,0.1,0,0.2,0v0h-0.9v0c0.1,0,0.1,0,0.2,0
				c0,0,0,0,0.1-0.1c0,0,0-0.1,0-0.2v-1.1c0-0.1,0-0.2,0-0.2c0,0,0,0-0.1-0.1c0,0-0.1,0-0.2,0v0h0.8c0.2,0,0.4,0,0.5,0
				c0.1,0,0.2,0.1,0.2,0.2c0.1,0.1,0.1,0.2,0.1,0.3c0,0.1,0,0.2-0.1,0.3c-0.1,0.1-0.1,0.1-0.2,0.1l0.4,0.6c0.1,0.1,0.1,0.1,0.1,0.1
				c0,0,0.1,0,0.1,0v0h-0.5l-0.6-0.8H124.6z M124.6,32.5v0.8h0.1c0.1,0,0.2,0,0.3,0c0.1,0,0.1-0.1,0.1-0.1c0-0.1,0.1-0.1,0.1-0.2
				c0-0.1,0-0.2-0.1-0.3c-0.1-0.1-0.2-0.1-0.3-0.1H124.6z"/>
		</g>
	</g>
	<path class="st6" d="M10.7,41.8c-0.7,0.4-1.5,0.5-2.3,0.7c0-0.1,0-0.2,0.1-0.3c0.3-0.5,0-0.6-0.4-0.5c-0.4,0-0.8,0-1.2-0.1
		c0,0-0.1-0.1-0.1-0.1c0-0.1,0-0.2-0.1-0.2c0-0.2,0-0.3,0-0.5c0.1-0.2,0.1-0.3,0.2-0.5c0.3-0.6,0.3-0.6-0.4-0.6c-0.1,0-0.2,0-0.3,0
		c-0.1,0-0.1,0-0.2,0c-0.1-0.1-0.3-0.2-0.4-0.2l0,0c0-0.1-0.1-0.2-0.2-0.3c0-0.1,0-0.3,0-0.4c0.1-0.1,0.2-0.2,0.1-0.3
		c0.1-0.1,0.1-0.2,0.2-0.3C5.8,37.9,6,37.8,6,37.5c0-0.2-0.3-0.1-0.5-0.1c-0.1,0-0.1,0-0.2,0c-1.1-0.4-1.1-0.5-0.9-1.5
		c0,0,0,0,0-0.1c0.1-0.1,0.2-0.1,0.2-0.3l0,0c0.3-0.2,0.4-0.4,0-0.5C4.3,35.1,4.1,35,3.9,35c-0.1,0-0.1,0-0.2-0.1
		c-0.3-0.3-0.4-0.7-0.3-1.1c0,0,0,0,0-0.1c0.1-0.1,0.2-0.1,0.2-0.3c0.1-0.1,0.2-0.2,0.3-0.3c0.3-0.2,0.4-0.3,0-0.5
		c-0.3-0.1-0.6-0.2-0.9-0.3C3,32.2,2.9,32.1,2.8,32c0-0.3,0-0.6,0.1-0.9C3,31,3.2,30.8,3.3,30.7c0.4-0.2,0.4-0.3,0-0.5
		C3.1,30.1,2.9,30,2.8,30c0,0,0,0-0.1,0c-0.3-0.4-0.4-0.8-0.2-1.2c0.2-0.2,0.5-0.4,0.7-0.6c0.2,0,0.3-0.1,0.3-0.2
		c0-0.1-0.2-0.2-0.3-0.2c-0.1-0.1-0.2-0.1-0.3-0.2c-0.1-0.2-0.4-0.3-0.6-0.5c0,0,0,0,0-0.1c0-0.1,0-0.2-0.1-0.2c0-0.1,0-0.2,0-0.3
		c0.1-0.1,0.1-0.1,0.1-0.2c0,0,0,0,0-0.1c0.1,0,0.2-0.1,0.2-0.2c0.1,0,0.1-0.1,0.2-0.1c0.1,0,0.2-0.1,0.3-0.2c0,0,0.1,0,0.1,0
		c0.1,0,0.2,0,0.2-0.1c0-0.1-0.1-0.1-0.1-0.1c0,0,0,0,0,0C3.1,25.1,3,25,2.8,25c-0.1-0.1-0.2-0.2-0.2-0.2c0-0.2-0.1-0.3-0.2-0.5
		c0-0.1,0-0.2,0-0.2c0.1-0.1,0.1-0.1,0.1-0.2c0.1-0.1,0.1-0.1,0.2-0.2c0.3-0.1,0.5-0.3,0.8-0.4c0.5-0.2,0.4-0.3,0.1-0.6
		c-0.5-0.4-1-0.8-0.6-1.6c0,0,0,0,0,0c0.2-0.1,0.4-0.2,0.6-0.3C3.7,20.6,4,20.7,4,20.4c0-0.2-0.2-0.3-0.4-0.4l0,0c0,0,0,0,0,0
		c0-0.1,0-0.2-0.1-0.2c0,0,0,0,0,0c-0.1-0.4-0.2-0.8,0.1-1.2c0,0,0.1,0,0.1,0c0.3-0.1,0.5-0.1,0.8-0.2c0.2-0.1,0.4,0,0.5-0.2
		c0-0.2-0.2-0.4-0.4-0.5l0,0c0-0.1-0.1-0.2-0.2-0.3l0,0c0,0,0,0,0,0c-0.1-0.4-0.3-0.8,0-1.2l0,0c0.4-0.1,0.7-0.3,1.1-0.3
		c0.5-0.1,0.3-0.3,0.1-0.4c-0.1-0.1-0.1-0.2-0.2-0.4c-0.1-0.3-0.1-0.7,0-1c0,0,0.1-0.1,0.1-0.1c0.4-0.1,0.8-0.2,1.2-0.2
		c0.1,0,0.3,0.1,0.4-0.1c0.1-0.2-0.1-0.3-0.2-0.4c0-0.1-0.1-0.2-0.1-0.3c-0.1-1.1-0.1-1.1,0.6-1.5c0.3,0,0.5,0,0.8,0
		c0.2,0.1,0.2,0,0.2-0.1c0-0.2-0.1-0.4-0.2-0.5c0-0.1,0-0.1,0-0.2c0.1-0.3,0.1-0.5,0.2-0.8c0.1-0.1,0.1-0.1,0.2-0.2
		c0.4,0,0.8,0,1.1,0c0.1,0,0.1,0,0.2,0c0.5,0.2,0.3-0.1,0.2-0.3c-0.2-0.6-0.3-1.2,0.2-1.7c0.1,0,0.1,0,0.2,0c0.1,0,0.2,0,0.4,0
		c0.1,0,0.2,0,0.3,0c0.4,0.2,0.6,0.2,0.5-0.3c0-0.2-0.1-0.5-0.1-0.7c0,0,0-0.1,0-0.1c0.1,0,0.1-0.1,0-0.1c0.1-0.1,0.2-0.2,0.3-0.3
		c0.3,0,0.5,0,0.8,0c0.3,0,0.7,0.4,0.9,0.2c0.3-0.2,0-0.7,0.1-1c0.1-0.7,0.4-0.9,1-0.8c0.3,0.1,0.7,0.4,0.9,0.3c0.3-0.2,0-0.7,0.2-1
		c0,0,0-0.1,0-0.2c0.1-0.1,0.2-0.3,0.4-0.4c0.4,0,0.8,0.1,1.2,0.3c0,0,0,0,0.1,0c0.1,0.2,0.2,0.3,0.4,0.3C18,3.7,18,3.6,18,3.5
		c0-0.1,0-0.1,0-0.2c0.1-0.1,0.1-0.2,0-0.3c0-0.1,0-0.2,0.1-0.3c0.2-0.1,0.2-0.3,0.2-0.4c0,0,0.1-0.1,0.1-0.1c0.3,0,0.5,0,0.8,0
		c0.1,0,0.1,0,0.2,0.1c0.7,0.7,0.7,0.7,1-0.2c0.1-0.2,0.1-0.3,0.2-0.5l0,0c0,0,0.1-0.1,0.1-0.1l0,0c0.1,0,0.2,0,0.2-0.1
		c0.2,0,0.4,0,0.6,0c0,0.1,0.1,0.1,0.2,0.1c0,0,0,0,0.1,0c0.2,0.2,0.4,0.4,0.6,0.6c0.2,0.2,0.3,0.2,0.4-0.1c0.1-0.4,0.3-0.8,0.5-1.2
		l0,0c0.5-0.3,0.8,0,1.2,0.2c0.1,0.1,0.1,0.1,0.2,0.2c0.1,0.3,0.3,0.4,0.5,0c0-0.1,0.1-0.2,0.1-0.4c0,0,0,0,0-0.1
		c0.2-0.1,0.4-0.3,0.5-0.5c0,0,0.1,0,0.1,0c0.2,0,0.4,0,0.6,0l0,0c0.1,0.1,0.2,0.2,0.3,0.2c0,0,0,0,0,0c0,0,0.1,0.1,0.1,0.1l0,0
		c0,0.1,0.1,0.2,0.2,0.3c0.1,0.1,0.1,0.2,0.2,0.3c0.1,0.3,0.2,0.3,0.3,0.1C27.8,1,27.9,0.8,28,0.6c0,0,0,0,0-0.1
		c0.3-0.3,0.6-0.6,1.1-0.5c0.1,0,0.1,0,0.2,0.1c0.1,0.1,0.1,0.3,0.3,0.3c0,0,0.1,0.1,0.1,0.1c0,0.1,0.1,0.2,0.2,0.3l0,0c0,0,0,0,0,0
		c0,0.2,0,0.3,0.2,0.3c0.2,0,0.2-0.2,0.3-0.4c0.1-0.1,0.1-0.2,0.2-0.3c0.1,0,0.1,0,0.1-0.1c0,0,0.1-0.1,0.1-0.1
		C31.3,0,31.6,0.2,32,0.5c0,0,0,0.1,0,0.1c0.1,0.2,0.1,0.4,0.2,0.6c0.1,0.1,0.1,0.3,0.2,0.3c0.2,0,0.3-0.2,0.3-0.3c0,0,0,0,0,0
		c0,0,0.1-0.1,0.1-0.1c0.1-0.1,0.2-0.2,0.3-0.3c0.2,0,0.3-0.1,0.4-0.2c0.2,0,0.4,0,0.6,0.1c0,0.1,0.1,0.2,0.2,0.3
		c0,0.1,0.1,0.2,0.1,0.3c0.1,0.7,0.2,0.7,0.8,0.3c0.2-0.1,0.4-0.3,0.6-0.4l0,0c0.2,0,0.4,0.1,0.6,0.1c0,0,0.1,0.1,0.1,0.1
		c0,0,0.1,0.1,0.1,0.1l0,0c0.1,0.4,0.2,0.7,0.3,1.1c0.1,0.3,0.2,0.3,0.4,0.1c0.1-0.1,0.2-0.2,0.3-0.3l0,0c1-0.4,1.1-0.4,1.6,0.3
		c0,0.2,0.1,0.3,0.1,0.5c0,0.1-0.1,0.3,0.1,0.4c0.1,0.1,0.2,0,0.3-0.1c0.1-0.1,0.2-0.1,0.3-0.2c0.3-0.1,0.7-0.2,1-0.2
		c0.1,0.1,0.1,0.1,0.2,0.2c0,0.2,0.1,0.3,0.2,0.5c0,0.1,0,0.2,0,0.3c0,0.2,0,0.4,0,0.7c0,0.4,0.2,0.3,0.4,0.1c0,0,0.1,0,0.1,0
		c0.4-0.1,0.9-0.3,1.4-0.3c0.1,0.1,0.2,0.2,0.3,0.3c0,0.1,0,0.3,0.1,0.3c0,0.3,0,0.6,0,0.9c0.1,0.4,0.3,0.1,0.4,0
		c0.1,0,0.1,0,0.2-0.1c0.1,0,0.3,0,0.3-0.1c0.1,0,0.2,0,0.4,0c0.2,0.1,0.4,0.3,0.5,0.4c0,0.1,0,0.1,0,0.2c0,0.3,0,0.7,0,1
		c0,0.1,0,0.1,0,0.2c-0.1,0.1-0.1,0.2,0,0.2c0.1,0,0.2,0,0.3-0.1c0.1,0,0.1,0,0.2-0.1c0.1,0,0.2,0,0.2-0.1c0.3,0,0.6,0,1,0
		c0.1,0.1,0.1,0.2,0.3,0.3c0,0.3,0,0.7,0,1c-0.1,0.2-0.3,0.4,0.1,0.4c0.1,0,0.1,0,0.2,0c0.4,0,0.8,0,1.1,0.2
		c0.1,0.1,0.1,0.1,0.2,0.2c0,0.3,0,0.5,0,0.8c0,0.1-0.1,0.3-0.1,0.4c-0.2,0.1-0.3,0.3-0.2,0.5c0.1,0.1,0.2,0.1,0.3,0
		c0.3,0,0.6,0,0.9,0c0.1,0.1,0.3,0.2,0.5,0.2c0,0,0.1,0.1,0.1,0.1c0,0.3,0,0.6,0,0.9c0,0.1-0.1,0.2-0.1,0.3
		c-0.1,0.2-0.5,0.3-0.1,0.5c0.2,0,0.4,0,0.6,0c0.1,0.1,0.2,0.1,0.3,0.1c0.1,0.1,0.2,0.1,0.3,0.2c0,0,0.1,0.1,0.1,0.1
		c0.1,0.2,0.1,0.4,0.1,0.7c-0.1,0.1-0.1,0.2-0.1,0.3c0,0.1-0.1,0.2-0.1,0.3c-0.2,0.2-0.4,0.4-0.3,0.6c0.1,0.2,0.4,0.1,0.6,0.1
		c0.4,0,0.7,0.2,1.1,0.4c0.1,0.1,0.1,0.2,0.2,0.3c0,0.2-0.1,0.4-0.1,0.6c0,0.1-0.1,0.1-0.1,0.2c-0.1,0-0.2,0.1-0.2,0.3
		c0,0,0,0,0,0.1c-0.1,0.1-0.3,0.2-0.3,0.3c0,0.2,0.2,0.2,0.3,0.1c0.1,0,0.1,0,0.2,0c0.1,0.1,0.2,0.1,0.3,0.1c0.1,0,0.2,0.1,0.3,0.1
		c0.2,0.2,0.3,0.5,0.3,0.8c-0.1,0.2-0.3,0.5-0.4,0.7c-0.2,0.1-0.3,0.2-0.4,0.4c-0.2,0.2,0,0.3,0.2,0.3c0.1,0,0.1,0,0.2,0.1l0,0
		l0.1,0c0.2,0.1,0.4,0.2,0.6,0.3c0,0.1,0,0.1,0.1,0.1c0.2,0.2,0.3,0.5,0.2,0.8c-0.1,0-0.1,0.1-0.1,0.2c-0.2,0.2-0.3,0.3-0.5,0.5
		c-0.1,0-0.3,0.1-0.2,0.2c0,0.1,0.1,0.2,0.3,0.1c0.4,0.2,0.7,0.4,0.9,0.8c0,0.2,0,0.3,0,0.5c-0.1,0.1-0.1,0.2-0.2,0.3
		c-0.2,0.1-0.3,0.2-0.4,0.3c-0.1,0.1-0.2,0.1-0.3,0.2c-0.4,0.1-0.5,0.2-0.1,0.5c0.2,0.1,0.4,0.2,0.6,0.2c0.2,0.2,0.3,0.4,0.5,0.6
		c0,0.3,0,0.5-0.2,0.8c0,0-0.1,0.1-0.1,0.1c-0.1,0-0.2,0.1-0.3,0.2c-0.1,0-0.2,0.1-0.3,0.2c-0.1,0-0.2,0-0.2,0.2
		c0,0.1,0.1,0.1,0.2,0.1c0,0.1,0.1,0.2,0.3,0.2l0,0c0,0,0.1,0.1,0.1,0.1c0.1,0.1,0.2,0.2,0.2,0.2c0.1,0.3,0.2,0.6,0.1,0.9
		c-0.1,0.1-0.2,0.2-0.3,0.3c-0.1,0-0.2,0.1-0.3,0.2c-0.1,0-0.1,0-0.2,0.1c-0.1,0-0.2,0-0.3,0.1l0,0c0,0,0,0,0,0
		c-0.1,0-0.2,0-0.2,0.1c0,0.1,0.1,0.1,0.2,0.2l0,0c0,0,0,0,0,0c0.1,0.2,0.2,0.3,0.4,0.3c0,0,0.1,0.1,0.1,0.1c0,0.1,0.1,0.2,0.2,0.3
		c0,0,0,0.1,0,0.1c0,0.1,0,0.2,0.1,0.2c0,0.3,0,0.6-0.2,0.8c-0.1,0-0.2,0.1-0.3,0.2c0,0-0.1,0-0.1,0c-0.2,0-0.3,0.1-0.5,0.1
		c-0.4,0.1-0.3,0.3,0,0.5c0.1,0.1,0.2,0.2,0.3,0.3c0,0.2,0.1,0.3,0.2,0.5c0,0.2,0,0.5-0.1,0.7c-0.1,0-0.2,0.1-0.3,0.2
		c-0.2,0.1-0.3,0.1-0.5,0.2c-0.1,0-0.3,0-0.4,0c-0.1,0-0.3,0-0.3,0.2c0,0.2,0.1,0.3,0.3,0.3c0,0,0,0,0,0c0,0,0.1,0.1,0.1,0.1
		c0,0,0,0,0,0.1c0,0.1,0.1,0.2,0.2,0.3c0,0.1,0.1,0.1,0.1,0.2c0,0.3,0.1,0.6,0,0.9c0,0-0.1,0.1-0.1,0.1c-0.1,0-0.2,0-0.2,0.1
		c0,0,0,0,0,0c-0.1,0-0.3,0-0.3,0.1c-0.1,0-0.3,0-0.4,0.1c-0.1-0.1-0.2-0.1-0.3,0.1c-0.1,0.2,0.1,0.4,0.3,0.5l0,0
		c0,0.2,0.1,0.4,0.2,0.6c0,0.1,0,0.2,0,0.3c-0.3,0.5-0.8,0.6-1.4,0.6c-0.2,0-0.4-0.1-0.5,0.1c-0.1,0.2,0.1,0.3,0.2,0.5
		c0,0.1,0,0.1,0.1,0.2c0.1,0.4,0.1,0.8,0.1,1.1c-0.1,0.2-0.3,0.3-0.5,0.3c-0.3,0-0.6,0-0.9,0c-0.3,0-0.3,0.2-0.2,0.4
		c0,0,0,0.1,0,0.1c0,0.1,0,0.3,0,0.4c-0.8-0.2-1.6-0.4-2.3-0.7c1.3-1.6,2.4-3.4,3.3-5.2c1.3-2.8,2-5.7,2.2-8.8c0.1-1.5,0-3-0.2-4.5
		c-0.4-2.8-1.2-5.4-2.5-7.8c-1.4-2.7-3.4-5.1-5.7-7.1c-2.1-1.7-4.4-3.1-6.9-4.1c-1.9-0.7-3.7-1.1-5.7-1.4c-1.8-0.2-3.6-0.2-5.4,0
		c-2.3,0.3-4.5,0.8-6.6,1.7C17.2,5.6,15,7,13,8.8c-3.4,3-5.7,6.7-7,11c-0.7,2.3-1,4.6-1,7c0,1.4,0.1,2.8,0.4,4.2
		c0.7,3.9,2.3,7.3,4.7,10.5C10.2,41.6,10.4,41.7,10.7,41.8z"/>
	<g>
		<path class="st10" d="M45.2,52.8c-0.2-0.1-2.1-0.8-5.2-1.5V53L45.2,52.8L45.2,52.8z"/>
	</g>
	<path class="st11" d="M7.8,44.1c1.5-0.6,6.3-2.3,12.9-3.2c4.7-0.7,9.4-0.8,14-0.4c5.5,0.5,10.9,1.7,16,3.6l0.2-0.3
		c-5.1-2-10.5-3.2-16.1-3.7c-4.6-0.4-9.4-0.2-14.1,0.4c-6.7,0.9-11.5,2.6-13,3.2L7.8,44.1z"/>
	<path class="st11" d="M46,51.2c-1.4-0.5-5-1.6-10-2.3c-5.8-0.8-14.7-0.9-24.2,2.3l0.2,0.3c9.4-3.2,18.2-3,23.9-2.3
		c4.9,0.6,8.4,1.7,9.8,2.2L46,51.2z"/>
	<polygon class="st12" points="1.8,48.3 6.9,51.4 5,57 17.7,52.6 12.6,52.4 8.6,45.9 	"/>
	<g>
		<path class="st10" d="M13.1,52.8c0.2-0.1,2.1-0.8,5.2-1.5V53L13.1,52.8L13.1,52.8z"/>
	</g>
</g>
</svg>
