<svg xmlns="http://www.w3.org/2000/svg" width="86" height="86" fill="none" viewBox="0 0 86 86">
    <path fill="#EA2127" d="M42.976 86c23.735 0 42.977-19.252 42.977-43S66.71 0 42.976 0C19.241 0 0 19.252 0 43s19.241 43 42.976 43z"/>
    <path fill="#fff" fill-rule="evenodd" d="M47.992 66.352c-2.982 2.461-7.247 2.762-11.742 1.253-4.343-1.458-8.93-4.62-12.741-9.146-.029-.03-.055-.062-.08-.095-3.797-4.541-6.116-9.609-6.796-14.137-.709-4.716.346-8.885 3.332-11.39l.02-.017c.74-.602 1.858-.454 3.071.274.925.554 1.982 1.472 2.956 2.624.028.03.053.06.076.091.946 1.136 1.965 2.673 2.656 4.015.878 1.704 1.201 3.264.39 3.944-.922.774-1.444 1.857-1.542 2.979-.098 1.123.228 2.282 1.003 3.206l4.098 4.883c.773.922 1.856 1.444 2.978 1.542 1.124.098 2.283-.228 3.206-1.003.808-.678 2.287-.089 3.812 1.071 2.125 1.616 4.665 4.21 5.645 6.77.495 1.291.458 2.397-.221 3.032-.038.038-.079.072-.121.103zm5.408-6.398c-.483.245-.672.845-.421 1.34.251.494.846.696 1.33.45 3.188-1.616 5.948-3.956 8.067-6.802 2.849-3.829 4.535-8.571 4.535-13.705 0-6.346-2.573-12.091-6.732-16.25-4.159-4.16-9.904-6.732-16.25-6.732-4.415 0-8.543 1.25-12.05 3.413-2.472 1.526-4.64 3.512-6.377 5.84-.738.987.855 2.203 1.605 1.198 1.587-2.125 3.567-3.939 5.825-5.332 3.193-1.97 6.96-3.106 10.997-3.106 5.79 0 11.033 2.347 14.828 6.142 3.794 3.794 6.141 9.037 6.141 14.827 0 4.691-1.537 9.02-4.134 12.51-1.932 2.597-4.452 4.731-7.364 6.206zM50.22 61.31c.544 0 .986.442.986.986 0 .545-.442.986-.986.986s-.986-.44-.986-.986c0-.544.441-.986.986-.986zM24.252 30.424c-.544 0-.986.441-.986.986 0 .545.442.986.986.986.545 0 .986-.441.986-.986 0-.545-.441-.986-.986-.986zM57.688 46.68c0 .555-.45 1.006-1.006 1.006s-1.006-.45-1.006-1.006v-4.437h-5.178v-.004c-.226 0-.453-.076-.64-.231-.426-.354-.484-.986-.13-1.411l6.125-7.35c.181-.264.485-.437.829-.437.556 0 1.006.45 1.006 1.006v6.415h1.22c.556 0 1.007.45 1.007 1.006s-.451 1.006-1.007 1.006h-1.22v4.437zm-2.012-6.448H52.64l3.035-3.643v3.643zm-14.562-2.458c0-.815.33-1.553.864-2.087.534-.534 1.272-.864 2.087-.864.816 0 1.554.33 2.088.864s.864 1.272.864 2.087c0 .78-.297 1.346-.795 1.819-.593.563-1.497 1.047-2.54 1.568-2.53 1.26-4.46 5.048-4.466 5.059-.254.492-.06 1.098.432 1.352.147.076.305.112.46.111v.003h7.916c.555 0 1.006-.45 1.006-1.006s-.451-1.007-1.007-1.007h-6.142c.662-.98 1.634-2.182 2.696-2.712 1.19-.593 2.233-1.159 3.029-1.914.89-.846 1.424-1.866 1.424-3.273 0-1.37-.556-2.611-1.455-3.51-.898-.898-2.139-1.454-3.51-1.454-1.37 0-2.61.556-3.51 1.454-.898.899-1.453 2.14-1.453 3.51 0 .556.45 1.007 1.006 1.007.555 0 1.006-.451 1.006-1.007zm-4.228 27.929c3.861 1.296 7.455 1.087 9.866-.933l.005-.004c.01-.008-.106-.326-.301-.835-.833-2.175-3.193-4.531-4.978-5.89-.795-.604-1.498-.974-1.555-.927-1.35 1.132-2.793 1.411-4.425 1.268-1.633-.143-3.213-.907-4.346-2.257l-4.098-4.883c-1.132-1.35-1.61-3.037-1.466-4.668.143-1.633.784-3.108 2.135-4.241-.548-1.698-2.817-4.809-3.213-5.28-.843-1.004-1.73-1.786-2.484-2.238-.447-.268-.736-.434-.77-.438l-.039.031c-2.38 2.026-3.198 5.512-2.596 9.52.631 4.2 2.81 8.93 6.388 13.194 3.578 4.264 7.854 7.23 11.877 8.58z" clip-rule="evenodd"/>
</svg>
