<svg xmlns="http://www.w3.org/2000/svg" width="86" height="86" fill="none" viewBox="0 0 86 86">
    <path fill="#EA2127" d="M42.976 86c23.736 0 42.977-19.252 42.977-43S66.71 0 42.976 0C19.241 0 0 19.252 0 43s19.241 43 42.976 43z"/>
    <path fill="#fff" d="M46.17 20.438h-6.566v2.19h6.567v-2.19zM34.179 56.433H31.99v2.19h2.189v-2.19zM34.179 52.052H31.99v2.19h2.189v-2.19zM38.557 56.433h-2.19v2.19h2.19v-2.19z"/>
    <path fill="#fff" d="M63.587 35.674c-1.523 0-3.807.476-5.425 2.095V20.438c0-1.81-1.427-3.238-3.236-3.238H30.943c-1.808 0-3.236 1.429-3.236 3.238v13.046h-3.236c-1.808 0-3.236 1.428-3.236 3.237v2.19c0 .857.286 1.62.857 2.19-.476.572-.857 1.334-.857 2.19v2.19c0 .858.286 1.62.857 2.191-.476.571-.857 1.333-.857 2.19v2.19c0 .857.286 1.62.857 2.19-.476.572-.857 1.334-.857 2.19v2.19c0 1.81 1.428 3.239 3.236 3.239h3.236v4.38c0 1.81 1.428 3.237 3.236 3.237h23.983c1.809 0 3.236-1.428 3.236-3.237V42.53c.19-2.38 1.999-4.285 4.378-4.57v30.376h2.19v-31.52c0-.666-.477-1.142-1.143-1.142zM27.707 59.67h-3.236c-.57 0-1.047-.476-1.047-1.047v-2.19c0-.572.476-1.048 1.047-1.048h3.236v4.285zm0-6.57h-3.236c-.57 0-1.047-.476-1.047-1.048v-2.19c0-.571.476-1.047 1.047-1.047h3.236V53.1zm0-6.475h-3.236c-.57 0-1.047-.477-1.047-1.048v-2.19c0-.571.476-1.047 1.047-1.047h3.236v4.285zm0-6.57h-3.236c-.57 0-1.047-.477-1.047-1.048v-2.19c0-.572.476-1.048 1.047-1.048h3.236v4.285zM55.973 66.24c0 .571-.475 1.047-1.047 1.047H30.943c-.571 0-1.047-.476-1.047-1.047v-3.238H56.07v3.238h-.096zm0-5.523H29.801V25.675h26.172v35.043zm0-37.043H29.801v-3.237c0-.572.476-1.048 1.047-1.048H54.83c.571 0 1.047.476 1.047 1.048v3.238h.095z"/>
    <path fill="#fff" d="M42.935 54.243c5.996 0 10.85-4.857 10.85-10.856 0-6-4.854-10.856-10.85-10.856-5.996 0-10.85 4.857-10.85 10.856 0 6 4.854 10.856 10.85 10.856zm0-19.617c4.854 0 8.756 3.905 8.756 8.761s-3.902 8.76-8.756 8.76-8.756-3.904-8.756-8.76 3.902-8.76 8.756-8.76z"/>
    <path fill="#fff" d="M42.935 46.625c-.571 0-1.047-.477-1.047-1.048h-2.19c0 1.428.953 2.666 2.19 3.047v1.238h2.189v-1.238c1.237-.476 2.189-1.619 2.189-3.047 0-1.81-1.428-3.237-3.236-3.237-.571 0-1.047-.477-1.047-1.048 0-.571.476-1.047 1.047-1.047s1.047.476 1.047 1.047h2.189c0-1.428-.952-2.666-2.19-3.047v-1.238h-2.188v1.238c-1.237.476-2.19 1.619-2.19 3.047 0 1.81 1.428 3.238 3.237 3.238.57 0 1.047.476 1.047 1.047 0 .572-.476 1.048-1.047 1.048zM53.784 28.056h-2.188v2.19h2.188v-2.19zM53.784 32.436h-2.188v2.19h2.188v-2.19zM49.502 28.056h-2.19v2.19h2.19v-2.19z"/>
</svg>
