<?xml version="1.0" encoding="utf-8"?>
<!-- Generator: Adobe Illustrator 22.0.0, SVG Export Plug-In . SVG Version: 6.00 Build 0)  -->
<svg version="1.1" id="Layer_1" xmlns="http://www.w3.org/2000/svg" xmlns:xlink="http://www.w3.org/1999/xlink" x="0px" y="0px"
	 viewBox="0 0 140 40" style="enable-background:new 0 0 140 40;" xml:space="preserve">
<style type="text/css">
	.st0{fill:#202D5C;}
	.st1{fill:#0689CB;}
	.st2{fill:#231F20;}
	.st3{fill:#3C80AD;}
	.st4{fill:#931B1D;}
	.st5{fill:#F16622;}
	.st6{fill:#F7981D;}
	.st7{fill:#CB2026;}
	.st8{fill:#FFFFFF;}
	.st9{fill:#F3F2F2;}
	.st10{fill:#293688;}
	.st11{fill:#FEDB41;}
	.st12{fill:#FFCC33;}
	.st13{fill:#FEA832;}
	.st14{fill:#FE9923;}
	.st15{fill-rule:evenodd;clip-rule:evenodd;}
	.st16{fill-rule:evenodd;clip-rule:evenodd;fill:#5CA3D9;}
	.st17{fill-rule:evenodd;clip-rule:evenodd;fill:#42278A;}
	.st18{fill-rule:evenodd;clip-rule:evenodd;fill:#3F2689;}
	.st19{fill:#3451AA;}
	.st20{fill:#EDDE00;}
	.st21{fill:#0152B0;}
	.st22{fill:#F8F9FB;}
	.st23{fill:#F2F5F8;}
	.st24{fill:#FE7000;}
	.st25{fill:#FE7102;}
	.st26{fill:#0B2972;}
	.st27{fill:#FFB20C;}
	.st28{fill:#23AA4A;}
	.st29{fill:#60BB46;}
	.st30{fill:#0B9445;}
	.st31{fill:#0C9446;}
	.st32{fill:#8CC63F;}
	.st33{fill:#0B9444;}
	.st34{fill:#66BCE1;}
	.st35{fill:#1595D0;}
	.st36{fill:#333333;}
	.st37{fill:#015390;}
	.st38{fill:#EC2224;}
	.st39{fill:#009F04;}
	.st40{fill:#21045E;}
	.st41{fill:#00C13E;}
	.st42{fill:#4E5CC3;}
	.st43{fill:#222AA5;}
	.st44{fill:#B1DCFF;}
	.st45{fill:#84CAFF;}
	.st46{fill:#07AA29;}
	.st47{fill:#05801F;}
	.st48{fill:#FFE200;}
	.st49{fill:#ECBB33;}
	.st50{fill:#00763E;}
	.st51{fill:#7FBE26;}
	.st52{fill:#595757;}
	.st53{fill:#3363A8;}
	.st54{fill:#1E1917;}
	.st55{fill:#231815;}
	.st56{fill:#EE3325;}
	.st57{fill:#030303;}
	.st58{fill:#FEFEFE;}
	.st59{fill:#0593DB;}
	.st60{fill:#0091DB;}
	.st61{fill:#2CACE4;}
	.st62{fill:#006546;}
	.st63{fill:#FF6600;}
	.st64{fill:#FE000C;}
	.st65{fill:#363433;}
	.st66{fill:#FCFCFC;}
	.st67{fill:#80C403;}
	.st68{fill:#009DC3;}
	.st69{fill:#002731;}
	.st70{fill:#0086AF;}
	.st71{fill:#004F62;}
	.st72{fill:#77D9A5;}
	.st73{fill:#99D8E7;}
</style>
<g>
	<g>
		<g>
			<path class="st0" d="M58.1,8.8h14.5v4.4h-9.7v4.4h9v4.4h-9v8.4h-4.8V8.8z"/>
			<path class="st0" d="M75.9,8.8h8c1.1,0,2.2,0.1,3.2,0.3c1,0.2,1.9,0.6,2.6,1.1c0.7,0.5,1.3,1.2,1.8,2c0.4,0.8,0.7,1.9,0.7,3.2
				c0,1.3-0.2,2.3-0.6,3.2c-0.4,0.9-1,1.5-1.7,2c-0.7,0.5-1.6,0.9-2.5,1.1c-1,0.2-2,0.3-3.2,0.3h-3.5v8.4h-4.8V8.8z M80.7,17.9h3.2
				c0.4,0,0.8,0,1.2-0.1c0.4-0.1,0.8-0.2,1.1-0.4c0.3-0.2,0.6-0.5,0.8-0.8c0.2-0.3,0.3-0.8,0.3-1.3c0-0.5-0.1-1-0.4-1.3
				c-0.3-0.3-0.6-0.6-1-0.8c-0.4-0.2-0.8-0.3-1.3-0.4c-0.5-0.1-1-0.1-1.4-0.1h-2.4V17.9z"/>
			<path class="st0" d="M100.5,19.1L93.4,8.8h6l4.6,7.6l4.4-7.6h5.8l-7,10.2l7.8,11.4h-6l-5.3-8.7l-5.1,8.7h-5.6L100.5,19.1z"/>
		</g>
		<g>
			<path class="st1" d="M37.2,26.3l-3-4.1C33.8,21.6,33,20.8,33,20c0-0.8,0.8-1.6,1.2-2.2l3-4.1c0.1-0.2,0.3-0.3,0.4-0.4V8.6
				c0-3.8-1.6-4.7-3.5-2.1l-6.5,8.8c-1,1.3-2.6,3-2.6,4.7c0,1.7,1.7,3.4,2.6,4.7l6.5,8.8c1.9,2.6,3.5,1.7,3.5-2.1v-4.7
				C37.5,26.6,37.4,26.5,37.2,26.3z"/>
			<path class="st0" d="M50,15.3l-6.5-8.8C41.6,3.9,40,4.8,40,8.6v4.7c0.1,0.1,0.3,0.2,0.4,0.4l3,4.1c0.4,0.6,1.2,1.4,1.2,2.2
				c0,0.8-0.8,1.6-1.2,2.2l-3,4.1c-0.1,0.2-0.3,0.3-0.4,0.4v4.7c0,3.8,1.6,4.7,3.5,2.1l6.5-8.8c1-1.3,2.6-3,2.6-4.7
				C52.6,18.3,51,16.6,50,15.3z"/>
		</g>
	</g>
</g>
</svg>
