<?xml version="1.0" encoding="utf-8"?>
<!-- Generator: Adobe Illustrator 22.0.0, SVG Export Plug-In . SVG Version: 6.00 Build 0)  -->
<svg version="1.1" id="Layer_1" xmlns="http://www.w3.org/2000/svg" xmlns:xlink="http://www.w3.org/1999/xlink" x="0px" y="0px"
	 viewBox="0 0 140 40" style="enable-background:new 0 0 140 40;" xml:space="preserve">
<style type="text/css">
	.st0{fill:#7A7A7A;}
	.st1{fill:#7B7B7B;}
	.st2{fill:#7C7C7C;}
	.st3{fill:#7D7D7D;}
	.st4{fill:#66BA6A;}
	.st5{fill:#388E3C;}
	.st6{fill:#DFDFDF;}
	.st7{fill:#FEFEFE;}
	.st8{fill:#5A9F60;}
	.st9{fill:#357D3C;}
	.st10{fill:none;}
	.st11{fill:#F6F7F6;}
	.st12{fill:#F7F8F7;}
</style>
<g>
	<g>
		<path class="st0" d="M50.4,10c0.8,0,1.6,0,2.4,0c0.5,0,0.6,0.2,0.7,0.6c0.3,3.2-1.7,5.9-4.8,6.5c-5,1-9.4-3.7-7.8-8.5
			c1.4-4.3,6.8-6,10.3-3.3c0.5,0.4,0.6,0.6,0.1,1.1S50.5,7,49.8,6.6c-1.5-1.1-3.7-1-5.3,0.1c-1.6,1.2-2.3,3.2-1.8,5.2
			c0.5,1.9,2,3.3,3.9,3.5c2.3,0.3,4.3-0.9,4.8-2.9c0.1-0.5,0.1-0.7-0.5-0.7c-1,0-2,0-3.1,0c-0.5,0-0.7-0.1-0.6-0.6
			c0-0.2,0-0.5,0-0.7c0-0.4,0.2-0.5,0.6-0.5C48.7,10,49.5,10,50.4,10z"/>
		<path class="st0" d="M79.1,16.4c-1.7,1.1-3.2,1.1-4.6,0c-1.4-1-2-2.8-1.6-4.5s1.9-3,3.5-3.2c0.2,0,0.4,0,0.6,0
			c0.6,0,1.2,0.5,1.8,0.6c0.4,0.1,0.9-0.5,1.5-0.4C80.7,9,80.9,9,80.9,9.5c0,2.6,0,5.2,0,7.8c-0.1,1.8-1.1,3.1-2.7,3.6
			c-1.8,0.5-3.6-0.1-4.6-1.5c-0.2-0.3-0.6-0.5-0.2-0.9c0.5-0.5,1.3-0.5,1.7-0.1c0.6,0.8,1.3,1.1,2.3,1C78.6,19.1,79.3,18,79.1,16.4z
			 M79.3,13c0-1.5-1-2.6-2.3-2.6s-2.4,1.1-2.4,2.6c0,1.4,1.1,2.6,2.4,2.6C78.3,15.5,79.3,14.4,79.3,13z"/>
		<path class="st0" d="M67.7,17.2c-2.4,0-4.3-1.8-4.3-4.2s1.9-4.3,4.3-4.3s4.3,1.8,4.3,4.2C72,15.4,70.1,17.2,67.7,17.2z M70.1,13
			c0-1.5-1-2.6-2.4-2.6c-1.3,0-2.4,1.1-2.4,2.5c0,1.5,1,2.6,2.4,2.6S70.1,14.4,70.1,13z"/>
		<path class="st0" d="M89.2,17.2c-2.5,0-4.3-1.9-4.2-4.4c0-2.4,1.9-4.2,4.2-4.1c1.6,0,3.1,1.3,3.6,2.9c0.1,0.5-0.2,0.5-0.4,0.6
			c-1.5,0.6-3,1.2-4.4,1.8c-0.7,0.3-0.7,0.5-0.2,1c0.9,0.8,2.3,0.7,3.3-0.2c0.2-0.1,0.3-0.4,0.6-0.3c0.4,0.3,0.9,0.4,1.1,0.8
			c0.1,0.1-0.1,0.3-0.3,0.4C91.6,16.7,90.5,17.2,89.2,17.2z M89.2,10.4c-1.2,0-2.2,0.8-2.3,1.9c-0.1,0.4,0,0.6,0.5,0.4
			c0.8-0.4,1.6-0.7,2.5-1c0.3-0.1,0.7-0.1,0.7-0.5s-0.5-0.5-0.8-0.7C89.5,10.4,89.3,10.4,89.2,10.4z"/>
		<path class="st0" d="M58.3,17.2c-2.4,0-4.3-1.9-4.2-4.3c0-2.4,1.9-4.2,4.3-4.2c2.4,0,4.3,1.9,4.2,4.3
			C62.6,15.4,60.8,17.2,58.3,17.2z M60.8,13c0-1.5-1-2.6-2.4-2.6S56,11.5,56,12.9c0,1.5,1,2.6,2.3,2.6C59.7,15.5,60.7,14.5,60.8,13z
			"/>
		<path class="st1" d="M84.1,10.7c0,1.8,0,3.7,0,5.5c0,0.6-0.1,0.8-0.7,0.8c-1.4-0.1-1.2,0.1-1.2-1.1c0-3.5,0-7,0-10.6
			c0-0.8,0.3-0.9,1-0.9s1,0.1,0.9,0.9C84,7.1,84.1,8.9,84.1,10.7z"/>
	</g>
	<g>
		<path class="st2" d="M81.1,29.7c0.1,0.1,0.2,0.2,0.2,0.2c1.1,0.6,1.7,1.5,1.6,2.8c-0.1,1.4-1,2.4-2.3,2.8
			c-1.7,0.5-3.5,0.2-5.3,0.2c-0.4,0-0.3-0.4-0.3-0.7c0-2.9,0-5.7,0-8.6c0-0.7-0.3-1.7,0.2-2.2c0.5-0.4,1.4-0.1,2.1-0.1s1.4,0,2.1,0
			c1.9,0.1,3.2,1.6,3.1,3.4C82.5,28.5,81.9,29.2,81.1,29.7z M76.5,32.4c0,0.5,0,0.9,0,1.4c0,0.3,0,0.5,0.4,0.5c1,0,2,0.1,3.1-0.1
			c0.9-0.2,1.5-1,1.5-1.9c0-0.8-0.7-1.6-1.5-1.8c-0.5-0.1-1-0.1-1.5-0.1C76.5,30.5,76.5,30.5,76.5,32.4z M76.5,27.3
			c0,0.5,0,0.9,0,1.4c0,0.2,0,0.4,0.3,0.4c1,0,1.9,0.1,2.9-0.1c0.8-0.2,1.4-1,1.3-1.7c0-0.8-0.6-1.5-1.4-1.7
			c-0.5-0.1-0.9-0.1-1.4-0.1C76.5,25.6,76.5,25.6,76.5,27.3z"/>
		<path class="st0" d="M135.6,34.7c-1.9,1.9-4.2,1.3-5.3,0.1c-1.5-1.7-1.6-4.5,0-6.1c1.5-1.6,3.4-1.6,5.3,0c0.2-0.3-0.2-1,0.6-1
			c0.7,0,0.9,0.1,0.9,0.9c-0.1,2.4,0,4.8,0,7.2c0,1.7-1.1,3-2.7,3.5c-1.8,0.5-3.4,0-4.4-1.4c-0.2-0.2-0.7-0.6-0.2-0.9
			c0.4-0.2,0.8-0.8,1.4,0c0.6,1,1.6,1.1,2.7,0.9c1-0.2,1.6-1,1.8-2.1C135.7,35.6,135.6,35.2,135.6,34.7z M135.6,31.7
			c0-1.8-1.3-3.1-2.8-2.8c-1.4,0.2-2.3,1.6-2.2,3.2c0.2,1.5,1.3,2.6,2.6,2.5C134.7,34.6,135.7,33.4,135.6,31.7z"/>
		<path class="st2" d="M101.1,33.5c0.6-1.7,1.1-3.4,1.6-5.1c0.2-0.6,0.5-0.6,1-0.6s0.8,0.1,1,0.7c0.5,1.7,1.1,3.4,1.7,5.2
			c0.4-0.7,0.5-1.4,0.7-2.1c0.3-1.1,0.6-2.2,1-3.2c0.1-0.4,1.2-0.7,1.5-0.4c0.2,0.2,0,0.3,0,0.5c-0.7,2.3-1.5,4.6-2.2,6.9
			c-0.2,0.5-0.5,0.5-0.9,0.5s-0.8,0-1-0.5c-0.5-1.8-1.1-3.5-1.7-5.3c-0.4,0.3-0.4,0.7-0.5,1.1c-0.4,1.3-0.9,2.7-1.3,4
			c-0.2,0.6-0.5,0.7-1,0.7c-0.6,0-0.8-0.2-1-0.7c-0.7-2.2-1.4-4.3-2.1-6.4c-0.1-0.2-0.5-0.7,0-0.7c0.4-0.1,1.2-0.4,1.4,0.4
			c0.4,1.5,0.9,2.9,1.3,4.4c0.1,0.3,0.2,0.6,0.3,0.9C101,33.5,101,33.5,101.1,33.5z"/>
		<path class="st0" d="M44.7,36c-1.8,0-3.4-1.1-4-2.5c-0.2-0.4-0.2-0.7,0.3-0.8c0.4-0.1,0.7-0.6,1.1,0.2c0.7,1.5,2.2,2.1,3.6,1.6
			c0.6-0.3,1.1-0.7,1.2-1.4c0.1-0.8-0.2-1.4-0.8-1.8s-1.2-0.6-1.8-0.8c-0.6-0.2-1.3-0.4-1.9-0.8c-2-1.2-2-3.7,0-5
			c1.7-1.1,4.4-0.5,5.4,1.2c0.1,0.2,0.5,0.6,0,0.7c-0.4,0.1-0.8,0.8-1.3,0.1c-0.8-1.1-2.2-1.4-3.3-0.8c-1,0.6-1.1,1.8-0.1,2.5
			c0.4,0.3,0.9,0.5,1.4,0.7c0.6,0.2,1.2,0.4,1.8,0.7c1.6,0.8,2.3,2.1,2,3.7C48,34.9,46.7,36,45,36.1C45,36,44.8,36,44.7,36z"/>
		<path class="st1" d="M67.8,32.1c-0.8,0-1.7,0-2.5,0c-0.6,0-0.7,0.2-0.5,0.7c0.3,0.9,0.9,1.6,1.8,1.8c1,0.2,1.9,0.1,2.5-0.9
			c0.5-0.7,0.9-0.1,1.3,0.1c0.5,0.2,0,0.6-0.1,0.8c-1,1.4-2.9,1.9-4.6,1.2s-2.7-2.5-2.5-4.4c0.2-1.6,0.9-2.8,2.4-3.4
			c1.3-0.6,2.7-0.4,3.9,0.5c1.1,0.8,1.4,2,1.5,3.3c0,0.4-0.2,0.5-0.5,0.5C69.6,32.1,68.7,32.1,67.8,32.1z M67,30.8
			c0.6,0,1.2,0,1.8,0c0.5,0,0.5-0.2,0.4-0.6c-0.3-0.8-1.2-1.4-2.2-1.3c-0.9,0-1.8,0.7-2.1,1.5c-0.1,0.3-0.1,0.4,0.3,0.4
			C65.8,30.8,66.4,30.8,67,30.8z"/>
		<path class="st2" d="M55.1,34.7c-1.1,1.2-2.3,1.5-3.6,1.1c-1.1-0.3-1.8-1.1-1.9-2.2C49.5,32.4,50,31.5,51,31
			c1.2-0.6,2.4-0.6,3.6-0.2c0.6,0.2,0.6-0.1,0.5-0.5c-0.2-0.7-0.6-1.1-1.2-1.3c-0.8-0.2-1.7-0.2-2.2,0.4s-0.9,0.4-1.4,0.2
			c-0.4-0.2-0.4-0.3-0.2-0.6c0.7-1.1,2.2-1.7,3.8-1.4c1.4,0.2,2.4,1.2,2.6,2.5c0.3,1.7,0.1,3.5,0.1,5.3c0,0.4-0.3,0.4-0.5,0.4
			c-0.3-0.1-0.8,0.2-0.9-0.3C55.1,35.3,55.1,35.1,55.1,34.7z M53.5,31.8c-0.7,0-1.3,0-1.8,0.4c-0.5,0.3-0.7,0.8-0.6,1.4
			c0.1,0.6,0.5,0.8,1,1c0.8,0.2,1.6,0,2.2-0.6c0.5-0.4,0.9-0.9,0.7-1.6C54.9,31.8,54.2,31.9,53.5,31.8
			C53.6,31.8,53.5,31.8,53.5,31.8z"/>
		<path class="st1" d="M93.2,36c-2.3,0-4.1-1.8-4.1-4.2c0-2.5,1.7-4.2,4.1-4.2s4.1,1.8,4.1,4.2C97.3,34.2,95.6,36,93.2,36z
			 M95.8,31.8c0-1.6-1.1-2.8-2.5-2.8c-1.5,0-2.6,1.3-2.6,2.9s1.1,2.8,2.5,2.8C94.7,34.6,95.8,33.4,95.8,31.8z"/>
		<path class="st3" d="M122.6,28.5c0.2,0,0.3-0.1,0.4-0.2c1-0.8,2.1-1,3.3-0.5c1.2,0.5,1.6,1.5,1.7,2.6c0.1,1.6,0,3.3,0,4.9
			c0,0.7-0.5,0.4-0.9,0.4c-0.3,0-0.7,0.1-0.7-0.5c0-1.4,0-2.7,0-4.1c0-1.5-0.6-2.2-1.9-2.2c-1.2,0-2.1,0.9-2.1,2.2s-0.1,2.6,0,3.9
			c0,0.6-0.2,0.8-0.8,0.8c-0.7,0-0.8-0.3-0.8-0.8c0-2.1,0-4.3,0-6.4c0-0.3-0.2-0.8,0.5-0.8c0.5,0,1.1-0.2,1,0.6
			C122.5,28.5,122.5,28.5,122.6,28.5z"/>
		<path class="st1" d="M113.4,36c-1.3,0-2.3-0.5-3.1-1.6c-0.1-0.2-0.6-0.6-0.1-0.8c0.4-0.2,0.8-0.7,1.3,0c0.6,1,1.6,1.3,2.6,1
			c0.5-0.2,0.8-0.4,0.9-1c0-0.5-0.3-0.8-0.8-1c-0.7-0.2-1.4-0.3-2.1-0.6c-1.4-0.5-2.1-1.4-1.8-2.6c0.3-1,1.1-1.5,2-1.8
			c1.4-0.4,3,0,3.7,1c0.1,0.2,0.6,0.5,0.1,0.7c-0.4,0.2-0.8,0.7-1.2,0.1c-0.6-0.8-1.5-0.8-2.4-0.6c-0.4,0.1-0.8,0.4-0.8,0.9
			s0.3,0.7,0.7,0.8c0.6,0.2,1.2,0.3,1.8,0.4c1.6,0.4,2.4,1.3,2.3,2.6c-0.1,1.2-1.1,2.4-2.6,2.5C113.9,36,113.5,36,113.4,36z"/>
		<path class="st3" d="M59.2,32.4c0-0.8,0-1.7,0-2.5c0-0.5-0.1-0.8-0.7-0.7c-0.5,0.1-0.8,0-0.8-0.7c0-0.6,0.2-0.8,0.8-0.7
			c0.5,0.1,0.7-0.1,0.7-0.7c0-2.1,1.2-3.2,3.3-3c0.2,0,0.7,0,0.6,0.4c-0.1,0.4,0,1-0.7,1c-1.4,0-1.7,0.4-1.7,1.8
			c0,0.4,0.2,0.6,0.6,0.5c0.2,0,0.5,0,0.7,0c0.7-0.1,0.9,0.2,0.8,0.8c0,0.5-0.2,0.6-0.6,0.6c-1.5,0-1.5,0-1.5,1.5s0,3,0,4.5
			c0,0.7-0.4,0.6-0.8,0.6c-0.4,0-0.8,0-0.7-0.6C59.2,34.3,59.2,33.3,59.2,32.4z"/>
		<path class="st2" d="M85.7,28.9c0.8-0.9,1.6-1.4,2.7-1.3c0.3,0,0.8-0.1,0.7,0.4c-0.1,0.4,0,1.1-0.8,1.1c-1.9,0.1-2.5,0.7-2.5,2.6
			c0,1.1,0,2.3,0,3.4c0,0.7-0.4,0.6-0.8,0.6c-0.5,0-0.7,0-0.7-0.6c0-2.2,0-4.4,0-6.6c0-0.5,0.1-0.8,0.7-0.7c0.5,0,0.9,0.1,0.8,0.7
			C85.7,28.6,85.7,28.7,85.7,28.9z"/>
		<path class="st0" d="M117.7,31.7c0-1.1,0-2.2,0-3.3c0-0.7,0.4-0.6,0.8-0.6s0.7,0,0.7,0.6c0,2.3,0,4.5,0,6.8c0,0.6-0.3,0.6-0.7,0.6
			c-0.4,0-0.8,0.1-0.8-0.6C117.7,34,117.7,32.9,117.7,31.7z"/>
		<path class="st2" d="M118.5,26.2c-0.6,0-1-0.5-1-1.1s0.5-1.1,1.1-1c0.6,0,1,0.5,1,1.1C119.5,25.7,119,26.2,118.5,26.2z"/>
	</g>
	<g>
		<g>
			<g>
				<g>
					<path class="st4" d="M17.6,39.7c-0.9-0.5-1.7-1.1-2.5-1.7c-1.7-1.2-3.4-2.5-4.9-3.9c-3.1-2.8-5.1-6.4-5.9-10.5
						c-0.6-2.7-0.8-5.4-0.8-8.1c-0.1-2.7-0.1-5.4,0-8.2h14.3v32.4H17.6z"/>
					<path class="st5" d="M17.6,39.8c0.1,0,0.2-0.1,0.3-0.1c2.1-1.5,4.2-3,6.2-4.6c3.7-3,6.1-6.8,7.1-11.5c0.6-2.8,0.7-5.6,0.7-8.5
						c0-2.6,0-5,0-7.6H17.5L17.6,39.8z"/>
				</g>
				<path class="st6" d="M3.3,5.5c0-1,0-2,0-3c-0.1-1.1,0.8-2,1.8-2.2c0.3-0.1,0.7-0.1,1-0.1c7.4,0,15.2,0,22.6,0
					c0.6,0,1.3,0,1.9,0.3c0.7,0.4,1.2,1.2,1.2,2c0,0.3,0,3.1,0,3.1c-4.1,0-8.6,0-12.7,0c-0.6,0-1.2,0-1.7,0c-0.2,0-0.4,0-0.6,0
					C12.4,5.5,7.9,5.5,3.3,5.5z"/>
			</g>
			<circle class="st7" cx="9.7" cy="2.8" r="0.8"/>
			<circle class="st7" cx="6.7" cy="2.8" r="0.8"/>
		</g>
		<rect x="3.3" y="5.5" class="st8" width="14.1" height="2"/>
		<rect x="17.4" y="5.5" class="st9" width="14.4" height="2"/>
	</g>
	<polygon class="st10" points="0.2,0 140.1,0 139.9,40 -0.2,40 	"/>
	<g>
		<path class="st11" d="M17.6,25.1c-2-0.1-3.9,0.6-5.5,1.7c-0.3,0.2-0.4,0.2-0.5-0.1c-0.5-1.5-0.7-1.1,0.6-1.9
			c1.6-0.9,3.5-1.4,5.5-1.4c2.1,0.1,4.1,0.6,6,1.6c0.4,0.2,0.5,0.4,0.3,0.8c-0.1,0.4-0.1,0.9-0.4,1s-0.6-0.3-0.9-0.4
			C20.9,25.6,19.3,25.1,17.6,25.1z"/>
		<path class="st11" d="M17.6,28.6c-1.4-0.1-2.7,0.4-3.8,1.2c-0.3,0.2-0.4,0.2-0.6-0.1c-0.7-1.1-0.9-0.9,0.4-1.6
			c1.2-0.8,2.7-1.1,4.1-1.1c1.6,0,3.2,0.5,4.6,1.4c0.3,0.2,0.4,0.4,0.1,0.6c-0.2,0.3-0.4,0.7-0.6,0.9c-0.3,0.1-0.6-0.3-0.9-0.4
			C19.7,28.8,18.7,28.5,17.6,28.6z"/>
		<path class="st12" d="M17.6,34.3c-0.2,0-0.3-0.1-0.4-0.2c-0.8-0.8-1.6-1.6-2.4-2.4c-0.3-0.3-0.1-0.4,0.1-0.6
			c0.8-0.6,1.7-0.8,2.7-0.9c0.9,0,1.8,0.3,2.6,0.7c0.3,0.2,0.3,0.3,0.1,0.6C19.4,32.4,18.4,33.4,17.6,34.3z"/>
	</g>
	<circle class="st7" cx="17.6" cy="15.9" r="4.7"/>
</g>
</svg>
