<svg xmlns="http://www.w3.org/2000/svg" width="86" height="86" fill="none" viewBox="0 0 86 86">
    <path fill="#EA2127" d="M42.976 86c23.735 0 42.977-19.252 42.977-43S66.71 0 42.976 0C19.241 0 0 19.252 0 43s19.241 43 42.976 43z"/>
    <path fill="#fff" d="M40.248 24.262h4.561a.616.616 0 00.617-.617.618.618 0 00-.617-.627h-4.56a.627.627 0 00-.443 1.067.616.616 0 00.442.177zM39.915 32.893a2.397 2.397 0 00-1.72.718 2.439 2.439 0 003.075 3.755 2.438 2.438 0 00.364-3.755 2.397 2.397 0 00-1.72-.718zm.85 3.288a1.192 1.192 0 01-1.7 0 1.2 1.2 0 111.7 0zM43.697 28.036a2.439 2.439 0 003.077 3.751 2.438 2.438 0 10-3.077-3.75zm2.568 2.57a1.193 1.193 0 11-1.687-1.689 1.193 1.193 0 011.687 1.69zM39.895 28.886a.627.627 0 00-.88 0 .628.628 0 000 .87l6.471 6.476a.626.626 0 00.88-.88l-6.471-6.466zM42.898 54.352a.617.617 0 00-.617.617v13.437a.617.617 0 101.234 0V55a.619.619 0 00-.617-.648zM45.264 56.942a.617.617 0 00-.617.618v13.436a.617.617 0 101.234 0V57.56a.617.617 0 00-.617-.618z"/>
    <path fill="#fff" d="M58.137 40.916v-.728a11.752 11.752 0 00-6.31-10.523V15.794a.617.617 0 00-.617-.617h-4.227a.618.618 0 00-.627.617 3.845 3.845 0 01-3.843 3.845 3.842 3.842 0 01-3.842-3.845.617.617 0 00-.617-.617h-4.207a.618.618 0 00-.627.617v14.023c-3.822 2.246-5.672 5.464-5.895 10.29v.728c-.05 1.72-.121 3.865 1.072 5.059a3.377 3.377 0 002.508.951h3.357l-.06-.081h3.872a.617.617 0 00.617-.617 3.846 3.846 0 013.843-3.845 3.841 3.841 0 013.842 3.845.618.618 0 00.627.617h4.288a.618.618 0 01-.162.121h3.489a3.366 3.366 0 002.477-.89c1.193-1.204 1.112-3.349 1.042-5.079zm-28.81 4.128c-.809-.84-.748-2.671-.708-4.148v-.739c.193-4.047 1.608-6.809 4.581-8.792V45.6h-2.326a2.101 2.101 0 01-1.547-.556zm26.828.06a2.023 2.023 0 01-1.547.527h-2.801v-4.938a.618.618 0 00-1.234 0v4.897h-3.034a5.06 5.06 0 00-5.056-5.058 5.055 5.055 0 00-5.056 5.058h-3.033V24.262h1.314a.617.617 0 00.617-.617.617.617 0 00-.617-.627h-1.244V16.41h3.034a5.06 5.06 0 005.056 5.059 5.055 5.055 0 005.056-5.059h3.034v6.607h-1.315a.618.618 0 00-.617.627.617.617 0 00.617.617h1.244v11.332a.618.618 0 001.233 0v-4.411a10.357 10.357 0 014.996 9.045v.739c.08 1.477.141 3.308-.647 4.138z"/>
    <path fill="#fff" d="M50.38 46.845h-1.364l.94 3.47a.366.366 0 01-.091.334 1.01 1.01 0 01-.758.375h-12.67a1.011 1.011 0 01-.77-.385c-.14-.172-.11-.293-.09-.334l.88-3.4H35.1l-.809 3.036a1.73 1.73 0 00.324 1.467c.264.331.614.583 1.011.728-1.213 1.68-2.245 3.977-2.022 5.889A3.654 3.654 0 0035 60.665a9.856 9.856 0 012.518 2.793v-2.236a11.124 11.124 0 00-1.729-1.608 2.339 2.339 0 01-.93-1.73c-.162-1.74 1.01-4.048 2.285-5.596h2.68a.295.295 0 000 .091v13.426a.617.617 0 001.233 0V52.37v-.09h6.35c2.59 3.348 2.519 6.829-.171 10.38v2.023a11.991 11.991 0 003.306-6.333 8.847 8.847 0 00-1.506-6.07h.1a2.386 2.386 0 001.64-.689c.035-.042.069-.086.1-.131a1.69 1.69 0 00.354-1.518l-.85-3.096z"/>
</svg>
