<?xml version="1.0" encoding="utf-8"?>
<!-- Generator: Adobe Illustrator 22.0.0, SVG Export Plug-In . SVG Version: 6.00 Build 0)  -->
<svg version="1.1" id="Layer_1" xmlns="http://www.w3.org/2000/svg" xmlns:xlink="http://www.w3.org/1999/xlink" x="0px" y="0px"
	 viewBox="0 0 140 40" style="enable-background:new 0 0 140 40;" xml:space="preserve">
<style type="text/css">
	.st0{fill:#202D5C;}
	.st1{fill:#0689CB;}
	.st2{fill:#231F20;}
	.st3{fill:#3C80AD;}
	.st4{fill:#931B1D;}
	.st5{fill:#F16622;}
	.st6{fill:#F7981D;}
	.st7{fill:#CB2026;}
	.st8{fill:#FFFFFF;}
	.st9{fill:#F3F2F2;}
	.st10{fill:#293688;}
	.st11{fill:#FEDB41;}
	.st12{fill:#FFCC33;}
	.st13{fill:#FEA832;}
	.st14{fill:#FE9923;}
	.st15{fill-rule:evenodd;clip-rule:evenodd;}
	.st16{fill-rule:evenodd;clip-rule:evenodd;fill:#5CA3D9;}
	.st17{fill-rule:evenodd;clip-rule:evenodd;fill:#42278A;}
	.st18{fill-rule:evenodd;clip-rule:evenodd;fill:#3F2689;}
	.st19{fill:#3451AA;}
	.st20{fill:#EDDE00;}
	.st21{fill:#0152B0;}
	.st22{fill:#F8F9FB;}
	.st23{fill:#F2F5F8;}
	.st24{fill:#FE7000;}
	.st25{fill:#FE7102;}
	.st26{fill:#0B2972;}
	.st27{fill:#FFB20C;}
	.st28{fill:#23AA4A;}
	.st29{fill:#60BB46;}
	.st30{fill:#0B9445;}
	.st31{fill:#0C9446;}
	.st32{fill:#8CC63F;}
	.st33{fill:#0B9444;}
	.st34{fill:#66BCE1;}
	.st35{fill:#1595D0;}
	.st36{fill:#333333;}
	.st37{fill:#015390;}
	.st38{fill:#EC2224;}
	.st39{fill:#009F04;}
	.st40{fill:#21045E;}
	.st41{fill:#00C13E;}
	.st42{fill:#4E5CC3;}
	.st43{fill:#222AA5;}
	.st44{fill:#B1DCFF;}
	.st45{fill:#84CAFF;}
	.st46{fill:#07AA29;}
	.st47{fill:#05801F;}
	.st48{fill:#FFE200;}
	.st49{fill:#ECBB33;}
	.st50{fill:#00763E;}
	.st51{fill:#7FBE26;}
	.st52{fill:#595757;}
	.st53{fill:#3363A8;}
	.st54{fill:#1E1917;}
	.st55{fill:#231815;}
	.st56{fill:#EE3325;}
	.st57{fill:#030303;}
	.st58{fill:#FEFEFE;}
	.st59{fill:#0593DB;}
	.st60{fill:#0091DB;}
	.st61{fill:#2CACE4;}
	.st62{fill:#006546;}
	.st63{fill:#FF6600;}
	.st64{fill:#FE000C;}
	.st65{fill:#363433;}
	.st66{fill:#FCFCFC;}
	.st67{fill:#80C403;}
	.st68{fill:#009DC3;}
	.st69{fill:#002731;}
	.st70{fill:#0086AF;}
	.st71{fill:#004F62;}
	.st72{fill:#77D9A5;}
	.st73{fill:#99D8E7;}
</style>
<g>
	<g>
		<path class="st11" d="M36.1,1C25.5,1,16.8,9.5,16.8,19.9S25.5,39,36.1,39s19.1-8.6,19.1-19.1S46.6,1,36.1,1z"/>
		<path class="st12" d="M55.1,19.9C55.1,30.4,46.6,39,36,39V1C46.6,1,55.1,9.5,55.1,19.9z"/>
		<path class="st13" d="M36.1,5.4c-8,0-14.7,6.5-14.7,14.5S28,34.5,36.1,34.5c8,0,14.6-6.6,14.6-14.6S44.1,5.4,36.1,5.4z"/>
		<path class="st14" d="M50.6,19.9c0,8-6.6,14.6-14.6,14.6V5.4C44.1,5.4,50.6,11.9,50.6,19.9z"/>
		<path class="st11" d="M35.9,16l-2.1,6.3l-2-6.3h-1.9l-2.1,6.2l-2-6.2h-2.1l2.9,8.9h2.2l2-6l2,6H35l2.9-8.9H35.9z M43.1,25.1
			c1.5,0,2.8-0.6,3.7-1.6l-1.3-1.2c-0.6,0.7-1.3,1.1-2.2,1.1c-1.7,0-2.8-1.2-2.8-2.8c0-1.7,1.2-2.8,2.8-2.8c0.9,0,1.6,0.4,2.2,1
			l1.3-1.2c-0.8-1-2.1-1.6-3.6-1.6c-2.8,0-4.8,1.9-4.8,4.6S40.4,25.1,43.1,25.1z"/>
	</g>
	<g>
		<path class="st14" d="M69,16.7c0.6,0.6,1,1.3,1,2.4c0,1.1-0.3,1.9-1,2.5c-0.6,0.6-1.5,0.9-2.7,0.9h-1.6V25h-2.4v-9.1h4
			C67.5,15.9,68.4,16.2,69,16.7z M67.3,20.2c0.3-0.2,0.4-0.6,0.4-1.1c0-0.4-0.1-0.8-0.4-1c-0.3-0.2-0.6-0.4-1.1-0.4h-1.5v2.8h1.5
			C66.7,20.6,67,20.5,67.3,20.2z"/>
		<path class="st14" d="M80.7,16.7c0.6,0.6,1,1.3,1,2.4c0,1.1-0.3,1.9-1,2.5c-0.6,0.6-1.5,0.9-2.7,0.9h-1.6V25H74v-9.1h4
			C79.2,15.9,80.1,16.2,80.7,16.7z M79,20.2c0.3-0.2,0.4-0.6,0.4-1.1c0-0.4-0.1-0.8-0.4-1s-0.6-0.4-1.1-0.4h-1.5v2.8h1.5
			C78.4,20.6,78.8,20.5,79,20.2z"/>
		<path class="st14" d="M89.7,16.4c0.8,0.4,1.3,1,1.8,1.7c0.4,0.7,0.6,1.5,0.6,2.4c0,0.9-0.2,1.7-0.6,2.4c-0.4,0.7-1,1.3-1.8,1.7
			c-0.7,0.4-1.6,0.6-2.5,0.6c-0.9,0-1.8-0.2-2.5-0.6c-0.8-0.4-1.3-1-1.8-1.7s-0.6-1.5-0.6-2.4c0-0.9,0.2-1.7,0.6-2.4
			c0.4-0.7,1-1.3,1.8-1.7c0.7-0.4,1.6-0.6,2.5-0.6C88.1,15.7,89,15.9,89.7,16.4z M86,18.1c-0.4,0.2-0.7,0.6-0.9,1s-0.3,0.9-0.3,1.4
			c0,0.5,0.1,1,0.3,1.4c0.2,0.4,0.5,0.7,0.9,1s0.8,0.4,1.2,0.4c0.5,0,0.9-0.1,1.2-0.4s0.7-0.6,0.9-1s0.3-0.9,0.3-1.4
			c0-0.5-0.1-0.9-0.3-1.4s-0.5-0.7-0.9-1c-0.4-0.2-0.8-0.4-1.2-0.4C86.8,17.8,86.4,17.9,86,18.1z"/>
		<path class="st14" d="M93.3,15.9h2.4V25h-2.4V15.9z"/>
		<path class="st14" d="M103.7,15.9h2.2V25h-2.1l-4.1-5.4V25h-2.2v-9.1h2.1l4.1,5.5L103.7,15.9z"/>
		<path class="st14" d="M106.9,15.9h7.8v2H112V25h-2.4v-7.1h-2.7V15.9z"/>
		<path class="st14" d="M120.4,17.9c-0.6-0.2-1-0.3-1.4-0.3c-0.3,0-0.5,0.1-0.7,0.2c-0.2,0.1-0.3,0.3-0.3,0.5c0,0.2,0.1,0.4,0.2,0.5
			s0.3,0.2,0.5,0.3s0.5,0.2,1,0.3c0.6,0.2,1.2,0.4,1.6,0.5c0.4,0.2,0.8,0.5,1.1,0.8s0.4,0.9,0.4,1.5c0,0.6-0.2,1.1-0.5,1.6
			c-0.3,0.4-0.8,0.8-1.3,1c-0.6,0.2-1.2,0.3-1.9,0.3c-0.8,0-1.5-0.1-2.3-0.4s-1.4-0.6-1.9-1.1l0.9-1.9c0.5,0.4,1,0.7,1.6,1
			c0.6,0.3,1.2,0.4,1.7,0.4c0.4,0,0.6-0.1,0.8-0.2c0.2-0.1,0.3-0.3,0.3-0.6c0-0.2-0.1-0.4-0.2-0.5c-0.2-0.1-0.3-0.2-0.6-0.3
			c-0.2-0.1-0.6-0.2-1-0.3c-0.6-0.2-1.1-0.3-1.5-0.5c-0.4-0.2-0.8-0.4-1-0.8c-0.3-0.4-0.4-0.8-0.4-1.4c0-0.6,0.1-1.1,0.4-1.5
			c0.3-0.4,0.7-0.8,1.3-1c0.5-0.2,1.2-0.3,1.9-0.3c0.7,0,1.3,0.1,2,0.3c0.6,0.2,1.2,0.4,1.7,0.7l-0.9,1.9
			C121.5,18.3,120.9,18.1,120.4,17.9z"/>
	</g>
</g>
</svg>
