<svg xmlns="http://www.w3.org/2000/svg" width="86" height="86" fill="none" viewBox="0 0 86 86">
    <path fill="#EA2127" d="M42.976 86c23.735 0 42.977-19.252 42.977-43S66.71 0 42.976 0C19.241 0 0 19.252 0 43s19.241 43 42.976 43z"/>
    <path fill="#fff" d="M38.224 58.86c-1.012 0-1.82.809-1.82 1.82 0 1.012.808 1.822 1.82 1.822 1.01 0 1.82-.81 1.82-1.822 0-1.011-.81-1.82-1.82-1.82zM45.403 60.68c0 1.012.809 1.822 1.82 1.822 1.011 0 1.82-.81 1.82-1.822 0-1.011-.809-1.82-1.82-1.82-1.011 0-1.82.809-1.82 1.82zM63.403 53.7l-6.573-7.184-1.113 1.012 6.573 7.284c.708.709 1.011 1.72 1.011 2.63v13.053h1.618V57.443c0-1.416-.606-2.732-1.516-3.744zM48.74 22.74l-9.1-3.946c-.203-.102-.405-.102-.709 0l-9.1 3.946c-.304.1-.506.404-.506.708v10.826c0 1.82.91 3.54 2.427 4.654l6.977 5.059c.303.202.708.202 1.011 0l6.978-5.06c1.516-1.112 2.426-2.832 2.426-4.653V23.549c.102-.304-.1-.607-.404-.81zm-1.112 11.534c0 1.315-.607 2.529-1.72 3.338l-6.572 4.756-6.573-4.756c-1.112-.809-1.72-2.023-1.72-3.338v-10.22l8.293-3.641 8.292 3.642v10.219z"/>
    <path fill="#fff" d="M34.886 32.655c-.404-.304-.91-.203-1.112.202-.303.405-.202.91.202 1.113l3.337 2.428c.101.101.304.203.506.203h.101c.202 0 .405-.203.506-.405l6.573-9.915c.202-.203.202-.607.1-.81-.1-.202-.404-.404-.707-.506-.303 0-.607.102-.708.405l-6.067 9.207-2.73-1.922z"/>
    <path fill="#fff" d="M54.706 54.812V33.667c0-1.518-.91-2.833-2.123-3.44v-8.803V21.121c0-.101-.102-.203-.203-.304-.1-.101-.1-.101-.202-.101l-12.337-5.464c-.202-.1-.404-.1-.707 0l-12.337 5.464c-.101 0-.101.101-.202.101-.203.203-.304.405-.304.607v12.95c0 2.935 1.416 5.667 3.742 7.387l1.314 1.011V66.65c0 2.125 1.72 3.946 3.944 3.946h15.472c1.314 0 2.528-.607 3.235-1.72l.81.81.91.707 1.01-1.214-.91-.708c-2.022-1.72-2.83-4.452-2.022-6.981.101-.304 0-.607-.202-.81l-4.854-5.463c-.506-.607-.506-1.416.101-2.023.303-.304.708-.405 1.011-.405.405 0 .81.202 1.012.506l7.786 8.498 1.112-1.011-5.056-5.97zm-3.842-20.538c0 .607-.101 1.214-.203 1.72-.1.404-.202.708-.404 1.112 0 .102-.101.203-.101.203-.304.708-.81 1.315-1.315 1.922l-.202.203c-.303.303-.607.506-.91.809l-8.494 6.07-8.494-6.07c-1.214-.91-2.124-2.024-2.63-3.44-.303-.81-.505-1.72-.505-2.63V21.93l11.528-5.059 9.505 4.149 2.022.91v12.344h.203zM38.122 50.867l-.404-1.518h2.225l.202 1.518h-2.023zm2.225 1.618l.202 1.518h-1.618l-.404-1.518h1.82zm9 5.464l2.932 3.237c-.505 2.024-.303 4.149.708 5.97-.303 1.012-1.213 1.619-2.224 1.619H35.19c-1.315 0-2.326-1.012-2.326-2.327v-.81h17.899v-1.517H32.864V43.784l5.562 4.047h-1.618c-.405 0-.81.304-.81.81v.202l1.518 6.273c.1.303.404.607.708.607h9c.1.202.202.405.404.506l.606.708c-.1.202-.404.304-.606.304H37.516v1.517h10.112c.708 0 1.314-.303 1.719-.81zm-7.584-7.082l-.203-1.518h2.933l-.202 1.518h-2.528zm2.326 1.618l-.203 1.518h-1.719l-.202-1.518h2.123zm3.337 0c-.304.506-.506 1.012-.506 1.518h-1.517l.202-1.518h1.82zm-1.618-1.618l.202-1.518h2.224l-.404 1.518h-2.022zm7.381 2.225l-1.01-1.113c-.506-.607-1.315-.91-2.124-1.011h-.607l.607-2.429.606-2.529h.91v-1.518h-1.516c-.405 0-.708.203-.708.607l-.607 2.53h-8.292l-.101.101s-.101 0-.101.101c0 0 .101 0 .101-.101l.101-.101 8.494-6.07c.304-.203.506-.405.81-.608l.201-.202.405-.405.303-.303c.102-.101.203-.203.304-.405.1-.101.202-.304.303-.405 0-.1.101-.1.101-.202.405-.708.708-1.417.91-2.125.101-.303.101-.506.202-.81h.81v16.998h-.102zm0-18.616h-.606v-2.428c.404.404.606.91.606 1.517v.911z"/>
</svg>
