<?xml version="1.0" encoding="utf-8"?>
<!-- Generator: Adobe Illustrator 22.0.0, SVG Export Plug-In . SVG Version: 6.00 Build 0)  -->
<svg version="1.1" id="Layer_1" xmlns="http://www.w3.org/2000/svg" xmlns:xlink="http://www.w3.org/1999/xlink" x="0px" y="0px"
	 viewBox="0 0 140 40" style="enable-background:new 0 0 140 40;" xml:space="preserve">
<style type="text/css">
	.st0{fill:#202D5C;}
	.st1{fill:#0689CB;}
	.st2{fill:#231F20;}
	.st3{fill:#3C80AD;}
	.st4{fill:#931B1D;}
	.st5{fill:#F16622;}
	.st6{fill:#F7981D;}
	.st7{fill:#CB2026;}
	.st8{fill:#FFFFFF;}
	.st9{fill:#F3F2F2;}
	.st10{fill:#293688;}
	.st11{fill:#FEDB41;}
	.st12{fill:#FFCC33;}
	.st13{fill:#FEA832;}
	.st14{fill:#FE9923;}
	.st15{fill-rule:evenodd;clip-rule:evenodd;}
	.st16{fill-rule:evenodd;clip-rule:evenodd;fill:#5CA3D9;}
	.st17{fill-rule:evenodd;clip-rule:evenodd;fill:#42278A;}
	.st18{fill-rule:evenodd;clip-rule:evenodd;fill:#3F2689;}
	.st19{fill:#3451AA;}
	.st20{fill:#EDDE00;}
	.st21{fill:#0152B0;}
	.st22{fill:#F8F9FB;}
	.st23{fill:#F2F5F8;}
	.st24{fill:#FE7000;}
	.st25{fill:#FE7102;}
	.st26{fill:#0B2972;}
	.st27{fill:#FFB20C;}
	.st28{fill:#23AA4A;}
	.st29{fill:#60BB46;}
	.st30{fill:#0B9445;}
	.st31{fill:#0C9446;}
	.st32{fill:#8CC63F;}
	.st33{fill:#0B9444;}
	.st34{fill:#66BCE1;}
	.st35{fill:#1595D0;}
	.st36{fill:#333333;}
	.st37{fill:#015390;}
	.st38{fill:#EC2224;}
	.st39{fill:#009F04;}
	.st40{fill:#21045E;}
	.st41{fill:#00C13E;}
	.st42{fill:#4E5CC3;}
	.st43{fill:#222AA5;}
	.st44{fill:#B1DCFF;}
	.st45{fill:#84CAFF;}
	.st46{fill:#07AA29;}
	.st47{fill:#05801F;}
	.st48{fill:#FFE200;}
	.st49{fill:#ECBB33;}
	.st50{fill:#00763E;}
	.st51{fill:#7FBE26;}
	.st52{fill:#595757;}
	.st53{fill:#3363A8;}
	.st54{fill:#1E1917;}
	.st55{fill:#231815;}
	.st56{fill:#EE3325;}
	.st57{fill:#030303;}
	.st58{fill:#FEFEFE;}
	.st59{fill:#0593DB;}
	.st60{fill:#0091DB;}
	.st61{fill:#2CACE4;}
	.st62{fill:#006546;}
	.st63{fill:#FF6600;}
	.st64{fill:#FE000C;}
	.st65{fill:#363433;}
	.st66{fill:#FCFCFC;}
	.st67{fill:#80C403;}
	.st68{fill:#009DC3;}
	.st69{fill:#002731;}
	.st70{fill:#0086AF;}
	.st71{fill:#004F62;}
	.st72{fill:#77D9A5;}
	.st73{fill:#99D8E7;}
	.st74{fill:#B6CEE7;}
	.st75{filter:url(#Adobe_OpacityMaskFilter);}
	.st76{mask:url(#XMLID_8_);}
	.st77{filter:url(#Adobe_OpacityMaskFilter_1_);}
	.st78{fill:url(#XMLID_10_);}
	.st79{opacity:0.2;mask:url(#XMLID_9_);}
	.st80{filter:url(#Adobe_OpacityMaskFilter_2_);}
	.st81{filter:url(#Adobe_OpacityMaskFilter_3_);}
	.st82{filter:url(#Adobe_OpacityMaskFilter_4_);}
	.st83{mask:url(#XMLID_12_);}
	.st84{fill:url(#SVGID_3_);}
	.st85{fill:#1C4593;}
	.st86{fill:url(#SVGID_4_);}
	.st87{opacity:0.3;fill:#FFFFFF;enable-background:new    ;}
	.st88{clip-path:url(#SVGID_6_);}
	.st89{clip-path:url(#SVGID_16_);}
	.st90{clip-path:url(#SVGID_20_);}
	.st91{clip-path:url(#SVGID_26_);}
	.st92{clip-path:url(#SVGID_30_);}
	.st93{clip-path:url(#SVGID_42_);}
	.st94{clip-path:url(#SVGID_46_);}
	.st95{clip-path:url(#SVGID_52_);}
	.st96{clip-path:url(#SVGID_56_);}
	.st97{clip-path:url(#SVGID_62_);}
	.st98{fill:#F9B31E;}
	.st99{fill:#E30520;}
	.st100{fill:none;stroke:#FFFFFF;stroke-width:0.1553;}
	.st101{fill:#005596;}
	.st102{fill-rule:evenodd;clip-rule:evenodd;fill:#FFFFFF;}
	.st103{fill-rule:evenodd;clip-rule:evenodd;fill:#005596;}
	.st104{fill-rule:evenodd;clip-rule:evenodd;fill:#F7AA0F;}
	.st105{fill:none;stroke:#FFFFFF;stroke-width:0.1812;}
</style>
<g>
	<polygon class="st98" points="105.8,35 106.6,35 107.3,34.9 108.1,34.8 108.8,34.7 109.5,34.5 110.2,34.3 110.9,34.1 111.6,33.8 
		112.3,33.5 112.9,33.2 113.5,32.8 114.1,32.5 114.7,32 115.3,31.6 115.8,31.1 116.3,30.6 116.8,30.1 117.3,29.6 117.7,29 
		118.1,28.4 118.5,27.8 118.9,27.2 119.2,26.6 119.5,25.9 119.8,25.3 120,24.6 120.2,23.9 120.4,23.1 120.5,22.4 120.6,21.7 
		120.6,20.9 120.7,20.1 120.6,19.4 120.6,18.6 120.5,17.9 120.4,17.2 120.2,16.5 120,15.8 119.8,15.1 119.5,14.4 119.2,13.7 
		118.9,13.1 118.5,12.5 118.1,11.9 117.7,11.3 117.3,10.8 116.8,10.2 116.3,9.7 115.8,9.2 115.3,8.7 114.7,8.3 114.1,7.9 113.5,7.5 
		112.9,7.2 112.3,6.8 111.6,6.5 110.9,6.3 110.2,6 109.5,5.8 108.8,5.7 108.1,5.5 107.3,5.4 106.6,5.4 105.8,5.4 105.1,5.4 
		104.3,5.4 103.6,5.5 102.8,5.7 102.1,5.8 101.4,6 100.7,6.3 100.1,6.5 99.4,6.8 98.8,7.2 98.2,7.5 97.6,7.9 97,8.3 96.4,8.7 
		95.9,9.2 95.4,9.7 94.9,10.2 94.4,10.8 94,11.3 93.6,11.9 93.2,12.5 92.8,13.1 92.5,13.7 92.2,14.4 91.9,15.1 91.7,15.8 91.5,16.5 
		91.3,17.2 91.2,17.9 91.1,18.6 91.1,19.4 91,20.1 91.1,20.9 91.1,21.7 91.2,22.4 91.3,23.1 91.5,23.9 91.7,24.6 91.9,25.3 
		92.2,25.9 92.5,26.6 92.8,27.2 93.2,27.8 93.6,28.4 94,29 94.4,29.6 94.9,30.1 95.4,30.6 95.9,31.1 96.4,31.6 97,32 97.6,32.5 
		98.2,32.8 98.8,33.2 99.4,33.5 100.1,33.8 100.7,34.1 101.4,34.3 102.1,34.5 102.8,34.7 103.6,34.8 104.3,34.9 105.1,35 	"/>
	<polygon class="st99" points="86,35 86.8,35 87.5,34.9 88.3,34.8 89,34.7 89.7,34.5 90.4,34.3 91.1,34.1 91.8,33.8 92.4,33.5 
		93.1,33.2 93.7,32.8 94.3,32.5 94.9,32 95.4,31.6 96,31.1 96.5,30.6 97,30.1 97.4,29.6 97.9,29 98.3,28.4 98.7,27.8 99,27.2 
		99.3,26.6 99.6,25.9 99.9,25.3 100.1,24.6 100.3,23.9 100.5,23.1 100.6,22.4 100.7,21.7 100.8,20.9 100.8,20.1 100.8,19.4 
		100.7,18.6 100.6,17.9 100.5,17.2 100.3,16.5 100.1,15.8 99.9,15.1 99.6,14.4 99.3,13.7 99,13.1 98.7,12.5 98.3,11.9 97.9,11.3 
		97.4,10.8 97,10.2 96.5,9.7 96,9.2 95.4,8.7 94.9,8.3 94.3,7.9 93.7,7.5 93.1,7.2 92.4,6.8 91.8,6.5 91.1,6.3 90.4,6 89.7,5.8 
		89,5.7 88.3,5.5 87.5,5.4 86.8,5.4 86,5.4 85.2,5.4 84.5,5.4 83.7,5.5 83,5.7 82.3,5.8 81.6,6 80.9,6.3 80.2,6.5 79.6,6.8 
		78.9,7.2 78.3,7.5 77.7,7.9 77.1,8.3 76.6,8.7 76,9.2 75.5,9.7 75,10.2 74.6,10.8 74.1,11.3 73.7,11.9 73.3,12.5 73,13.1 
		72.6,13.7 72.3,14.4 72.1,15.1 71.8,15.8 71.6,16.5 71.5,17.2 71.3,17.9 71.2,18.6 71.2,19.4 71.2,20.1 71.2,20.9 71.2,21.7 
		71.3,22.4 71.5,23.1 71.6,23.9 71.8,24.6 72.1,25.3 72.3,25.9 72.6,26.6 73,27.2 73.3,27.8 73.7,28.4 74.1,29 74.6,29.6 75,30.1 
		75.5,30.6 76,31.1 76.6,31.6 77.1,32 77.7,32.5 78.3,32.8 78.9,33.2 79.6,33.5 80.2,33.8 80.9,34.1 81.6,34.3 82.3,34.5 83,34.7 
		83.7,34.8 84.5,34.9 85.2,35 	"/>
	<polygon class="st98" points="94.2,11 102.1,11 102.1,10.2 94.9,10.2 	"/>
	<polygon class="st98" points="93,12.8 102.1,12.8 102.1,12 93.5,12 	"/>
	<polygon class="st98" points="92.1,14.6 102.1,14.6 102.1,13.8 92.5,13.8 	"/>
	<polygon class="st98" points="91.5,16.4 102.1,16.4 102.1,15.6 91.8,15.6 	"/>
	<polygon class="st98" points="91.9,25.1 102.1,25.1 102.1,24.2 91.6,24.2 	"/>
	<polygon class="st98" points="92.6,26.8 102.1,26.8 102.1,26 92.2,26 	"/>
	<polygon class="st98" points="93.7,28.6 102.1,28.6 102.1,27.8 93.2,27.8 	"/>
	<polygon class="st98" points="95.1,30.4 102.1,30.4 102.1,29.6 94.4,29.6 	"/>
	<polygon class="st98" points="91.2,18.2 102.1,18.2 102.1,17.4 91.3,17.4 	"/>
	<polygon class="st98" points="97.8,23.3 102,23.3 102,22.5 97.9,22.5 	"/>
	<polygon class="st98" points="98.1,21.5 102,21.5 102,20.7 98.3,20.7 	"/>
	<polygon class="st98" points="90.9,20.7 92,20.7 92,21.5 90.9,21.5 	"/>
	<polygon class="st8" points="88.9,19.7 88.8,19.7 88.7,19.7 88.7,19.7 88.6,19.7 88.5,19.7 88.5,19.6 88.4,19.6 88.3,19.6 
		88.3,19.6 88.2,19.6 88.1,19.6 88,19.6 87.9,19.6 87.8,19.6 87.7,19.6 87.5,19.6 87.4,19.6 87.3,19.7 87.2,19.7 87.2,19.7 
		87.1,19.8 87,19.8 87,19.8 86.9,19.9 86.9,19.9 86.9,20 86.9,20.1 86.9,20.1 86.9,20.2 86.9,20.2 86.9,20.3 87,20.4 87.1,20.5 
		87.2,20.5 87.4,20.6 87.5,20.7 87.7,20.7 87.8,20.8 88,20.8 88.2,20.9 88.3,21 88.4,21.1 88.6,21.2 88.7,21.4 88.7,21.6 88.8,21.8 
		88.8,22 88.8,22.4 88.8,22.6 88.7,22.8 88.6,23 88.5,23.2 88.4,23.3 88.3,23.4 88.1,23.5 88,23.6 87.8,23.7 87.7,23.8 87.5,23.8 
		87.3,23.9 87.1,23.9 87,23.9 86.8,23.9 86.7,23.9 86.4,23.9 86.2,23.9 86.1,23.9 85.9,23.9 85.8,23.9 85.6,23.9 85.5,23.9 
		85.4,23.9 85.3,23.9 85.2,23.8 85.1,23.8 85,23.8 84.9,23.8 84.8,23.8 84.8,23.7 84.7,23.7 84.9,22.6 84.9,22.6 85,22.6 85.1,22.6 
		85.2,22.7 85.2,22.7 85.3,22.7 85.5,22.7 85.6,22.7 85.7,22.8 85.8,22.8 86,22.8 86.1,22.8 86.3,22.8 86.4,22.8 86.5,22.8 
		86.7,22.8 86.8,22.8 86.9,22.7 87,22.7 87.1,22.6 87.2,22.5 87.2,22.5 87.2,22.4 87.2,22.3 87.3,22.2 87.2,22 87.1,21.9 87,21.9 
		86.8,21.8 86.7,21.7 86.5,21.6 86.3,21.6 86.1,21.5 85.9,21.4 85.7,21.2 85.6,21.1 85.4,20.9 85.3,20.7 85.3,20.4 85.3,20.1 
		85.3,19.9 85.4,19.7 85.4,19.5 85.5,19.4 85.6,19.2 85.6,19.1 85.7,19 85.9,18.9 86,18.8 86.2,18.7 86.4,18.6 86.6,18.5 86.8,18.5 
		87,18.5 87.3,18.4 87.6,18.4 87.8,18.4 87.9,18.4 88.1,18.5 88.2,18.5 88.4,18.5 88.5,18.5 88.6,18.5 88.7,18.5 88.8,18.5 
		88.8,18.5 88.9,18.5 89,18.5 89,18.5 89,18.6 89.1,18.6 89.1,18.6 	"/>
	<polyline class="st100" points="88.9,19.7 88.9,19.7 88.8,19.7 88.7,19.7 88.7,19.7 88.6,19.7 88.5,19.7 88.5,19.6 88.4,19.6 
		88.3,19.6 88.3,19.6 88.2,19.6 88.1,19.6 88,19.6 87.9,19.6 87.8,19.6 87.7,19.6 87.5,19.6 87.4,19.6 87.3,19.7 87.2,19.7 
		87.2,19.7 87.1,19.8 87,19.8 87,19.8 86.9,19.9 86.9,19.9 86.9,20 86.9,20.1 86.9,20.1 86.9,20.2 86.9,20.2 86.9,20.3 87,20.4 
		87.1,20.5 87.2,20.5 87.4,20.6 87.5,20.7 87.7,20.7 87.8,20.8 88,20.8 88.2,20.9 88.3,21 88.4,21.1 88.6,21.2 88.7,21.4 88.7,21.6 
		88.8,21.8 88.8,22 88.8,22.4 88.8,22.6 88.7,22.8 88.6,23 88.5,23.2 88.4,23.3 88.3,23.4 88.1,23.5 88,23.6 87.8,23.7 87.7,23.8 
		87.5,23.8 87.3,23.9 87.1,23.9 87,23.9 86.8,23.9 86.7,23.9 86.4,23.9 86.2,23.9 86.1,23.9 85.9,23.9 85.8,23.9 85.6,23.9 
		85.5,23.9 85.4,23.9 85.3,23.9 85.2,23.8 85.1,23.8 85,23.8 84.9,23.8 84.8,23.8 84.8,23.7 84.7,23.7 84.9,22.6 84.9,22.6 85,22.6 
		85.1,22.6 85.2,22.7 85.2,22.7 85.3,22.7 85.5,22.7 85.6,22.7 85.7,22.8 85.8,22.8 86,22.8 86.1,22.8 86.3,22.8 86.4,22.8 
		86.5,22.8 86.7,22.8 86.8,22.8 86.9,22.7 87,22.7 87.1,22.6 87.2,22.5 87.2,22.5 87.2,22.4 87.2,22.3 87.3,22.2 87.2,22 87.1,21.9 
		87,21.9 86.8,21.8 86.7,21.7 86.5,21.6 86.3,21.6 86.1,21.5 85.9,21.4 85.7,21.2 85.6,21.1 85.4,20.9 85.3,20.7 85.3,20.4 
		85.3,20.1 85.3,19.9 85.4,19.7 85.4,19.5 85.5,19.4 85.6,19.2 85.6,19.1 85.7,19 85.9,18.9 86,18.8 86.2,18.7 86.4,18.6 86.6,18.5 
		86.8,18.5 87,18.5 87.3,18.4 87.6,18.4 87.8,18.4 87.9,18.4 88.1,18.5 88.2,18.5 88.4,18.5 88.5,18.5 88.6,18.5 88.7,18.5 
		88.8,18.5 88.8,18.5 88.9,18.5 89,18.5 89,18.5 89,18.6 89.1,18.6 89.1,18.6 88.9,19.7 	"/>
	<polygon class="st8" points="90.1,17.3 91.4,17.3 91.2,18.5 92.1,18.5 91.9,19.7 91,19.6 90.5,22.4 90.5,22.5 90.6,22.6 90.6,22.7 
		90.7,22.7 90.8,22.8 90.9,22.8 91,22.8 91.1,22.8 91.2,22.8 91.3,22.8 91.4,22.8 91.5,22.8 91.5,22.8 91.6,22.8 91.6,22.7 
		91.6,22.7 91.4,23.7 91.4,23.7 91.4,23.7 91.3,23.7 91.3,23.8 91.3,23.8 91.2,23.8 91.2,23.8 91.1,23.8 91.1,23.8 91,23.8 91,23.8 
		90.9,23.9 90.9,23.9 90.8,23.9 90.7,23.9 90.6,23.9 90.2,23.9 90,23.9 89.9,23.9 89.7,23.8 89.6,23.8 89.5,23.8 89.4,23.7 
		89.3,23.6 89.2,23.6 89.2,23.5 89.1,23.4 89.1,23.3 89.1,23.2 89.1,23.1 89.1,23 89.1,22.9 89.1,22.8 	"/>
	<polyline class="st100" points="90.1,17.3 91.4,17.3 91.2,18.5 92.1,18.5 91.9,19.7 91,19.6 90.5,22.4 90.5,22.5 90.6,22.6 
		90.6,22.7 90.7,22.7 90.8,22.8 90.9,22.8 91,22.8 91.1,22.8 91.2,22.8 91.3,22.8 91.4,22.8 91.5,22.8 91.5,22.8 91.6,22.8 
		91.6,22.7 91.6,22.7 91.4,23.7 91.4,23.7 91.4,23.7 91.3,23.7 91.3,23.8 91.3,23.8 91.2,23.8 91.2,23.8 91.1,23.8 91.1,23.8 
		91,23.8 91,23.8 90.9,23.9 90.9,23.9 90.8,23.9 90.7,23.9 90.6,23.9 90.2,23.9 90,23.9 89.9,23.9 89.7,23.8 89.6,23.8 89.5,23.8 
		89.4,23.7 89.3,23.6 89.2,23.6 89.2,23.5 89.1,23.4 89.1,23.3 89.1,23.2 89.1,23.1 89.1,23 89.1,22.9 89.1,22.8 90.1,17.3 	"/>
	<polygon class="st8" points="93.2,21.6 93.2,21.6 93.2,21.7 93.2,21.8 93.2,21.9 93.2,22 93.3,22.1 93.3,22.2 93.4,22.3 93.4,22.4 
		93.5,22.4 93.6,22.5 93.7,22.6 93.8,22.6 93.9,22.7 94,22.7 94.1,22.7 94.2,22.8 94.3,22.8 94.5,22.8 94.6,22.8 94.7,22.8 
		94.9,22.8 95,22.8 95.1,22.8 95.3,22.8 95.4,22.7 95.5,22.7 95.7,22.7 95.8,22.6 96,22.6 96.1,22.5 96.2,22.4 96,23.6 96,23.7 
		95.9,23.7 95.8,23.7 95.7,23.8 95.7,23.8 95.6,23.8 95.5,23.8 95.4,23.8 95.3,23.9 95.2,23.9 95.1,23.9 95,23.9 94.9,23.9 
		94.7,23.9 94.6,23.9 94.4,23.9 94.2,23.9 93.9,23.9 93.7,23.8 93.4,23.8 93.2,23.7 92.9,23.6 92.7,23.5 92.5,23.3 92.3,23.2 
		92.1,23 92,22.7 91.9,22.5 91.8,22.2 91.7,21.8 91.7,21.5 91.7,21.1 91.8,20.9 91.8,20.7 91.8,20.5 91.9,20.3 92,20.1 92.1,19.9 
		92.2,19.7 92.3,19.4 92.5,19.2 92.7,19.1 92.9,18.9 93.1,18.7 93.4,18.6 93.7,18.5 94.1,18.5 94.5,18.4 94.7,18.4 94.9,18.5 
		95.1,18.5 95.3,18.5 95.5,18.6 95.7,18.7 95.9,18.8 96.1,19 96.2,19.1 96.3,19.3 96.4,19.6 96.5,19.8 96.5,20.1 96.5,20.5 
		96.5,20.9 96.4,21.3 96.4,21.6 92.8,21.6 93,20.6 95.2,20.6 95.2,20.5 95.2,20.4 95.2,20.2 95.2,20.1 95.1,20 95.1,20 95,19.9 
		95,19.8 94.9,19.8 94.9,19.7 94.8,19.7 94.7,19.6 94.6,19.6 94.6,19.6 94.5,19.6 94.4,19.6 94.3,19.6 94.2,19.6 94.1,19.6 94,19.6 
		93.9,19.7 93.9,19.7 93.8,19.8 93.7,19.8 93.7,19.9 93.6,20 93.6,20 93.5,20.1 93.5,20.2 93.4,20.3 93.4,20.4 93.4,20.5 	"/>
	<polyline class="st100" points="93.2,21.6 93.2,21.6 93.2,21.6 93.2,21.7 93.2,21.8 93.2,21.9 93.2,22 93.3,22.1 93.3,22.2 
		93.4,22.3 93.4,22.4 93.5,22.4 93.6,22.5 93.7,22.6 93.8,22.6 93.9,22.7 94,22.7 94.1,22.7 94.2,22.8 94.3,22.8 94.5,22.8 
		94.6,22.8 94.7,22.8 94.9,22.8 95,22.8 95.1,22.8 95.3,22.8 95.4,22.7 95.5,22.7 95.7,22.7 95.8,22.6 96,22.6 96.1,22.5 96.2,22.4 
		96,23.6 96,23.7 95.9,23.7 95.8,23.7 95.7,23.8 95.7,23.8 95.6,23.8 95.5,23.8 95.4,23.8 95.3,23.9 95.2,23.9 95.1,23.9 95,23.9 
		94.9,23.9 94.7,23.9 94.6,23.9 94.4,23.9 94.2,23.9 93.9,23.9 93.7,23.8 93.4,23.8 93.2,23.7 92.9,23.6 92.7,23.5 92.5,23.3 
		92.3,23.2 92.1,23 92,22.7 91.9,22.5 91.8,22.2 91.7,21.8 91.7,21.5 91.7,21.1 91.8,20.9 91.8,20.7 91.8,20.5 91.9,20.3 92,20.1 
		92.1,19.9 92.2,19.7 92.3,19.4 92.5,19.2 92.7,19.1 92.9,18.9 93.1,18.7 93.4,18.6 93.7,18.5 94.1,18.5 94.5,18.4 94.7,18.4 
		94.9,18.5 95.1,18.5 95.3,18.5 95.5,18.6 95.7,18.7 95.9,18.8 96.1,19 96.2,19.1 96.3,19.3 96.4,19.6 96.5,19.8 96.5,20.1 
		96.5,20.5 96.5,20.9 96.4,21.3 96.4,21.6 92.8,21.6 93,20.6 95.2,20.6 95.2,20.5 95.2,20.4 95.2,20.2 95.2,20.1 95.1,20 95.1,20 
		95,19.9 95,19.8 94.9,19.8 94.9,19.7 94.8,19.7 94.7,19.6 94.6,19.6 94.6,19.6 94.5,19.6 94.4,19.6 94.3,19.6 94.2,19.6 94.1,19.6 
		94,19.6 93.9,19.7 93.9,19.7 93.8,19.8 93.7,19.8 93.7,19.9 93.6,20 93.6,20 93.5,20.1 93.5,20.2 93.4,20.3 93.4,20.4 93.4,20.5 
		93.2,21.6 	"/>
	<polygon class="st8" points="105.1,18.8 105,18.8 105,18.8 104.9,18.7 104.8,18.7 104.7,18.7 104.7,18.7 104.6,18.6 104.5,18.6 
		104.4,18.6 104.3,18.5 104.2,18.5 104.1,18.5 104,18.5 103.9,18.5 103.7,18.5 103.6,18.5 103.5,18.5 103.4,18.5 103.2,18.5 
		103.1,18.5 102.9,18.6 102.8,18.6 102.7,18.7 102.5,18.8 102.4,18.9 102.3,19 102.1,19.2 102,19.4 101.9,19.6 101.8,19.8 
		101.7,20.1 101.6,20.4 101.6,20.6 101.6,20.8 101.6,21 101.6,21.1 101.6,21.3 101.6,21.5 101.7,21.6 101.7,21.8 101.8,21.9 
		101.9,22 102,22.2 102.1,22.3 102.2,22.4 102.4,22.4 102.6,22.5 102.8,22.5 102.8,22.6 102.9,22.6 103,22.6 103.1,22.6 103.2,22.6 
		103.3,22.6 103.4,22.6 103.6,22.6 103.7,22.6 103.8,22.5 103.9,22.5 104.1,22.5 104.2,22.4 104.3,22.4 104.4,22.3 104.5,22.2 
		104.3,23.5 104.3,23.5 104.2,23.6 104.2,23.6 104.1,23.6 104.1,23.7 104,23.7 103.9,23.7 103.9,23.8 103.7,23.8 103.6,23.8 
		103.5,23.9 103.3,23.9 103.1,23.9 102.9,23.9 102.6,23.9 102.3,23.9 102.1,23.8 101.9,23.8 101.6,23.7 101.4,23.6 101.2,23.5 
		101,23.4 100.8,23.2 100.6,23 100.4,22.8 100.3,22.5 100.2,22.2 100.1,21.9 100,21.6 100,21.2 100,20.8 100.1,20.4 100.1,20.2 
		100.1,20 100.2,19.8 100.2,19.6 100.3,19.5 100.4,19.3 100.4,19.1 100.5,19 100.6,18.8 100.7,18.7 100.7,18.5 100.8,18.4 
		100.9,18.3 101,18.2 101.1,18 101.2,17.9 101.3,17.8 101.5,17.7 101.6,17.7 101.7,17.6 101.8,17.5 102,17.4 102.1,17.4 102.3,17.3 
		102.4,17.3 102.6,17.2 102.7,17.2 102.9,17.2 103.1,17.1 103.2,17.1 103.4,17.1 103.6,17.1 103.8,17.1 103.9,17.1 104.1,17.1 
		104.2,17.2 104.4,17.2 104.5,17.2 104.6,17.2 104.8,17.3 104.9,17.3 105,17.3 105.1,17.4 105.1,17.4 105.2,17.4 105.3,17.4 
		105.3,17.5 105.3,17.5 	"/>
	<polyline class="st100" points="105.1,18.8 105.1,18.8 105,18.8 105,18.8 104.9,18.7 104.8,18.7 104.7,18.7 104.7,18.7 104.6,18.6 
		104.5,18.6 104.4,18.6 104.3,18.5 104.2,18.5 104.1,18.5 104,18.5 103.9,18.5 103.7,18.5 103.6,18.5 103.5,18.5 103.4,18.5 
		103.2,18.5 103.1,18.5 102.9,18.6 102.8,18.6 102.7,18.7 102.5,18.8 102.4,18.9 102.3,19 102.1,19.2 102,19.4 101.9,19.6 
		101.8,19.8 101.7,20.1 101.6,20.4 101.6,20.6 101.6,20.8 101.6,21 101.6,21.1 101.6,21.3 101.6,21.5 101.7,21.6 101.7,21.8 
		101.8,21.9 101.9,22 102,22.2 102.1,22.3 102.2,22.4 102.4,22.4 102.6,22.5 102.8,22.5 102.8,22.6 102.9,22.6 103,22.6 103.1,22.6 
		103.2,22.6 103.3,22.6 103.4,22.6 103.6,22.6 103.7,22.6 103.8,22.5 103.9,22.5 104.1,22.5 104.2,22.4 104.3,22.4 104.4,22.3 
		104.5,22.2 104.3,23.5 104.3,23.5 104.2,23.6 104.2,23.6 104.1,23.6 104.1,23.7 104,23.7 103.9,23.7 103.9,23.8 103.7,23.8 
		103.6,23.8 103.5,23.9 103.3,23.9 103.1,23.9 102.9,23.9 102.6,23.9 102.3,23.9 102.1,23.8 101.9,23.8 101.6,23.7 101.4,23.6 
		101.2,23.5 101,23.4 100.8,23.2 100.6,23 100.4,22.8 100.3,22.5 100.2,22.2 100.1,21.9 100,21.6 100,21.2 100,20.8 100.1,20.4 
		100.1,20.2 100.1,20 100.2,19.8 100.2,19.6 100.3,19.5 100.4,19.3 100.4,19.1 100.5,19 100.6,18.8 100.7,18.7 100.7,18.5 
		100.8,18.4 100.9,18.3 101,18.2 101.1,18 101.2,17.9 101.3,17.8 101.5,17.7 101.6,17.7 101.7,17.6 101.8,17.5 102,17.4 102.1,17.4 
		102.3,17.3 102.4,17.3 102.6,17.2 102.7,17.2 102.9,17.2 103.1,17.1 103.2,17.1 103.4,17.1 103.6,17.1 103.8,17.1 103.9,17.1 
		104.1,17.1 104.2,17.2 104.4,17.2 104.5,17.2 104.6,17.2 104.8,17.3 104.9,17.3 105,17.3 105.1,17.4 105.1,17.4 105.2,17.4 
		105.3,17.4 105.3,17.5 105.3,17.5 105.1,18.8 	"/>
	<polygon class="st8" points="117.4,23.9 116,23.9 116.1,23.3 116.1,23.3 116,23.4 115.9,23.5 115.9,23.6 115.8,23.6 115.7,23.7 
		115.6,23.8 115.5,23.8 115.4,23.8 115.3,23.9 115.2,23.9 115.1,23.9 115,23.9 114.9,24 114.8,24 114.7,24 114.6,24 114.4,24 
		114.1,23.9 113.9,23.8 113.7,23.7 113.5,23.6 113.4,23.4 113.2,23.2 113.1,23 113,22.8 112.9,22.5 112.9,22.3 112.8,22 112.8,21.8 
		112.8,21.5 112.8,21.3 112.9,21 113,20.7 113.1,20.4 113.2,20.2 113.3,19.9 113.4,19.7 113.6,19.5 113.7,19.3 113.9,19.2 114.1,19 
		114.2,18.9 114.4,18.8 114.6,18.7 114.8,18.6 115,18.6 115.2,18.6 115.4,18.5 115.6,18.6 115.7,18.6 115.8,18.6 116,18.6 
		116.1,18.7 116.2,18.7 116.3,18.8 116.4,18.8 116.5,18.9 116.5,18.9 116.6,19 116.7,19.1 116.7,19.1 116.7,19.2 116.8,19.3 
		116.8,19.3 117.2,17.4 118.5,17.4 	"/>
	<polyline class="st100" points="117.4,23.9 116,23.9 116.1,23.3 116.1,23.3 116,23.4 115.9,23.5 115.9,23.6 115.8,23.6 115.7,23.7 
		115.6,23.8 115.5,23.8 115.4,23.8 115.3,23.9 115.2,23.9 115.1,23.9 115,23.9 114.9,24 114.8,24 114.7,24 114.6,24 114.4,24 
		114.1,23.9 113.9,23.8 113.7,23.7 113.5,23.6 113.4,23.4 113.2,23.2 113.1,23 113,22.8 112.9,22.5 112.9,22.3 112.8,22 112.8,21.8 
		112.8,21.5 112.8,21.3 112.9,21 113,20.7 113.1,20.4 113.2,20.2 113.3,19.9 113.4,19.7 113.6,19.5 113.7,19.3 113.9,19.2 114.1,19 
		114.2,18.9 114.4,18.8 114.6,18.7 114.8,18.6 115,18.6 115.2,18.6 115.4,18.5 115.6,18.6 115.7,18.6 115.8,18.6 116,18.6 
		116.1,18.7 116.2,18.7 116.3,18.8 116.4,18.8 116.5,18.9 116.5,18.9 116.6,19 116.7,19.1 116.7,19.1 116.7,19.2 116.8,19.3 
		116.8,19.3 117.2,17.4 118.5,17.4 117.4,23.9 	"/>
	<polygon class="st98" points="115.1,22.7 115.3,22.7 115.4,22.6 115.5,22.6 115.6,22.6 115.7,22.5 115.8,22.4 115.9,22.3 116,22.2 
		116.1,22.1 116.2,22 116.2,21.9 116.3,21.8 116.3,21.7 116.4,21.5 116.4,21.4 116.4,21.3 116.5,21.1 116.5,21 116.5,20.9 
		116.5,20.7 116.5,20.6 116.4,20.5 116.4,20.3 116.4,20.2 116.3,20.1 116.3,20 116.2,20 116.1,19.9 116,19.8 115.9,19.8 115.8,19.8 
		115.7,19.8 115.6,19.8 115.5,19.8 115.4,19.8 115.2,19.9 115.1,19.9 115,20 115,20.1 114.9,20.2 114.8,20.3 114.7,20.4 114.7,20.5 
		114.6,20.7 114.6,20.8 114.5,20.9 114.5,21.1 114.5,21.2 114.4,21.4 114.4,21.7 114.5,21.9 114.5,22.2 114.6,22.4 114.8,22.5 
		114.9,22.6 	"/>
	<polygon class="st8" points="84.4,22.8 84.2,23.9 83,23.9 83,23.7 83,23.5 83.1,23.4 83.1,23.3 83,23.4 82.9,23.5 82.8,23.5 
		82.7,23.6 82.6,23.7 82.5,23.7 82.4,23.8 82.2,23.8 82.1,23.9 81.9,23.9 81.8,23.9 81.6,24 81.5,24 81.4,24 81.2,24 81.1,23.9 
		80.9,23.9 80.7,23.9 80.6,23.8 80.5,23.7 80.4,23.6 80.3,23.5 80.2,23.4 80.1,23.3 80.1,23.2 80,23.1 80,23 79.9,22.9 79.9,22.8 
		79.9,22.7 79.9,22.6 79.9,22.5 79.9,22.3 79.9,22.1 80,21.9 80.1,21.7 80.1,21.6 80.2,21.4 80.3,21.3 80.5,21.2 80.6,21.1 
		80.7,20.9 80.9,20.9 81,20.8 81.2,20.7 81.3,20.6 81.5,20.6 81.7,20.6 81.7,20.6 81.7,20.6 81.8,20.6 81.8,20.6 81.9,20.5 
		81.9,20.5 82,20.5 82.1,20.5 82.2,20.5 82.3,20.5 82.4,20.5 82.4,20.5 82.5,20.5 82.6,20.5 82.7,20.5 82.7,20.5 82.8,20.5 83,20.5 
		83.1,20.5 83.2,20.5 83.3,20.5 83.3,20.5 83.4,20.5 83.4,20.5 83.4,20.5 83.4,20.4 83.5,20.3 83.5,20.2 83.4,20.1 83.4,20 
		83.3,19.9 83.3,19.8 83.2,19.7 83.1,19.7 82.9,19.7 82.8,19.7 82.7,19.6 82.5,19.6 82.4,19.6 82.2,19.6 82,19.7 81.9,19.7 
		81.7,19.7 81.6,19.7 81.4,19.7 81.3,19.8 81.1,19.8 81,19.8 80.9,19.8 80.8,19.9 80.8,19.9 80.7,19.9 81.1,18.7 81.2,18.7 
		81.3,18.6 81.4,18.6 81.5,18.6 81.6,18.6 81.8,18.5 81.9,18.5 82,18.5 82.2,18.5 82.3,18.5 82.5,18.5 82.6,18.5 82.8,18.5 
		82.9,18.5 83.1,18.5 83.3,18.5 83.4,18.5 83.6,18.5 83.7,18.6 83.9,18.6 84.1,18.7 84.2,18.7 84.4,18.8 84.5,18.9 84.6,19 
		84.7,19.1 84.8,19.3 84.9,19.4 85,19.6 85,19.8 85,19.9 85,20.2 	"/>
	<polyline class="st100" points="84.4,22.8 84.2,23.9 83,23.9 83,23.7 83,23.5 83.1,23.4 83.1,23.3 83,23.4 82.9,23.5 82.8,23.5 
		82.7,23.6 82.6,23.7 82.5,23.7 82.4,23.8 82.2,23.8 82.1,23.9 81.9,23.9 81.8,23.9 81.6,24 81.5,24 81.4,24 81.2,24 81.1,23.9 
		80.9,23.9 80.7,23.9 80.6,23.8 80.5,23.7 80.4,23.6 80.3,23.5 80.2,23.4 80.1,23.3 80.1,23.2 80,23.1 80,23 79.9,22.9 79.9,22.8 
		79.9,22.7 79.9,22.6 79.9,22.5 79.9,22.3 79.9,22.1 80,21.9 80.1,21.7 80.1,21.6 80.2,21.4 80.3,21.3 80.5,21.2 80.6,21.1 
		80.7,20.9 80.9,20.9 81,20.8 81.2,20.7 81.3,20.6 81.5,20.6 81.7,20.6 81.7,20.6 81.7,20.6 81.8,20.6 81.8,20.6 81.9,20.5 
		81.9,20.5 82,20.5 82.1,20.5 82.2,20.5 82.3,20.5 82.4,20.5 82.4,20.5 82.5,20.5 82.6,20.5 82.7,20.5 82.7,20.5 82.8,20.5 83,20.5 
		83.1,20.5 83.2,20.5 83.3,20.5 83.3,20.5 83.4,20.5 83.4,20.5 83.4,20.5 83.4,20.4 83.5,20.3 83.5,20.2 83.4,20.1 83.4,20 
		83.3,19.9 83.3,19.8 83.2,19.7 83.1,19.7 82.9,19.7 82.8,19.7 82.7,19.6 82.5,19.6 82.4,19.6 82.2,19.6 82,19.7 81.9,19.7 
		81.7,19.7 81.6,19.7 81.4,19.7 81.3,19.8 81.1,19.8 81,19.8 80.9,19.8 80.8,19.9 80.8,19.9 80.7,19.9 81.1,18.7 81.2,18.7 
		81.3,18.6 81.4,18.6 81.5,18.6 81.6,18.6 81.8,18.5 81.9,18.5 82,18.5 82.2,18.5 82.3,18.5 82.5,18.5 82.6,18.5 82.8,18.5 
		82.9,18.5 83.1,18.5 83.3,18.5 83.4,18.5 83.6,18.5 83.7,18.6 83.9,18.6 84.1,18.7 84.2,18.7 84.4,18.8 84.5,18.9 84.6,19 
		84.7,19.1 84.8,19.3 84.9,19.4 85,19.6 85,19.8 85,19.9 85,20.2 84.4,22.8 	"/>
	<polygon class="st99" points="83.2,21.5 83.2,21.5 83.2,21.4 83.2,21.4 83.1,21.4 83.1,21.4 83,21.4 82.9,21.4 82.9,21.4 
		82.8,21.4 82.7,21.4 82.6,21.4 82.5,21.4 82.5,21.4 82.4,21.5 82.3,21.5 82.3,21.5 82.3,21.5 82.2,21.5 82.2,21.5 82.1,21.6 
		82,21.6 82,21.6 81.9,21.7 81.8,21.7 81.8,21.7 81.7,21.8 81.6,21.9 81.6,21.9 81.5,22 81.5,22 81.5,22.1 81.5,22.2 81.5,22.4 
		81.5,22.5 81.5,22.6 81.6,22.7 81.7,22.7 81.7,22.8 81.8,22.8 81.9,22.8 82.1,22.8 82.2,22.8 82.3,22.7 82.4,22.7 82.5,22.7 
		82.6,22.6 82.7,22.6 82.8,22.5 82.9,22.5 82.9,22.4 83,22.4 83,22.3 83,22.3 83.1,22.2 83.1,22.1 83.1,22.1 83.2,21.9 83.2,21.8 
		83.2,21.6 	"/>
	<polygon class="st8" points="73.9,23.9 72.6,23.9 73.7,17.3 76.1,17.3 76.3,21.2 77.9,17.3 80.4,17.3 79.2,23.9 77.9,23.9 78.7,19 
		78.7,19 76.7,23.9 75.1,23.9 75.1,23.7 75.1,23.1 75,22.4 75,21.5 74.9,20.6 74.9,19.8 74.9,19.2 74.8,19 74.8,19 74.8,19 74.8,19 
			"/>
	<polyline class="st100" points="73.9,23.9 72.6,23.9 73.7,17.3 76.1,17.3 76.3,21.2 77.9,17.3 80.4,17.3 79.2,23.9 77.9,23.9 
		78.7,19 78.7,19 76.7,23.9 75.1,23.9 75.1,23.7 75.1,23.1 75,22.4 75,21.5 74.9,20.6 74.9,19.8 74.9,19.2 74.8,19 74.8,19 74.8,19 
		74.8,19 73.9,23.9 	"/>
	<polygon class="st8" points="109.2,22.8 109,23.9 107.8,23.9 107.8,23.7 107.8,23.5 107.8,23.4 107.8,23.3 107.7,23.4 107.7,23.5 
		107.6,23.5 107.5,23.6 107.4,23.7 107.3,23.7 107.1,23.8 107,23.8 106.9,23.9 106.7,23.9 106.6,23.9 106.5,24 106.3,24 106.2,24 
		106,24 105.9,23.9 105.7,23.9 105.6,23.9 105.4,23.8 105.3,23.7 105.2,23.6 105.1,23.5 105,23.4 104.9,23.3 104.9,23.2 104.8,23.1 
		104.8,23 104.8,22.9 104.7,22.8 104.7,22.7 104.7,22.6 104.7,22.5 104.7,22.3 104.8,22.1 104.8,21.9 104.9,21.7 104.9,21.6 
		105,21.4 105.1,21.3 105.3,21.2 105.4,21.1 105.5,20.9 105.7,20.9 105.8,20.8 106,20.7 106.1,20.6 106.3,20.6 106.5,20.6 
		106.5,20.6 106.5,20.6 106.5,20.6 106.6,20.6 106.7,20.5 106.7,20.5 106.8,20.5 106.9,20.5 107,20.5 107.1,20.5 107.1,20.5 
		107.2,20.5 107.3,20.5 107.4,20.5 107.5,20.5 107.5,20.5 107.6,20.5 107.7,20.5 107.9,20.5 108,20.5 108.1,20.5 108.1,20.5 
		108.2,20.5 108.2,20.5 108.2,20.5 108.2,20.4 108.3,20.3 108.3,20.2 108.2,20.1 108.2,20 108.1,19.9 108.1,19.8 108,19.7 
		107.9,19.7 107.8,19.7 107.6,19.7 107.5,19.6 107.3,19.6 107.2,19.6 107,19.6 106.9,19.7 106.7,19.7 106.5,19.7 106.4,19.7 
		106.2,19.7 106.1,19.8 106,19.8 105.8,19.8 105.7,19.8 105.6,19.9 105.6,19.9 105.5,19.9 105.9,18.7 106,18.7 106.1,18.6 
		106.2,18.6 106.3,18.6 106.5,18.6 106.6,18.5 106.7,18.5 106.8,18.5 107,18.5 107.1,18.5 107.3,18.5 107.4,18.5 107.6,18.5 
		107.7,18.5 107.9,18.5 108.1,18.5 108.2,18.5 108.4,18.5 108.5,18.6 108.7,18.6 108.8,18.7 109,18.7 109.2,18.8 109.3,18.9 
		109.4,19 109.5,19.1 109.6,19.3 109.7,19.4 109.8,19.6 109.8,19.8 109.8,19.9 109.8,20.2 	"/>
	<polygon class="st8" points="109,23.9 109.1,23.9 109.3,22.8 109.2,22.8 109,23.9 109,23.9 109,23.9 109.1,23.9 109.1,23.9 	"/>
	<polygon class="st8" points="107.8,23.9 107.8,23.9 109,23.9 109,23.9 107.8,23.9 107.8,23.9 107.8,23.9 107.8,23.9 107.8,23.9 	
		"/>
	<polygon class="st8" points="107.8,23.3 107.8,23.3 107.8,23.4 107.8,23.5 107.8,23.7 107.8,23.9 107.8,23.9 107.8,23.7 
		107.8,23.5 107.8,23.4 107.8,23.3 107.8,23.3 	"/>
	<polygon class="st8" points="105.9,24 105.9,24 106,24 106.2,24 106.3,24 106.5,24 106.6,24 106.7,24 106.9,23.9 107,23.9 
		107.1,23.8 107.3,23.8 107.4,23.7 107.5,23.6 107.6,23.6 107.7,23.5 107.8,23.4 107.8,23.3 107.8,23.3 107.7,23.4 107.7,23.4 
		107.6,23.5 107.5,23.6 107.4,23.6 107.2,23.7 107.1,23.8 107,23.8 106.9,23.9 106.7,23.9 106.6,23.9 106.5,23.9 106.3,23.9 
		106.2,24 106,23.9 105.9,23.9 	"/>
	<polygon class="st8" points="104.7,22.5 104.7,22.5 104.7,22.6 104.7,22.7 104.7,22.8 104.7,22.9 104.8,23 104.8,23.1 104.8,23.3 
		104.9,23.4 105,23.5 105.1,23.6 105.2,23.7 105.3,23.7 105.4,23.8 105.5,23.9 105.7,23.9 105.9,24 105.9,23.9 105.7,23.9 
		105.6,23.8 105.4,23.8 105.3,23.7 105.2,23.6 105.1,23.5 105,23.4 105,23.3 104.9,23.2 104.9,23.1 104.8,23 104.8,22.9 104.8,22.8 
		104.8,22.7 104.8,22.6 104.8,22.5 	"/>
	<polygon class="st8" points="106.5,20.5 106.5,20.5 106.3,20.6 106.1,20.6 106,20.7 105.8,20.7 105.7,20.8 105.5,20.9 105.4,21 
		105.2,21.1 105.1,21.3 105,21.4 104.9,21.6 104.8,21.7 104.8,21.9 104.7,22.1 104.7,22.3 104.7,22.5 104.8,22.5 104.8,22.3 
		104.8,22.1 104.8,21.9 104.9,21.7 105,21.6 105.1,21.5 105.2,21.3 105.3,21.2 105.4,21.1 105.5,21 105.7,20.9 105.8,20.8 106,20.7 
		106.2,20.7 106.3,20.6 106.5,20.6 	"/>
	<polygon class="st8" points="107.5,20.4 107.5,20.4 107.5,20.4 107.4,20.4 107.3,20.5 107.2,20.5 107.1,20.5 107.1,20.5 107,20.5 
		106.9,20.5 106.8,20.5 106.7,20.5 106.7,20.5 106.6,20.5 106.5,20.5 106.5,20.5 106.5,20.5 106.5,20.5 106.5,20.6 106.5,20.6 
		106.5,20.6 106.5,20.6 106.6,20.6 106.7,20.6 106.7,20.6 106.8,20.6 106.9,20.6 107,20.5 107.1,20.5 107.1,20.5 107.2,20.5 
		107.3,20.5 107.4,20.5 107.5,20.5 107.5,20.5 	"/>
	<polygon class="st8" points="108.2,20.5 108.2,20.5 108.2,20.5 108.1,20.5 108.1,20.5 108,20.4 107.9,20.4 107.7,20.4 107.6,20.4 
		107.5,20.4 107.5,20.5 107.6,20.5 107.7,20.5 107.9,20.5 108,20.5 108.1,20.5 108.1,20.5 108.2,20.5 108.2,20.5 108.2,20.5 
		108.2,20.5 108.2,20.5 108.2,20.5 	"/>
	<polygon class="st8" points="108.2,20.2 108.2,20.2 108.2,20.3 108.2,20.4 108.2,20.5 108.2,20.5 108.2,20.5 108.3,20.5 
		108.3,20.4 108.3,20.3 108.3,20.2 108.3,20.2 	"/>
	<polygon class="st8" points="107.6,19.7 107.6,19.7 107.8,19.7 107.9,19.7 108,19.8 108,19.8 108.1,19.9 108.2,20 108.2,20.1 
		108.2,20.2 108.3,20.2 108.3,20.1 108.2,19.9 108.2,19.9 108.1,19.8 108,19.7 107.9,19.7 107.8,19.6 107.6,19.6 107.6,19.6 	"/>
	<polygon class="st8" points="105.5,19.9 105.5,19.9 105.6,19.9 105.7,19.9 105.7,19.9 105.9,19.8 106,19.8 106.1,19.8 106.2,19.8 
		106.4,19.7 106.5,19.7 106.7,19.7 106.9,19.7 107,19.7 107.2,19.7 107.3,19.7 107.5,19.7 107.6,19.7 107.6,19.6 107.5,19.6 
		107.3,19.6 107.2,19.6 107,19.6 106.9,19.6 106.7,19.6 106.5,19.7 106.4,19.7 106.2,19.7 106.1,19.7 106,19.7 105.8,19.8 
		105.7,19.8 105.6,19.8 105.6,19.9 105.5,19.9 105.6,19.9 	"/>
	<polygon class="st8" points="105.9,18.7 105.8,18.7 105.5,19.9 105.6,19.9 105.9,18.7 105.9,18.8 105.9,18.7 105.8,18.7 
		105.8,18.7 	"/>
	<polygon class="st8" points="108.1,18.5 108.1,18.5 107.9,18.5 107.7,18.4 107.6,18.4 107.4,18.4 107.3,18.4 107.1,18.5 107,18.5 
		106.8,18.5 106.7,18.5 106.6,18.5 106.5,18.5 106.3,18.5 106.2,18.6 106.1,18.6 106,18.6 105.9,18.7 105.9,18.8 106,18.7 
		106.1,18.7 106.2,18.6 106.3,18.6 106.5,18.6 106.6,18.6 106.7,18.5 106.8,18.5 107,18.5 107.1,18.5 107.3,18.5 107.4,18.5 
		107.6,18.5 107.7,18.5 107.9,18.5 108.1,18.5 	"/>
	<polygon class="st8" points="109.8,20.2 109.8,20.2 109.8,20 109.8,19.8 109.8,19.6 109.7,19.4 109.7,19.3 109.6,19.1 109.4,19 
		109.3,18.9 109.2,18.8 109,18.7 108.9,18.6 108.7,18.6 108.5,18.5 108.4,18.5 108.2,18.5 108.1,18.5 108.1,18.5 108.2,18.5 
		108.4,18.6 108.5,18.6 108.7,18.6 108.8,18.7 109,18.8 109.1,18.8 109.3,18.9 109.4,19.1 109.5,19.2 109.6,19.3 109.7,19.4 
		109.7,19.6 109.8,19.8 109.8,20 109.7,20.1 	"/>
	<polygon class="st8" points="109.3,22.8 109.3,22.8 109.8,20.2 109.7,20.1 109.2,22.8 	"/>
	<polygon class="st98" points="108,21.5 108,21.5 108,21.4 108,21.4 107.9,21.4 107.9,21.4 107.8,21.4 107.7,21.4 107.7,21.4 
		107.6,21.4 107.5,21.4 107.4,21.4 107.3,21.4 107.3,21.4 107.2,21.5 107.1,21.5 107.1,21.5 107,21.5 107,21.5 107,21.5 106.9,21.5 
		106.8,21.6 106.8,21.6 106.7,21.6 106.6,21.7 106.6,21.7 106.5,21.8 106.5,21.8 106.4,21.9 106.4,22 106.3,22 106.3,22.1 
		106.3,22.2 106.3,22.4 106.3,22.5 106.3,22.6 106.4,22.7 106.5,22.7 106.6,22.8 106.6,22.8 106.7,22.8 106.9,22.8 107,22.8 
		107.1,22.7 107.3,22.7 107.4,22.7 107.5,22.6 107.6,22.6 107.6,22.5 107.7,22.5 107.8,22.4 107.8,22.3 107.9,22.3 107.9,22.2 
		107.9,22.1 107.9,22.1 108,22 108,21.9 108,21.7 108,21.6 	"/>
	<polygon class="st8" points="118.3,23.2 118.3,23.1 118.4,23 118.5,22.8 118.5,22.7 118.6,22.7 118.8,22.6 118.9,22.6 119,22.5 
		119.2,22.6 119.3,22.6 119.4,22.7 119.5,22.7 119.6,22.8 119.7,23 119.7,23.1 119.7,23.2 119.6,23.2 119.6,23.1 119.5,23 
		119.5,22.9 119.4,22.8 119.4,22.8 119.3,22.7 119.1,22.7 119,22.7 118.9,22.7 118.8,22.7 118.7,22.8 118.6,22.8 118.6,22.9 
		118.5,23 118.5,23.1 118.5,23.2 	"/>
	<polygon class="st8" points="118.8,23.2 118.8,22.9 119.1,22.9 119.1,22.9 119.2,22.9 119.2,22.9 119.2,23 119.3,23 119.3,23 
		119.3,23.1 119.3,23.1 119.3,23.1 119.3,23.2 119.3,23.2 119.3,23.2 119.1,23.2 119.1,23.2 119.1,23.2 119.1,23.2 119.2,23.2 
		119.2,23.2 119.2,23.2 119.2,23.1 119.2,23.1 119.2,23.1 119.2,23 119.2,23 119.2,23 119.1,23 119.1,23 119.1,23 119.1,23 
		118.9,23 118.9,23.2 	"/>
	<polygon class="st8" points="118.3,23.2 118.3,23.2 118.3,23.4 118.4,23.5 118.5,23.6 118.5,23.7 118.6,23.8 118.8,23.9 
		118.9,23.9 119,23.9 119.2,23.9 119.3,23.9 119.4,23.8 119.5,23.7 119.6,23.6 119.7,23.5 119.7,23.4 119.7,23.2 119.7,23.2 
		119.6,23.2 119.6,23.2 119.6,23.4 119.5,23.5 119.5,23.6 119.4,23.7 119.4,23.7 119.3,23.8 119.1,23.8 119,23.8 118.9,23.8 
		118.8,23.8 118.7,23.7 118.6,23.7 118.6,23.6 118.5,23.5 118.5,23.4 118.5,23.2 118.5,23.2 	"/>
	<polygon class="st8" points="118.8,23.2 118.8,23.5 118.9,23.5 118.9,23.3 119,23.3 119.2,23.5 119.3,23.5 119.1,23.3 119.2,23.3 
		119.2,23.3 119.2,23.2 119.3,23.2 119.3,23.2 119.1,23.2 119,23.2 118.9,23.2 118.9,23.2 	"/>
	<polyline class="st100" points="118.3,23.2 118.3,23.2 118.3,23.1 118.4,23 118.5,22.8 118.5,22.7 118.6,22.7 118.8,22.6 
		118.9,22.6 119,22.5 119.2,22.6 119.3,22.6 119.4,22.7 119.5,22.7 119.6,22.8 119.7,23 119.7,23.1 119.7,23.2 119.7,23.4 
		119.7,23.5 119.6,23.6 119.5,23.7 119.4,23.8 119.3,23.9 119.2,23.9 119,23.9 118.9,23.9 118.8,23.9 118.6,23.8 118.5,23.7 
		118.5,23.6 118.4,23.5 118.3,23.4 118.3,23.2 	"/>
	<polyline class="st100" points="118.9,23.5 118.8,23.5 118.8,22.9 119.1,22.9 119.1,22.9 119.2,22.9 119.2,22.9 119.2,23 119.3,23 
		119.3,23 119.3,23.1 119.3,23.1 119.3,23.1 119.3,23.2 119.3,23.2 119.3,23.2 119.2,23.2 119.2,23.3 119.2,23.3 119.1,23.3 
		119.3,23.5 119.2,23.5 119,23.3 118.9,23.3 118.9,23.5 	"/>
	<polyline class="st100" points="119,23.2 119,23.2 119.1,23.2 119.1,23.2 119.1,23.2 119.2,23.2 119.2,23.2 119.2,23.2 119.2,23.1 
		119.2,23.1 119.2,23.1 119.2,23 119.2,23 119.2,23 119.1,23 119.1,23 119.1,23 119.1,23 118.9,23 118.9,23.2 119,23.2 	"/>
	<polyline class="st100" points="119,23.8 119,23.8 119.1,23.8 119.3,23.8 119.3,23.7 119.4,23.7 119.5,23.6 119.5,23.5 119.6,23.4 
		119.6,23.2 119.6,23.1 119.5,23 119.5,22.9 119.4,22.8 119.3,22.8 119.3,22.7 119.1,22.7 119,22.7 118.9,22.7 118.8,22.7 
		118.7,22.8 118.6,22.8 118.6,22.9 118.5,23 118.5,23.1 118.5,23.2 118.5,23.4 118.5,23.5 118.6,23.6 118.6,23.7 118.7,23.7 
		118.8,23.8 118.9,23.8 119,23.8 	"/>
	<polygon class="st8" points="109.6,23.9 111,23.9 111.5,21.1 111.6,20.9 111.6,20.8 111.6,20.7 111.7,20.6 111.7,20.5 111.8,20.4 
		111.8,20.3 111.9,20.2 112,20.1 112.1,20 112.2,20 112.3,19.9 112.5,19.9 112.6,19.8 112.8,19.8 113,19.8 113.1,19.8 113.1,19.8 
		113.1,19.8 113.4,18.5 113.2,18.5 113.1,18.5 113,18.5 112.8,18.6 112.7,18.6 112.6,18.7 112.5,18.7 112.4,18.8 112.4,18.9 
		112.3,18.9 112.2,19 112.1,19.1 112,19.2 112,19.3 111.9,19.4 111.8,19.5 112,18.5 110.6,18.5 	"/>
	<polyline class="st100" points="109.6,23.9 111,23.9 111.5,21.1 111.6,20.9 111.6,20.8 111.6,20.7 111.7,20.6 111.7,20.5 
		111.8,20.4 111.8,20.3 111.9,20.2 112,20.1 112.1,20 112.2,20 112.3,19.9 112.5,19.9 112.6,19.8 112.8,19.8 113,19.8 113.1,19.8 
		113.1,19.8 113.1,19.8 113.4,18.5 113.2,18.5 113.1,18.5 113,18.5 112.8,18.6 112.7,18.6 112.6,18.7 112.5,18.7 112.4,18.8 
		112.4,18.9 112.3,18.9 112.2,19 112.1,19.1 112,19.2 112,19.3 111.9,19.4 111.8,19.5 112,18.5 110.6,18.5 109.6,23.9 	"/>
	<polygon class="st8" points="96.4,23.9 97.8,23.9 97.8,23.9 98.3,21.1 98.3,20.9 98.3,20.8 98.4,20.7 98.4,20.6 98.4,20.5 
		98.5,20.4 98.6,20.3 98.6,20.3 98.7,20.2 98.8,20.1 98.9,20.1 99,20 99.2,20 99.3,19.9 99.5,19.9 99.7,19.9 99.7,19.9 99.7,19.9 
		99.7,19.9 99.8,19.9 99.8,19.9 99.8,19.9 99.8,19.9 99.8,19.9 99.8,19.9 99.9,19.8 99.9,19.7 99.9,19.6 99.9,19.5 100,19.4 
		100,19.2 100.1,19.1 100.1,19 100.2,18.9 100.2,18.8 100.3,18.7 100.3,18.6 100.3,18.6 100.4,18.5 100.4,18.5 100.4,18.5 
		100.3,18.5 100.3,18.5 100.3,18.5 100.2,18.5 100.2,18.5 100.2,18.5 100.1,18.5 100,18.5 99.8,18.5 99.7,18.5 99.6,18.6 99.5,18.6 
		99.4,18.7 99.3,18.7 99.2,18.8 99.1,18.8 99,18.9 98.9,19 98.9,19.1 98.8,19.2 98.7,19.2 98.7,19.4 98.6,19.5 98.8,18.5 97.3,18.5 
			"/>
	<polyline class="st100" points="96.4,23.9 97.8,23.9 97.8,23.9 98.3,21.1 98.3,20.9 98.3,20.8 98.4,20.7 98.4,20.6 98.4,20.5 
		98.5,20.4 98.6,20.3 98.6,20.3 98.7,20.2 98.8,20.1 98.9,20.1 99,20 99.2,20 99.3,19.9 99.5,19.9 99.7,19.9 99.7,19.9 99.7,19.9 
		99.7,19.9 99.8,19.9 99.8,19.9 99.8,19.9 99.8,19.9 99.8,19.9 99.8,19.9 99.9,19.8 99.9,19.7 99.9,19.6 99.9,19.5 100,19.4 
		100,19.2 100.1,19.1 100.1,19 100.2,18.9 100.2,18.8 100.3,18.7 100.3,18.6 100.3,18.6 100.4,18.5 100.4,18.5 100.4,18.5 
		100.3,18.5 100.3,18.5 100.3,18.5 100.2,18.5 100.2,18.5 100.2,18.5 100.1,18.5 100,18.5 99.8,18.5 99.7,18.5 99.6,18.6 99.5,18.6 
		99.4,18.7 99.3,18.7 99.2,18.8 99.1,18.8 99,18.9 98.9,19 98.9,19.1 98.8,19.2 98.7,19.2 98.7,19.4 98.6,19.5 98.8,18.5 97.3,18.5 
		96.4,23.9 	"/>
	<polygon class="st101" points="63.1,35 20.1,35 19.3,35 19.3,34.2 19.3,5.8 19.3,5 20.1,5 63.1,5 63.9,5 63.9,5.8 63.9,34.2 
		63.9,35 	"/>
	<rect x="20.1" y="5.8" class="st102" width="43" height="28.5"/>
	<polygon class="st103" points="35.7,24.6 38.4,15.4 40.9,15.4 38.1,24.6 	"/>
	<path class="st103" d="M34.5,15.4l-2.2,3.9c-0.6,1-0.9,1.5-1.1,2.2h0c0-0.8-0.1-1.8-0.1-2.4l-0.2-3.7h-4.2l0,0.2
		c1.1,0,1.7,0.5,1.9,1.6l0.8,7.3h2.6l5.2-9.2H34.5z"/>
	<path class="st103" d="M53.9,24.6l-0.1-1.4l-3.1,0l-0.6,1.4h-2.7l4.9-9.2h3.3l0.8,9.2H53.9z M53.7,19.2c0-0.7-0.1-1.6,0-2.2h0
		c-0.2,0.5-0.8,1.8-1.1,2.5l-0.9,2h2.2L53.7,19.2z"/>
	<path class="st103" d="M43.6,24.9c-1.8,0-2.9-0.6-3.8-1.1L41,22c0.7,0.4,1.3,0.9,2.7,0.9c0.4,0,0.9-0.1,1.1-0.5
		c0.3-0.6-0.1-0.9-1.1-1.5l-0.5-0.3c-1.4-1-2.1-1.9-1.4-3.6c0.4-1,1.6-1.8,3.5-1.8c1.3,0,2.5,0.6,3.2,1.1l-1.4,1.6
		c-0.7-0.6-1.3-0.8-1.9-0.8c-0.5,0-0.9,0.2-1.1,0.5c-0.3,0.5,0.1,0.9,0.8,1.3l0.6,0.4c1.8,1.1,2.2,2.3,1.7,3.3
		C46.6,24.5,45.1,24.9,43.6,24.9"/>
	<path class="st103" d="M57.2,16.7h-0.1V16h0.3c0.2,0,0.2,0.1,0.2,0.2c0,0.1-0.1,0.2-0.2,0.2l0.2,0.3h-0.1l-0.2-0.3h-0.1V16.7z
		 M57.3,16.3c0.1,0,0.2,0,0.2-0.1c0-0.1-0.1-0.1-0.1-0.1h-0.1v0.2H57.3z M57.3,16.9c-0.3,0-0.6-0.3-0.6-0.6c0-0.4,0.3-0.6,0.6-0.6
		c0.3,0,0.6,0.2,0.6,0.6C57.9,16.7,57.6,16.9,57.3,16.9 M57.3,15.8c-0.3,0-0.5,0.2-0.5,0.5c0,0.3,0.2,0.5,0.5,0.5
		c0.3,0,0.5-0.2,0.5-0.5C57.8,16,57.6,15.8,57.3,15.8"/>
	<rect x="21.2" y="27.5" class="st104" width="40.9" height="5.5"/>
	<rect x="21.2" y="7.1" class="st103" width="40.9" height="5.5"/>
</g>
</svg>
