<svg xmlns="http://www.w3.org/2000/svg" width="261" height="52" fill="none" viewBox="0 0 261 52">
    <g clip-path="url(#a)">
        <path d="M.87-.285h259.239v52.56H.87z"/>
        <path fill="#28AAE1" d="M78.416 32.343l-12.644 1.804c-1.995.275-3.868-1.1-4.144-3.088l-.675-4.738a3.51 3.51 0 0 1 .675-2.66 3.546 3.546 0 0 1 1.995-1.375c.123-.03.277-.061.43-.092l12.645-1.804-.829-5.808a2.124 2.124 0 0 0-2.424-1.804l-31.52 4.525a2.175 2.175 0 0 0-1.566 1.04c-.153.244-.245.519-.276.825-.03.183-.03.336 0 .52L43.52 43.47c.215 1.131 1.259 1.926 2.425 1.742l31.52-4.524c1.166-.183 1.995-1.253 1.81-2.415l-.859-5.93zm.369-8.437a2 2 0 0 0-.86-1.376 1.694 1.694 0 0 0-.767-.305c-.215-.031-.43-.062-.675-.031l-11.97 1.712c-1.105.153-1.872 1.192-1.718 2.293l.644 4.463c.154 1.1 1.197 1.865 2.302 1.712l11.97-1.712c.214-.03.43-.092.644-.214.246-.122.46-.306.645-.52.337-.428.521-.978.43-1.559l-.645-4.463zm-7.642-12.595L70.13 8.988a2.17 2.17 0 0 0-2.271-1.284c-.184.03-.369.091-.553.153L63.9 9.324l-8.44 4.219 15.683-2.232zm28.543 4.983l-5.924.03V34.82h-6.506V16.294h-5.924v23.998h26.119l1.565-5.472h-9.361V16.294h.03zM61.936 8.56l-1.044-1.498a2.17 2.17 0 0 0-3.008-.55l-11.08 8.437 3.407-.49 11.724-5.9zM28.603 28.033l-5.923-11.678-6.016 11.464-3.406-11.525H7.304l8.318 24.517 7.12-11.83 6.66 11.83 9.054-24.517h-6.292l-3.56 11.739zm174.972-8.346a12.649 12.649 0 0 0-4.051-2.507c-1.535-.61-3.192-.917-4.972-.917h-8.624v23.998h8.624c1.749 0 3.407-.306 4.941-.917a13.287 13.287 0 0 0 4.082-2.537 11.178 11.178 0 0 0 2.732-3.852c.675-1.437.982-2.996.982-4.708 0-1.712-.338-3.271-.982-4.738-.675-1.437-1.566-2.721-2.732-3.822zm-2.946 11.189a7.263 7.263 0 0 1-1.535 2.232 6.881 6.881 0 0 1-2.302 1.528c-.89.367-1.81.55-2.793.55h-1.933V21.37H194a7.22 7.22 0 0 1 2.793.55c.89.397 1.658.886 2.302 1.498a7.008 7.008 0 0 1 1.504 2.2c.368.887.553 1.774.553 2.63a6.71 6.71 0 0 1-.522 2.629zm37.996-2.599a8.063 8.063 0 0 0-3.131-2.262 77.747 77.747 0 0 1-3.468-1.406c-1.105-.459-1.657-1.131-1.657-1.926 0-.58.245-1.04.767-1.375a2.535 2.535 0 0 1 1.565-.52c.737 0 1.412.153 1.965.428.552.275 1.166.733 1.841 1.406l2.916-4.127c-.921-.887-1.995-1.559-3.223-2.079a10.228 10.228 0 0 0-3.683-.703c-1.35 0-2.609.275-3.775.887a7.153 7.153 0 0 0-2.916 2.568c-.736 1.13-1.135 2.445-1.135 3.943 0 1.987.43 3.455 1.289 4.463.89 1.01 1.934 1.773 3.1 2.263l.89.366.89.367c.829.337 1.381.581 1.719.734 1.135.49 1.688 1.131 1.688 1.957 0 .703-.307 1.222-.89 1.59a3.715 3.715 0 0 1-1.934.55c-1.657 0-3.008-.643-4.021-1.927L224.232 38a9.728 9.728 0 0 0 3.437 2.14c1.289.458 2.639.703 4.021.703 2.393 0 4.358-.703 5.892-2.079 1.535-1.375 2.333-3.363 2.333-5.93.031-2.018-.43-3.516-1.289-4.555zM109.875 16.294v23.998h15.315l-.03-5.044h-9.361V30.6h6.138l-1.381-5.044h-4.757V21.46l13.289-.06v18.892h5.924V21.399h5.708l-1.412-5.136h-29.433v.031zm104.167 18.923V30.57h6.138l-1.35-5.044h-4.757V21.37h8.624l.061-5.106H208.18v23.998h15.254l-.031-5.044h-9.361zm-35.295-17.822c-1.964-1.101-4.082-1.682-6.353-1.682-2.302 0-4.42.55-6.353 1.682-1.965 1.13-3.53 2.66-4.666 4.555-1.135 1.956-1.718 4.065-1.718 6.328 0 2.292.583 4.402 1.718 6.297 1.136 1.926 2.701 3.424 4.666 4.555 1.964 1.131 4.082 1.681 6.353 1.681 2.302 0 4.419-.55 6.353-1.681 1.964-1.131 3.499-2.63 4.634-4.555a12.214 12.214 0 0 0 1.719-6.298c0-2.262-.583-4.371-1.719-6.328a12.708 12.708 0 0 0-4.634-4.555zm-.461 14.337a7.669 7.669 0 0 1-2.486 2.66 6.165 6.165 0 0 1-3.406 1.008 6.166 6.166 0 0 1-3.407-1.008 7.69 7.69 0 0 1-2.486-2.66c-.614-1.1-.921-2.262-.921-3.454 0-1.193.307-2.354.921-3.455.614-1.1 1.442-1.987 2.486-2.629a6.166 6.166 0 0 1 3.407-1.009c1.197 0 2.332.337 3.406 1.009a7.3 7.3 0 0 1 2.486 2.63c.614 1.1.921 2.261.921 3.453 0 1.223-.307 2.354-.921 3.455zm-22.189 2.629c-.983.672-2.026 1.009-3.162 1.009a5.4 5.4 0 0 1-3.161-1.009 7.175 7.175 0 0 1-2.332-2.629 7.283 7.283 0 0 1-.86-3.454c0-1.193.276-2.354.86-3.455.583-1.1 1.35-1.987 2.332-2.629 1.013-.672 2.056-1.009 3.192-1.009 1.136 0 2.179.337 3.192 1.009.43.275.89.703 1.412 1.315l3.898-4.005a12.309 12.309 0 0 0-2.548-2.11c-1.811-1.13-3.775-1.68-5.954-1.68-2.148 0-4.113.55-5.954 1.68a12.685 12.685 0 0 0-4.358 4.556c-1.075 1.925-1.596 4.004-1.596 6.328 0 2.292.521 4.402 1.596 6.297 1.074 1.895 2.516 3.424 4.358 4.555 1.811 1.131 3.806 1.681 5.954 1.681 2.148 0 4.113-.55 5.954-1.681.982-.58 1.811-1.315 2.578-2.14l-3.898-4.005c-.521.581-1.012 1.04-1.503 1.376z"/>
        <path fill="#fff" d="M59.112 6.145c.675 0 1.35.336 1.78.917l1.043 1.498-11.693 5.9-3.407.489 11.08-8.438a2.052 2.052 0 0 1 1.197-.366zm9.023 1.559c.829 0 1.627.489 1.964 1.284l1.013 2.323-15.714 2.262 8.44-4.218 3.407-1.468c.184-.092.368-.122.552-.153.154-.03.246-.03.338-.03zm5.586 5.074c1.043 0 1.964.765 2.117 1.835l.83 5.808-12.646 1.804c-.153.03-.307.06-.43.091a3.446 3.446 0 0 0-1.994 1.376c-.553.734-.798 1.681-.676 2.66l.676 4.738a3.682 3.682 0 0 0 3.621 3.118c.184 0 .338 0 .522-.03l12.645-1.804.86 5.93a2.118 2.118 0 0 1-1.812 2.416l-31.52 4.524c-.092 0-.215.03-.307.03a2.138 2.138 0 0 1-2.117-1.773l-3.438-23.783a1.478 1.478 0 0 1 0-.52c.031-.306.123-.58.276-.825.307-.55.89-.948 1.566-1.04l31.52-4.524c.123-.03.215-.03.307-.03zm79.184 2.935c2.148 0 4.112.55 5.954 1.682.982.58 1.811 1.314 2.547 2.109l-3.898 4.005c-.521-.581-.982-1.04-1.411-1.315-1.013-.672-2.087-1.009-3.192-1.009-1.136 0-2.179.337-3.192 1.009a7.178 7.178 0 0 0-2.333 2.63c-.552 1.1-.859 2.261-.859 3.453 0 1.193.276 2.354.859 3.455.583 1.1 1.351 1.987 2.333 2.629.982.672 2.025 1.009 3.161 1.009 1.136 0 2.21-.337 3.161-1.009.491-.336.982-.795 1.473-1.376l3.929 4.005a13.313 13.313 0 0 1-2.578 2.14c-1.811 1.131-3.775 1.681-5.954 1.681-2.149 0-4.113-.55-5.954-1.681-1.842-1.131-3.284-2.66-4.359-4.555-1.074-1.926-1.596-4.005-1.596-6.298 0-2.323.522-4.402 1.596-6.328a12.211 12.211 0 0 1 4.359-4.555 11.104 11.104 0 0 1 5.954-1.68zm79.644 0c1.228 0 2.455.245 3.683.703a10.05 10.05 0 0 1 3.223 2.079l-2.947 4.127c-.706-.672-1.32-1.131-1.841-1.406-.553-.275-1.228-.428-1.965-.428-.552 0-1.074.183-1.565.52-.522.366-.767.825-.767 1.375 0 .826.552 1.468 1.657 1.926.921.397 2.118.887 3.468 1.406 1.197.459 2.241 1.223 3.131 2.262.859 1.04 1.32 2.568 1.32 4.556 0 2.567-.768 4.554-2.333 5.93-1.535 1.376-3.499 2.079-5.893 2.079-1.381 0-2.731-.245-4.02-.703a9.732 9.732 0 0 1-3.438-2.14l3.192-4.525c1.013 1.284 2.363 1.926 4.021 1.926.675 0 1.319-.183 1.933-.55.583-.367.89-.886.89-1.59 0-.825-.552-1.467-1.688-1.956-.337-.153-.92-.397-1.718-.734l-.89-.367-.89-.366c-1.197-.49-2.21-1.223-3.1-2.263-.86-1.008-1.289-2.476-1.289-4.463 0-1.498.368-2.812 1.135-3.943.737-1.131 1.688-1.988 2.916-2.568 1.136-.581 2.394-.887 3.775-.887zm-60.155 0c2.302 0 4.419.55 6.353 1.682a12.708 12.708 0 0 1 4.634 4.555c1.136 1.956 1.719 4.065 1.719 6.328 0 2.292-.583 4.402-1.719 6.297-1.135 1.926-2.67 3.454-4.634 4.555-1.964 1.131-4.082 1.681-6.353 1.681-2.302 0-4.42-.55-6.353-1.681-1.965-1.131-3.53-2.66-4.665-4.555a12.215 12.215 0 0 1-1.719-6.298c0-2.262.583-4.371 1.719-6.328 1.135-1.926 2.7-3.423 4.665-4.555a12.645 12.645 0 0 1 6.353-1.68zm0 19.687a6.164 6.164 0 0 0 3.406-1.008 7.39 7.39 0 0 0 2.486-2.66c.614-1.1.921-2.262.921-3.454 0-1.193-.307-2.354-.921-3.455-.613-1.1-1.442-1.987-2.486-2.629-1.074-.672-2.209-1.009-3.406-1.009a6.166 6.166 0 0 0-3.407 1.009 7.31 7.31 0 0 0-2.486 2.63c-.614 1.1-.921 2.261-.921 3.453 0 1.193.307 2.354.921 3.455a7.698 7.698 0 0 0 2.486 2.66c1.013.672 2.148 1.008 3.407 1.008zm22.159-19.137c1.78 0 3.407.306 4.972.917a12.647 12.647 0 0 1 4.051 2.507 11.164 11.164 0 0 1 2.732 3.852c.675 1.467.982 3.027.982 4.738 0 1.682-.338 3.271-.982 4.708-.675 1.468-1.565 2.752-2.732 3.852a12.931 12.931 0 0 1-4.082 2.537c-1.534.612-3.192.918-4.941.918h-8.624V16.263h8.624zm-2.455 18.954h1.933c.982 0 1.903-.184 2.793-.55a7.754 7.754 0 0 0 2.302-1.529 7.282 7.282 0 0 0 1.535-2.231c.368-.795.521-1.682.521-2.599 0-.856-.184-1.742-.552-2.629a6.86 6.86 0 0 0-1.504-2.201c-.614-.611-1.381-1.1-2.302-1.498a7.334 7.334 0 0 0-2.793-.55h-1.933v13.787zm30.63-18.923l-.062 5.105h-8.624v4.158h4.788l1.381 5.044h-6.138v4.647h9.361l.03 5.044h-15.315V16.294h14.579zm-83.45 0l1.411 5.136h-5.708v18.892h-5.924V21.4l-13.289.061v4.066h4.757l1.381 5.044h-6.138v4.647h9.361l.031 5.044h-15.285V16.294h29.403zm-39.592 0v18.525h9.361l-1.566 5.473H81.332V16.294l5.924-.03v18.525h6.506V16.294h5.924zm-61.199 0l-9.054 24.517-6.69-11.83-7.121 11.83-8.317-24.517h5.954l3.406 11.525 6.016-11.464 5.923 11.678 3.622-11.739h6.261zm38.272 5.87c.123 0 .246 0 .368.03.277.061.522.153.768.306.46.305.798.794.86 1.375l.644 4.464a1.968 1.968 0 0 1-.43 1.559 2.099 2.099 0 0 1-.644.52 2 2 0 0 1-.645.213l-11.97 1.712c-.092 0-.184.03-.276.03-.982 0-1.872-.733-1.995-1.742l-.644-4.463c-.154-1.1.613-2.14 1.718-2.293l11.97-1.712h.276zM59.112 2.17a6.01 6.01 0 0 0-3.5 1.101.537.537 0 0 0-.153.122l-11.08 8.438c-.49.367-.859.825-1.104 1.314l-1.964.275c-.031 0-.062 0-.093.03a3.994 3.994 0 0 0-2.731-1.1h-6.292a3.976 3.976 0 0 0-3.805 2.813l-.706 2.262-1.443-2.873a3.974 3.974 0 0 0-3.53-2.171h-.03a3.981 3.981 0 0 0-3.53 2.14l-1.442 2.751-.614-2.11a3.976 3.976 0 0 0-3.806-2.842H7.305a3.934 3.934 0 0 0-3.223 1.65c-.737 1.04-.952 2.385-.553 3.577l8.318 24.518c.49 1.467 1.81 2.506 3.345 2.69.154 0 .276.03.43.03 1.381 0 2.7-.733 3.407-1.925l3.59-5.992 3.315 5.87a3.964 3.964 0 0 0 3.468 2.017h.307c1.535-.122 2.885-1.131 3.407-2.568l4.42-11.953 2.056 13.787c0 .03 0 .092.03.123a6.118 6.118 0 0 0 6.047 5.044c.276 0 .583-.031.86-.062l31.489-4.493a5.956 5.956 0 0 0 1.933-.612c.43.153.89.245 1.381.245h26.119c.429 0 .828-.061 1.197-.184.368.123.798.184 1.197.184h15.315c.675 0 1.35-.184 1.933-.52.583.336 1.228.52 1.934.52h5.923c2.21 0 3.99-1.773 3.99-3.974v-4.097c.061.123.123.214.184.337 1.412 2.506 3.346 4.524 5.74 5.991a15.216 15.216 0 0 0 8.041 2.262c2.885 0 5.586-.764 8.041-2.262.491-.306.982-.642 1.442-.978.522.397 1.075.734 1.627 1.07 2.578 1.467 5.402 2.201 8.379 2.201 2.977 0 5.8-.734 8.348-2.201a17.282 17.282 0 0 0 1.473-.948c.552 1.498 2.026 2.568 3.744 2.568h8.625c2.24 0 4.389-.397 6.414-1.192a15.53 15.53 0 0 0 3.315-1.743 3.948 3.948 0 0 0 3.836 2.935h15.285c.798 0 1.565-.244 2.209-.672.246.091.461.183.706.275 1.719.642 3.53.947 5.371.947 3.376 0 6.261-1.039 8.563-3.087 1.658-1.468 3.652-4.219 3.652-8.865 0-2.966-.767-5.35-2.24-7.123l-.031-.031c-.46-.52-.92-1.009-1.442-1.437l2.455-3.485a3.946 3.946 0 0 0-.491-5.136c-1.289-1.222-2.762-2.2-4.481-2.873-.031 0-.031 0-.031-.03a14.25 14.25 0 0 0-5.125-.979c-1.995 0-3.867.428-5.555 1.284-.43.214-.829.428-1.197.672-.062-.091-.154-.152-.215-.244-.737-.764-1.78-1.162-2.824-1.162H208.18a3.955 3.955 0 0 0-3.836 2.904 17.165 17.165 0 0 0-3.315-1.742c-1.995-.795-4.174-1.192-6.415-1.192h-8.624a4.006 4.006 0 0 0-3.744 2.598 23.636 23.636 0 0 0-1.443-.947c-2.578-1.468-5.401-2.202-8.379-2.202-2.977 0-5.8.734-8.348 2.201-.552.337-1.105.673-1.626 1.07a12.617 12.617 0 0 0-1.473-1.008 15.223 15.223 0 0 0-8.042-2.263 15.22 15.22 0 0 0-8.041 2.263c-.614.397-1.197.794-1.749 1.253v-.03a4.004 4.004 0 0 0-3.837-2.905h-29.433a3.974 3.974 0 0 0-3.99 3.974v14.552h-2.24V16.294c0-1.04-.43-2.079-1.166-2.813a4.004 4.004 0 0 0-2.824-1.161l-5.923.03c-1.35 0-2.517.673-3.254 1.682a4.002 4.002 0 0 0-3.284-1.712h-5.862c-.675 0-1.289.153-1.841.458-.798-2.14-2.763-3.699-5.064-3.943l-.614-1.437c-.952-2.232-3.161-3.668-5.617-3.668-.276 0-.583.03-.86.06-.552.092-1.073.215-1.564.46l-1.504.641-.062-.06c-1.197-1.682-3.069-2.66-5.094-2.66z"/>
        <path fill="#fff" d="M248.325 44.57c4.831-.057 8.701-4.003 8.645-8.814-.056-4.812-4.017-8.666-8.847-8.61-4.831.056-8.701 4.002-8.645 8.813.056 4.811 4.017 8.666 8.847 8.61z"/>
        <path fill="#1B75BA" d="M253.143 35.828c0 2.69-2.118 4.8-4.88 4.8-2.732 0-4.911-2.11-4.911-4.8 0-2.629 2.179-4.738 4.911-4.738 2.762-.03 4.88 2.079 4.88 4.738zm-8.594 0c0 2.11 1.566 3.791 3.714 3.791 2.087 0 3.621-1.681 3.621-3.76 0-2.11-1.534-3.821-3.652-3.821-2.117 0-3.683 1.681-3.683 3.79zm2.947 2.476h-1.105v-4.738c.429-.092 1.043-.153 1.841-.153.89 0 1.32.153 1.658.337.245.214.46.58.46 1.039 0 .52-.399.917-.982 1.1v.062c.46.183.736.52.859 1.161.154.734.246 1.01.338 1.192h-1.197c-.154-.183-.246-.61-.369-1.161-.092-.52-.368-.764-.982-.764h-.521v1.925zm.03-2.69h.522c.614 0 1.105-.214 1.105-.703 0-.428-.307-.733-1.013-.733a2.7 2.7 0 0 0-.614.06v1.376zM161.437 36.99a13.313 13.313 0 0 1-2.578 2.14c-1.811 1.131-3.775 1.681-5.954 1.681a11.11 11.11 0 0 1-5.955-1.681c-1.841-1.131-3.284-2.66-4.358-4.555-1.074-1.926-1.596-4.005-1.596-6.298 0-2.323.522-4.402 1.596-6.328a12.208 12.208 0 0 1 4.358-4.555c1.811-1.13 3.806-1.68 5.955-1.68 2.148 0 4.112.55 5.954 1.68.982.581 1.811 1.315 2.547 2.11l-3.898 4.005c-.521-.581-.982-1.04-1.411-1.315-1.013-.672-2.087-1.009-3.192-1.009-1.136 0-2.179.337-3.192 1.009a7.178 7.178 0 0 0-2.333 2.63c-.552 1.1-.859 2.261-.859 3.453 0 1.193.276 2.354.859 3.455.583 1.1 1.351 1.987 2.333 2.629.982.672 2.025 1.009 3.161 1.009 1.136 0 2.21-.337 3.161-1.009.491-.336.982-.795 1.473-1.376l3.929 4.005z"/>
        <path fill="#1B75BA" d="M185.1 28.277c0 2.293-.583 4.403-1.719 6.298-1.135 1.926-2.67 3.454-4.634 4.555-1.964 1.131-4.082 1.681-6.353 1.681-2.302 0-4.42-.55-6.353-1.681-1.965-1.131-3.53-2.66-4.666-4.555a12.223 12.223 0 0 1-1.718-6.298c0-2.262.583-4.371 1.718-6.328 1.136-1.926 2.701-3.423 4.666-4.555 1.964-1.13 4.082-1.68 6.353-1.68 2.302 0 4.419.55 6.353 1.68a12.708 12.708 0 0 1 4.634 4.556c1.136 1.956 1.719 4.065 1.719 6.328zm-19.551 0c0 1.193.307 2.354.921 3.455.614 1.131 1.473 1.987 2.486 2.66a6.168 6.168 0 0 0 3.407 1.008 6.168 6.168 0 0 0 3.407-1.008 7.408 7.408 0 0 0 2.486-2.66c.614-1.1.92-2.262.92-3.454 0-1.193-.306-2.354-.92-3.455-.614-1.1-1.443-1.987-2.486-2.629-1.074-.672-2.21-1.009-3.407-1.009a6.168 6.168 0 0 0-3.407 1.009 7.318 7.318 0 0 0-2.486 2.63c-.614 1.13-.921 2.261-.921 3.453zM185.959 40.261V16.263h8.625c1.78 0 3.406.306 4.972.917a12.647 12.647 0 0 1 4.051 2.507 11.162 11.162 0 0 1 2.731 3.852c.676 1.467.983 3.027.983 4.738 0 1.682-.338 3.271-.983 4.708-.675 1.468-1.565 2.752-2.731 3.852a12.942 12.942 0 0 1-4.082 2.537c-1.535.612-3.192.918-4.941.918h-8.625v-.031zm6.139-18.892v13.848h1.933c.982 0 1.903-.184 2.793-.55a7.754 7.754 0 0 0 2.302-1.529 7.282 7.282 0 0 0 1.535-2.231c.368-.795.521-1.682.521-2.599 0-.856-.184-1.742-.552-2.629a6.861 6.861 0 0 0-1.504-2.201 6.815 6.815 0 0 0-2.302-1.498 7.334 7.334 0 0 0-2.793-.55h-1.933v-.061zM223.434 40.292h-15.285V16.294h14.579l-.062 5.105h-8.624v4.158h4.788l1.381 5.044h-6.138v4.647h9.361v5.044zM236.508 22.622c-.706-.672-1.32-1.131-1.841-1.406-.553-.275-1.228-.428-1.965-.428-.552 0-1.074.183-1.565.52-.522.366-.767.825-.767 1.375 0 .826.552 1.468 1.657 1.926.921.397 2.118.887 3.468 1.406 1.197.459 2.241 1.223 3.131 2.262.859 1.04 1.32 2.568 1.32 4.556 0 2.567-.768 4.554-2.333 5.93-1.535 1.376-3.499 2.079-5.893 2.079-1.381 0-2.731-.245-4.02-.703-1.32-.459-2.456-1.193-3.438-2.14l3.192-4.525c1.013 1.284 2.363 1.926 4.021 1.926.675 0 1.319-.183 1.933-.55.583-.367.89-.886.89-1.59 0-.825-.552-1.467-1.688-1.956-.337-.153-.92-.397-1.718-.734l-.89-.367-.891-.366c-1.197-.49-2.209-1.223-3.099-2.263-.86-1.008-1.289-2.476-1.289-4.463 0-1.498.368-2.812 1.135-3.943.737-1.131 1.688-1.988 2.916-2.568a8.36 8.36 0 0 1 3.775-.887c1.228 0 2.455.245 3.683.703a10.482 10.482 0 0 1 3.222 2.049l-2.946 4.157z"/>
        <path fill="#28AAE1" d="M13.259 16.294l3.406 11.525 6.016-11.464 5.923 11.678 3.622-11.739h6.292l-9.054 24.517-6.722-11.83-7.12 11.83-8.318-24.517h5.955z"/>
        <path fill="#EA2127" d="M71.143 11.311L70.13 8.988a2.17 2.17 0 0 0-2.271-1.284c-.185.03-.369.091-.553.153L63.9 9.324l-8.44 4.219 15.684-2.232zm-6.63 12.595c-1.105.153-1.872 1.192-1.719 2.293l.645 4.463c.154 1.1 1.197 1.865 2.302 1.712l11.97-1.712c.214-.03.43-.092.644-.214a2.1 2.1 0 0 0 .645-.52c.337-.428.521-.978.43-1.559l-.645-4.463a2 2 0 0 0-.86-1.376 1.695 1.695 0 0 0-.767-.305 2.449 2.449 0 0 0-.675-.031l-11.97 1.712zM61.935 8.56l-1.043-1.498a2.17 2.17 0 0 0-3.008-.55l-11.08 8.437 3.407-.49 11.724-5.9zm16.481 23.783l-12.644 1.804c-1.995.275-3.868-1.1-4.144-3.088l-.675-4.738a3.51 3.51 0 0 1 .675-2.66 3.546 3.546 0 0 1 1.995-1.375c.123-.03.276-.061.43-.092l12.645-1.804-.829-5.808a2.124 2.124 0 0 0-2.425-1.804l-31.52 4.525a2.175 2.175 0 0 0-1.565 1.04c-.153.244-.245.519-.276.825-.03.183-.03.336 0 .52L43.52 43.47c.215 1.131 1.259 1.926 2.425 1.742l31.52-4.524c1.166-.183 1.995-1.253 1.81-2.415l-.859-5.93z"/>
        <path fill="#28AAE1" d="M81.332 40.292V16.294l5.924-.03v18.525h6.506V16.294l5.924-.03v18.525h9.361l-1.566 5.472H81.332v.03zM115.799 21.46v4.066h4.757l1.381 5.044h-6.138v4.647h9.361l.03 5.044h-15.315V16.294h29.403l1.411 5.136h-5.708v18.862h-5.924V21.399l-13.258.061z"/>
    </g>
    <defs>
        <clipPath id="a">
            <path fill="#fff" d="M0 0h261v52H0z"/>
        </clipPath>
    </defs>
</svg>
